%TF.GenerationSoftware,KiCad,Pcbnew,6.0.6-1.fc36*%
%TF.CreationDate,2022-07-20T00:31:47+02:00*%
%TF.ProjectId,atari-lpt-joysticks,61746172-692d-46c7-9074-2d6a6f797374,rev?*%
%TF.SameCoordinates,Original*%
%TF.FileFunction,Legend,Top*%
%TF.FilePolarity,Positive*%
%FSLAX46Y46*%
G04 Gerber Fmt 4.6, Leading zero omitted, Abs format (unit mm)*
G04 Created by KiCad (PCBNEW 6.0.6-1.fc36) date 2022-07-20 00:31:47*
%MOMM*%
%LPD*%
G01*
G04 APERTURE LIST*
%ADD10C,0.150000*%
%ADD11C,0.120000*%
%ADD12R,1.846667X3.480000*%
%ADD13R,2.000000X4.600000*%
%ADD14O,2.000000X4.200000*%
%ADD15O,4.200000X2.000000*%
G04 APERTURE END LIST*
D10*
%TO.C,Joystick-3*%
X95512380Y-68032380D02*
X95512380Y-68746666D01*
X95464761Y-68889523D01*
X95369523Y-68984761D01*
X95226666Y-69032380D01*
X95131428Y-69032380D01*
X96131428Y-69032380D02*
X96036190Y-68984761D01*
X95988571Y-68937142D01*
X95940952Y-68841904D01*
X95940952Y-68556190D01*
X95988571Y-68460952D01*
X96036190Y-68413333D01*
X96131428Y-68365714D01*
X96274285Y-68365714D01*
X96369523Y-68413333D01*
X96417142Y-68460952D01*
X96464761Y-68556190D01*
X96464761Y-68841904D01*
X96417142Y-68937142D01*
X96369523Y-68984761D01*
X96274285Y-69032380D01*
X96131428Y-69032380D01*
X96798095Y-68365714D02*
X97036190Y-69032380D01*
X97274285Y-68365714D02*
X97036190Y-69032380D01*
X96940952Y-69270476D01*
X96893333Y-69318095D01*
X96798095Y-69365714D01*
X97607619Y-68984761D02*
X97702857Y-69032380D01*
X97893333Y-69032380D01*
X97988571Y-68984761D01*
X98036190Y-68889523D01*
X98036190Y-68841904D01*
X97988571Y-68746666D01*
X97893333Y-68699047D01*
X97750476Y-68699047D01*
X97655238Y-68651428D01*
X97607619Y-68556190D01*
X97607619Y-68508571D01*
X97655238Y-68413333D01*
X97750476Y-68365714D01*
X97893333Y-68365714D01*
X97988571Y-68413333D01*
X98321904Y-68365714D02*
X98702857Y-68365714D01*
X98464761Y-68032380D02*
X98464761Y-68889523D01*
X98512380Y-68984761D01*
X98607619Y-69032380D01*
X98702857Y-69032380D01*
X99036190Y-69032380D02*
X99036190Y-68365714D01*
X99036190Y-68032380D02*
X98988571Y-68080000D01*
X99036190Y-68127619D01*
X99083809Y-68080000D01*
X99036190Y-68032380D01*
X99036190Y-68127619D01*
X99940952Y-68984761D02*
X99845714Y-69032380D01*
X99655238Y-69032380D01*
X99560000Y-68984761D01*
X99512380Y-68937142D01*
X99464761Y-68841904D01*
X99464761Y-68556190D01*
X99512380Y-68460952D01*
X99560000Y-68413333D01*
X99655238Y-68365714D01*
X99845714Y-68365714D01*
X99940952Y-68413333D01*
X100369523Y-69032380D02*
X100369523Y-68032380D01*
X100464761Y-68651428D02*
X100750476Y-69032380D01*
X100750476Y-68365714D02*
X100369523Y-68746666D01*
X101179047Y-68651428D02*
X101940952Y-68651428D01*
X102321904Y-68032380D02*
X102940952Y-68032380D01*
X102607619Y-68413333D01*
X102750476Y-68413333D01*
X102845714Y-68460952D01*
X102893333Y-68508571D01*
X102940952Y-68603809D01*
X102940952Y-68841904D01*
X102893333Y-68937142D01*
X102845714Y-68984761D01*
X102750476Y-69032380D01*
X102464761Y-69032380D01*
X102369523Y-68984761D01*
X102321904Y-68937142D01*
%TO.C,Joystick-4*%
X131072380Y-68032380D02*
X131072380Y-68746666D01*
X131024761Y-68889523D01*
X130929523Y-68984761D01*
X130786666Y-69032380D01*
X130691428Y-69032380D01*
X131691428Y-69032380D02*
X131596190Y-68984761D01*
X131548571Y-68937142D01*
X131500952Y-68841904D01*
X131500952Y-68556190D01*
X131548571Y-68460952D01*
X131596190Y-68413333D01*
X131691428Y-68365714D01*
X131834285Y-68365714D01*
X131929523Y-68413333D01*
X131977142Y-68460952D01*
X132024761Y-68556190D01*
X132024761Y-68841904D01*
X131977142Y-68937142D01*
X131929523Y-68984761D01*
X131834285Y-69032380D01*
X131691428Y-69032380D01*
X132358095Y-68365714D02*
X132596190Y-69032380D01*
X132834285Y-68365714D02*
X132596190Y-69032380D01*
X132500952Y-69270476D01*
X132453333Y-69318095D01*
X132358095Y-69365714D01*
X133167619Y-68984761D02*
X133262857Y-69032380D01*
X133453333Y-69032380D01*
X133548571Y-68984761D01*
X133596190Y-68889523D01*
X133596190Y-68841904D01*
X133548571Y-68746666D01*
X133453333Y-68699047D01*
X133310476Y-68699047D01*
X133215238Y-68651428D01*
X133167619Y-68556190D01*
X133167619Y-68508571D01*
X133215238Y-68413333D01*
X133310476Y-68365714D01*
X133453333Y-68365714D01*
X133548571Y-68413333D01*
X133881904Y-68365714D02*
X134262857Y-68365714D01*
X134024761Y-68032380D02*
X134024761Y-68889523D01*
X134072380Y-68984761D01*
X134167619Y-69032380D01*
X134262857Y-69032380D01*
X134596190Y-69032380D02*
X134596190Y-68365714D01*
X134596190Y-68032380D02*
X134548571Y-68080000D01*
X134596190Y-68127619D01*
X134643809Y-68080000D01*
X134596190Y-68032380D01*
X134596190Y-68127619D01*
X135500952Y-68984761D02*
X135405714Y-69032380D01*
X135215238Y-69032380D01*
X135120000Y-68984761D01*
X135072380Y-68937142D01*
X135024761Y-68841904D01*
X135024761Y-68556190D01*
X135072380Y-68460952D01*
X135120000Y-68413333D01*
X135215238Y-68365714D01*
X135405714Y-68365714D01*
X135500952Y-68413333D01*
X135929523Y-69032380D02*
X135929523Y-68032380D01*
X136024761Y-68651428D02*
X136310476Y-69032380D01*
X136310476Y-68365714D02*
X135929523Y-68746666D01*
X136739047Y-68651428D02*
X137500952Y-68651428D01*
X138405714Y-68365714D02*
X138405714Y-69032380D01*
X138167619Y-67984761D02*
X137929523Y-68699047D01*
X138548571Y-68699047D01*
%TO.C,J1*%
X95963333Y-91549880D02*
X95963333Y-92264166D01*
X95915714Y-92407023D01*
X95820476Y-92502261D01*
X95677619Y-92549880D01*
X95582381Y-92549880D01*
X96963333Y-92549880D02*
X96391905Y-92549880D01*
X96677619Y-92549880D02*
X96677619Y-91549880D01*
X96582381Y-91692738D01*
X96487143Y-91787976D01*
X96391905Y-91835595D01*
%TO.C,J2*%
X104822380Y-78423333D02*
X105536666Y-78423333D01*
X105679523Y-78470952D01*
X105774761Y-78566190D01*
X105822380Y-78709047D01*
X105822380Y-78804285D01*
X104917619Y-77994761D02*
X104870000Y-77947142D01*
X104822380Y-77851904D01*
X104822380Y-77613809D01*
X104870000Y-77518571D01*
X104917619Y-77470952D01*
X105012857Y-77423333D01*
X105108095Y-77423333D01*
X105250952Y-77470952D01*
X105822380Y-78042380D01*
X105822380Y-77423333D01*
%TO.C,G\u002A\u002A\u002A*%
G36*
X109295686Y-65304692D02*
G01*
X110107470Y-66114805D01*
X110919254Y-65304692D01*
X111731039Y-64494578D01*
X112284122Y-64494578D01*
X112589235Y-64503206D01*
X112802686Y-64527927D01*
X112909590Y-64566997D01*
X112910651Y-64568024D01*
X112930510Y-64621787D01*
X112946837Y-64745047D01*
X112959868Y-64945874D01*
X112969841Y-65232342D01*
X112976994Y-65612521D01*
X112981563Y-66094482D01*
X112983787Y-66686299D01*
X112984096Y-67064036D01*
X112984096Y-69486603D01*
X112630394Y-69836614D01*
X112443592Y-70014543D01*
X112307518Y-70119939D01*
X112190831Y-70171092D01*
X112062190Y-70186291D01*
X112030587Y-70186626D01*
X111855223Y-70169357D01*
X111728481Y-70126526D01*
X111711036Y-70113180D01*
X111686090Y-70048141D01*
X111666779Y-69902876D01*
X111652696Y-69668464D01*
X111643433Y-69335981D01*
X111638581Y-68896505D01*
X111637590Y-68507905D01*
X111637590Y-66976076D01*
X111131372Y-67479664D01*
X110625154Y-67983253D01*
X109589786Y-67983253D01*
X109083568Y-67479664D01*
X108577349Y-66976076D01*
X108577349Y-68480058D01*
X108576691Y-68980863D01*
X108572279Y-69372643D01*
X108560460Y-69668781D01*
X108537580Y-69882660D01*
X108499984Y-70027666D01*
X108444018Y-70117180D01*
X108366028Y-70164589D01*
X108262359Y-70183274D01*
X108129358Y-70186620D01*
X108111403Y-70186626D01*
X107971997Y-70175396D01*
X107852506Y-70128703D01*
X107719056Y-70027040D01*
X107550078Y-69863376D01*
X107230843Y-69540126D01*
X107230843Y-67090798D01*
X107231857Y-66431037D01*
X107235053Y-65885627D01*
X107240667Y-65446527D01*
X107248931Y-65105696D01*
X107260081Y-64855090D01*
X107274350Y-64686667D01*
X107291973Y-64592386D01*
X107304289Y-64568024D01*
X107408635Y-64528653D01*
X107619860Y-64503591D01*
X107923082Y-64494583D01*
X107930818Y-64494578D01*
X108483901Y-64494578D01*
X109295686Y-65304692D01*
G37*
G36*
X113846251Y-65882642D02*
G01*
X113854896Y-65467021D01*
X113866016Y-65112480D01*
X113879609Y-64834307D01*
X113895675Y-64647792D01*
X113914216Y-64568224D01*
X113914410Y-64568024D01*
X113970069Y-64547238D01*
X114096959Y-64530331D01*
X114303393Y-64517035D01*
X114597682Y-64507082D01*
X114988138Y-64500204D01*
X115483074Y-64496134D01*
X116090801Y-64494605D01*
X116195438Y-64494578D01*
X118403020Y-64494578D01*
X118998618Y-65092420D01*
X119594217Y-65690262D01*
X119594217Y-66730741D01*
X118965822Y-67356997D01*
X118337428Y-67983253D01*
X115187470Y-67983253D01*
X115187470Y-69479221D01*
X114837458Y-69832924D01*
X114653665Y-70012025D01*
X114520144Y-70118289D01*
X114405611Y-70170163D01*
X114278784Y-70186094D01*
X114237651Y-70186626D01*
X114061203Y-70169611D01*
X113933247Y-70127332D01*
X113914410Y-70113180D01*
X113895845Y-70034735D01*
X113879754Y-69849193D01*
X113866137Y-69571845D01*
X113854993Y-69217977D01*
X113846323Y-68802880D01*
X113840127Y-68341842D01*
X113836404Y-67850152D01*
X113835156Y-67343098D01*
X113836380Y-66835969D01*
X113837418Y-66697952D01*
X115187470Y-66697952D01*
X118247711Y-66697952D01*
X118247711Y-65779879D01*
X115187470Y-65779879D01*
X115187470Y-66697952D01*
X113837418Y-66697952D01*
X113840079Y-66344054D01*
X113846251Y-65882642D01*
G37*
G36*
X125885103Y-64817828D02*
G01*
X126058064Y-65003467D01*
X126156053Y-65142846D01*
X126198059Y-65268165D01*
X126204337Y-65359185D01*
X126203125Y-65466892D01*
X126191827Y-65554444D01*
X126158958Y-65623930D01*
X126093027Y-65677435D01*
X125982547Y-65717049D01*
X125816029Y-65744857D01*
X125581985Y-65762948D01*
X125268927Y-65773410D01*
X124865366Y-65778329D01*
X124359815Y-65779793D01*
X123889036Y-65779879D01*
X121797590Y-65779879D01*
X121797590Y-66697952D01*
X125013140Y-66697952D01*
X125608739Y-67295794D01*
X126204337Y-67893636D01*
X126204337Y-68934115D01*
X125575943Y-69560370D01*
X124947549Y-70186626D01*
X121089553Y-70186626D01*
X120770319Y-69863376D01*
X120600948Y-69683279D01*
X120504172Y-69549573D01*
X120460669Y-69427806D01*
X120451084Y-69294172D01*
X120468364Y-69118852D01*
X120511218Y-68992160D01*
X120524530Y-68974771D01*
X120580964Y-68953616D01*
X120709348Y-68936481D01*
X120918081Y-68923088D01*
X121215562Y-68913156D01*
X121610190Y-68906404D01*
X122110364Y-68902554D01*
X122724484Y-68901325D01*
X124857831Y-68901325D01*
X124857831Y-67983253D01*
X121642282Y-67983253D01*
X120451084Y-66787569D01*
X120451084Y-65685775D01*
X121048926Y-65090177D01*
X121646768Y-64494578D01*
X125565868Y-64494578D01*
X125885103Y-64817828D01*
G37*
D11*
%TO.C,J1*%
X134643333Y-93837500D02*
X134643333Y-90097500D01*
X98796667Y-92097500D02*
X98796667Y-89857500D01*
X98796667Y-89857500D02*
X102990000Y-89857500D01*
X99036667Y-90097500D02*
X99036667Y-93837500D01*
X134643333Y-90097500D02*
X99036667Y-90097500D01*
%TO.C,J2*%
X89070000Y-82690000D02*
X89070000Y-73490000D01*
X103870000Y-73190000D02*
X102570000Y-73190000D01*
X89070000Y-73490000D02*
X103570000Y-73490000D01*
X97670000Y-82690000D02*
X89070000Y-82690000D01*
X103570000Y-82690000D02*
X102270000Y-82690000D01*
X103570000Y-73490000D02*
X103570000Y-75490000D01*
X103870000Y-74890000D02*
X103870000Y-73190000D01*
X103570000Y-80690000D02*
X103570000Y-82690000D01*
%TD*%
%LPC*%
D12*
%TO.C,Joystick-3*%
X94905000Y-65482500D03*
X97675000Y-65482500D03*
X100445000Y-65482500D03*
X103215000Y-65482500D03*
%TD*%
%TO.C,Joystick-4*%
X130465000Y-65482500D03*
X133235000Y-65482500D03*
X136005000Y-65482500D03*
X138775000Y-65482500D03*
%TD*%
%TO.C,J1*%
X100220000Y-92097500D03*
X102990000Y-92097500D03*
X105760000Y-92097500D03*
X108530000Y-92097500D03*
X111300000Y-92097500D03*
X114070000Y-92097500D03*
X116840000Y-92097500D03*
X119610000Y-92097500D03*
X122380000Y-92097500D03*
X125150000Y-92097500D03*
X127920000Y-92097500D03*
X130690000Y-92097500D03*
X133460000Y-92097500D03*
%TD*%
D13*
%TO.C,J2*%
X102870000Y-78090000D03*
D14*
X96570000Y-78090000D03*
D15*
X99970000Y-82890000D03*
%TD*%
M02*
