M48
; DRILL file {KiCad 6.0.6-1.fc36} date Wed 20 Jul 2022 00:31:44
; FORMAT={-:-/ absolute / inch / decimal}
; #@! TF.CreationDate,2022-07-20T00:31:44+02:00
; #@! TF.GenerationSoftware,Kicad,Pcbnew,6.0.6-1.fc36
; #@! TF.FileFunction,Plated,1,2,PTH
FMAT,2
INCH
; #@! TA.AperFunction,Plated,PTH,ViaDrill
T1C0.0157
; #@! TA.AperFunction,Plated,PTH,ComponentDrill
T2C0.0394
%
G90
G05
T1
X3.6285Y-2.9
X3.65Y-2.8
X3.65Y-3.6
X3.75Y-2.7
X3.8Y-2.8
X3.8Y-3.45
X4.1Y-2.8
X4.2Y-3.2
X4.3Y-2.8
X4.35Y-3.2
X4.45Y-3.0
X4.45Y-3.2
X4.7Y-3.3
X4.8Y-3.4
X5.05Y-3.3
X5.1Y-2.85
X5.2Y-2.85
X5.2Y-3.35
X5.25Y-2.75
X5.3Y-2.85
X5.35Y-2.7
X5.35Y-3.5
X5.4Y-2.85
X5.5497Y-2.8998
X5.6Y-3.0
T2
G00X3.802Y-3.0311
M15
G01X3.802Y-3.1177
M16
G05
G00X3.9791Y-3.2634
M15
G01X3.8925Y-3.2634
M16
G05
G00X4.05Y-3.0232
M15
G01X4.05Y-3.1256
M16
G05
T0
M30
