M48
; DRILL file {KiCad (6.0.7)} date Wed 10 Aug 2022 23:51:38
; FORMAT={-:-/ absolute / metric / decimal}
; #@! TF.CreationDate,2022-08-10T23:51:38+02:00
; #@! TF.GenerationSoftware,Kicad,Pcbnew,(6.0.7)
; #@! TF.FileFunction,Plated,1,2,PTH
FMAT,2
METRIC
; #@! TA.AperFunction,Plated,PTH,ViaDrill
T1C0.400
; #@! TA.AperFunction,Plated,PTH,ComponentDrill
T2C1.000
%
G90
G05
T1
X92.164Y-73.66
X92.71Y-71.12
X92.71Y-91.44
X95.25Y-68.58
X96.52Y-71.12
X96.52Y-87.63
X104.14Y-71.12
X106.68Y-81.28
X109.22Y-71.12
X110.49Y-81.28
X113.03Y-76.2
X113.03Y-81.28
X119.38Y-83.82
X121.92Y-86.36
X128.27Y-83.82
X129.54Y-72.39
X132.08Y-72.39
X132.08Y-85.09
X133.35Y-69.85
X134.62Y-72.39
X135.89Y-68.58
X135.89Y-88.9
X137.16Y-72.39
X140.963Y-73.656
X142.24Y-76.2
T2
X96.57Y-76.99G85X96.57Y-79.19
G05
X101.07Y-82.89G85X98.87Y-82.89
G05
X102.87Y-76.79G85X102.87Y-79.39
G05
T0
M30
