%TF.GenerationSoftware,KiCad,Pcbnew,(6.0.7)*%
%TF.CreationDate,2022-08-10T23:52:05+02:00*%
%TF.ProjectId,atari-lpt-joysticks,61746172-692d-46c7-9074-2d6a6f797374,rev?*%
%TF.SameCoordinates,Original*%
%TF.FileFunction,Copper,L2,Bot*%
%TF.FilePolarity,Positive*%
%FSLAX46Y46*%
G04 Gerber Fmt 4.6, Leading zero omitted, Abs format (unit mm)*
G04 Created by KiCad (PCBNEW (6.0.7)) date 2022-08-10 23:52:05*
%MOMM*%
%LPD*%
G01*
G04 APERTURE LIST*
%TA.AperFunction,SMDPad,CuDef*%
%ADD10R,1.846667X3.480000*%
%TD*%
%TA.AperFunction,ComponentPad*%
%ADD11R,2.000000X4.600000*%
%TD*%
%TA.AperFunction,ComponentPad*%
%ADD12O,2.000000X4.200000*%
%TD*%
%TA.AperFunction,ComponentPad*%
%ADD13O,4.200000X2.000000*%
%TD*%
%TA.AperFunction,ViaPad*%
%ADD14C,0.800000*%
%TD*%
%TA.AperFunction,Conductor*%
%ADD15C,0.250000*%
%TD*%
G04 APERTURE END LIST*
D10*
%TO.P,J1,14,P14*%
%TO.N,unconnected-(J1-Pad14)*%
X101605000Y-92097500D03*
%TO.P,J1,15,P15*%
%TO.N,unconnected-(J1-Pad15)*%
X104375000Y-92097500D03*
%TO.P,J1,16,P16*%
%TO.N,unconnected-(J1-Pad16)*%
X107145000Y-92097500D03*
%TO.P,J1,17,P17*%
%TO.N,unconnected-(J1-Pad17)*%
X109915000Y-92097500D03*
%TO.P,J1,18,P18*%
%TO.N,GND*%
X112685000Y-92097500D03*
%TO.P,J1,19,P19*%
X115455000Y-92097500D03*
%TO.P,J1,20,P20*%
X118225000Y-92097500D03*
%TO.P,J1,21,P21*%
X120995000Y-92097500D03*
%TO.P,J1,22,P22*%
X123765000Y-92097500D03*
%TO.P,J1,23,P23*%
X126535000Y-92097500D03*
%TO.P,J1,24,P24*%
X129305000Y-92097500D03*
%TO.P,J1,25,P25*%
X132075000Y-92097500D03*
%TD*%
D11*
%TO.P,J2,1*%
%TO.N,Net-(J2-Pad1)*%
X102870000Y-78090000D03*
D12*
%TO.P,J2,2*%
%TO.N,GND*%
X96570000Y-78090000D03*
D13*
%TO.P,J2,3*%
X99970000Y-82890000D03*
%TD*%
D10*
%TO.P,Joystick-4,1,1*%
%TO.N,Net-(J1-Pad2)*%
X93520000Y-65482500D03*
%TO.P,Joystick-4,2,2*%
%TO.N,Net-(J1-Pad3)*%
X96290000Y-65482500D03*
%TO.P,Joystick-4,3,3*%
%TO.N,Net-(J1-Pad4)*%
X99060000Y-65482500D03*
%TO.P,Joystick-4,4,4*%
%TO.N,Net-(J1-Pad5)*%
X101830000Y-65482500D03*
%TO.P,Joystick-4,5,5*%
%TO.N,unconnected-(Joystick-4-Pad5)*%
X104600000Y-65482500D03*
%TD*%
%TO.P,Joystick-3,1,1*%
%TO.N,Net-(J1-Pad6)*%
X129080000Y-65482500D03*
%TO.P,Joystick-3,2,2*%
%TO.N,Net-(J1-Pad7)*%
X131850000Y-65482500D03*
%TO.P,Joystick-3,3,3*%
%TO.N,Net-(J1-Pad8)*%
X134620000Y-65482500D03*
%TO.P,Joystick-3,4,4*%
%TO.N,Net-(J1-Pad9)*%
X137390000Y-65482500D03*
%TO.P,Joystick-3,5,5*%
%TO.N,unconnected-(Joystick-3-Pad5)*%
X140160000Y-65482500D03*
%TD*%
D14*
%TO.N,Net-(J1-Pad2)*%
X92164500Y-73660000D03*
%TO.N,Net-(J1-Pad3)*%
X96520000Y-71120000D03*
%TO.N,Net-(J1-Pad4)*%
X104140000Y-71120000D03*
%TO.N,Net-(J1-Pad5)*%
X109220000Y-71120000D03*
%TO.N,Net-(J1-Pad6)*%
X129540000Y-72390000D03*
%TO.N,Net-(J1-Pad7)*%
X132080000Y-72390000D03*
%TO.N,Net-(J1-Pad8)*%
X134620000Y-72390000D03*
%TO.N,Net-(J1-Pad9)*%
X137160000Y-72390000D03*
%TO.N,Net-(J2-Pad1)*%
X142240000Y-76200000D03*
%TO.N,GND*%
X106680000Y-81280000D03*
X113030000Y-81280000D03*
X92710000Y-91440000D03*
X95250000Y-68580000D03*
X110490000Y-81280000D03*
X133350000Y-69850000D03*
X128270000Y-83820000D03*
X121920000Y-86360000D03*
X140962549Y-73656031D03*
X119380000Y-83820000D03*
X135890000Y-68580000D03*
X113030000Y-76200000D03*
X92710000Y-71120000D03*
X96520000Y-87630000D03*
X135890000Y-88900000D03*
X132080000Y-85090000D03*
%TD*%
D15*
%TO.N,Net-(J1-Pad2)*%
X93520000Y-72304500D02*
X93520000Y-65482500D01*
X92164500Y-73660000D02*
X93520000Y-72304500D01*
%TO.N,Net-(J1-Pad3)*%
X96290000Y-70890000D02*
X96290000Y-65482500D01*
X96520000Y-71120000D02*
X96290000Y-70890000D01*
%TO.N,Net-(J1-Pad4)*%
X104140000Y-71120000D02*
X101600000Y-71120000D01*
X99060000Y-68580000D02*
X99060000Y-65482500D01*
X101600000Y-71120000D02*
X99060000Y-68580000D01*
%TO.N,Net-(J1-Pad5)*%
X101830000Y-67540000D02*
X101830000Y-65482500D01*
X106680000Y-68580000D02*
X109220000Y-71120000D01*
X102870000Y-68580000D02*
X101830000Y-67540000D01*
X106680000Y-68580000D02*
X102870000Y-68580000D01*
%TO.N,Net-(J1-Pad6)*%
X129540000Y-72390000D02*
X129080000Y-71930000D01*
X129080000Y-71930000D02*
X129080000Y-65482500D01*
%TO.N,Net-(J1-Pad7)*%
X131850000Y-72160000D02*
X131850000Y-65482500D01*
X132080000Y-72390000D02*
X131850000Y-72160000D01*
%TO.N,Net-(J1-Pad8)*%
X134620000Y-72390000D02*
X134620000Y-65482500D01*
%TO.N,Net-(J1-Pad9)*%
X137390000Y-72160000D02*
X137390000Y-65482500D01*
X137160000Y-72390000D02*
X137390000Y-72160000D01*
%TO.N,Net-(J2-Pad1)*%
X140350000Y-78090000D02*
X142240000Y-76200000D01*
X102870000Y-78090000D02*
X140350000Y-78090000D01*
%TD*%
%TA.AperFunction,Conductor*%
%TO.N,GND*%
G36*
X92030288Y-64103502D02*
G01*
X92076781Y-64157158D01*
X92088167Y-64209500D01*
X92088167Y-67270634D01*
X92094922Y-67332816D01*
X92146052Y-67469205D01*
X92233406Y-67585761D01*
X92349962Y-67673115D01*
X92486351Y-67724245D01*
X92548533Y-67731000D01*
X92760500Y-67731000D01*
X92828621Y-67751002D01*
X92875114Y-67804658D01*
X92886500Y-67857000D01*
X92886500Y-71989905D01*
X92866498Y-72058026D01*
X92849595Y-72079000D01*
X92214000Y-72714595D01*
X92151688Y-72748621D01*
X92124905Y-72751500D01*
X92069013Y-72751500D01*
X92062561Y-72752872D01*
X92062556Y-72752872D01*
X91994779Y-72767279D01*
X91882212Y-72791206D01*
X91876182Y-72793891D01*
X91876181Y-72793891D01*
X91713778Y-72866197D01*
X91713776Y-72866198D01*
X91707748Y-72868882D01*
X91553247Y-72981134D01*
X91548826Y-72986044D01*
X91548825Y-72986045D01*
X91470757Y-73072749D01*
X91425460Y-73123056D01*
X91329973Y-73288444D01*
X91270958Y-73470072D01*
X91250996Y-73660000D01*
X91270958Y-73849928D01*
X91329973Y-74031556D01*
X91425460Y-74196944D01*
X91553247Y-74338866D01*
X91707748Y-74451118D01*
X91713776Y-74453802D01*
X91713778Y-74453803D01*
X91876181Y-74526109D01*
X91882212Y-74528794D01*
X91975613Y-74548647D01*
X92062556Y-74567128D01*
X92062561Y-74567128D01*
X92069013Y-74568500D01*
X92259987Y-74568500D01*
X92266439Y-74567128D01*
X92266444Y-74567128D01*
X92353387Y-74548647D01*
X92446788Y-74528794D01*
X92452819Y-74526109D01*
X92615222Y-74453803D01*
X92615224Y-74453802D01*
X92621252Y-74451118D01*
X92775753Y-74338866D01*
X92903540Y-74196944D01*
X92999027Y-74031556D01*
X93058042Y-73849928D01*
X93075407Y-73684706D01*
X93102420Y-73619050D01*
X93111622Y-73608782D01*
X93912247Y-72808157D01*
X93920537Y-72800613D01*
X93927018Y-72796500D01*
X93973659Y-72746832D01*
X93976413Y-72743991D01*
X93996134Y-72724270D01*
X93998612Y-72721075D01*
X94006318Y-72712053D01*
X94031158Y-72685601D01*
X94036586Y-72679821D01*
X94046346Y-72662068D01*
X94057199Y-72645545D01*
X94064753Y-72635806D01*
X94069613Y-72629541D01*
X94087176Y-72588957D01*
X94092383Y-72578327D01*
X94113695Y-72539560D01*
X94115666Y-72531883D01*
X94115668Y-72531878D01*
X94118732Y-72519942D01*
X94125138Y-72501230D01*
X94130034Y-72489917D01*
X94133181Y-72482645D01*
X94140097Y-72438981D01*
X94142504Y-72427360D01*
X94151528Y-72392211D01*
X94151528Y-72392210D01*
X94153500Y-72384530D01*
X94153500Y-72364269D01*
X94155051Y-72344558D01*
X94156979Y-72332385D01*
X94158219Y-72324557D01*
X94154059Y-72280546D01*
X94153500Y-72268689D01*
X94153500Y-67857000D01*
X94173502Y-67788879D01*
X94227158Y-67742386D01*
X94279500Y-67731000D01*
X94491467Y-67731000D01*
X94553649Y-67724245D01*
X94690038Y-67673115D01*
X94806594Y-67585761D01*
X94811975Y-67578581D01*
X94815905Y-67574651D01*
X94878217Y-67540625D01*
X94949032Y-67545690D01*
X94994095Y-67574651D01*
X94998025Y-67578581D01*
X95003406Y-67585761D01*
X95119962Y-67673115D01*
X95256351Y-67724245D01*
X95318533Y-67731000D01*
X95530500Y-67731000D01*
X95598621Y-67751002D01*
X95645114Y-67804658D01*
X95656500Y-67857000D01*
X95656500Y-70811233D01*
X95655972Y-70822420D01*
X95654298Y-70829909D01*
X95654463Y-70835153D01*
X95649476Y-70859228D01*
X95628500Y-70923786D01*
X95626458Y-70930072D01*
X95606496Y-71120000D01*
X95626458Y-71309928D01*
X95685473Y-71491556D01*
X95688776Y-71497278D01*
X95688777Y-71497279D01*
X95702591Y-71521206D01*
X95780960Y-71656944D01*
X95785378Y-71661851D01*
X95785379Y-71661852D01*
X95872148Y-71758219D01*
X95908747Y-71798866D01*
X96063248Y-71911118D01*
X96069276Y-71913802D01*
X96069278Y-71913803D01*
X96217421Y-71979760D01*
X96237712Y-71988794D01*
X96331112Y-72008647D01*
X96418056Y-72027128D01*
X96418061Y-72027128D01*
X96424513Y-72028500D01*
X96615487Y-72028500D01*
X96621939Y-72027128D01*
X96621944Y-72027128D01*
X96708888Y-72008647D01*
X96802288Y-71988794D01*
X96822579Y-71979760D01*
X96970722Y-71913803D01*
X96970724Y-71913802D01*
X96976752Y-71911118D01*
X97131253Y-71798866D01*
X97167852Y-71758219D01*
X97254621Y-71661852D01*
X97254622Y-71661851D01*
X97259040Y-71656944D01*
X97337409Y-71521206D01*
X97351223Y-71497279D01*
X97351224Y-71497278D01*
X97354527Y-71491556D01*
X97413542Y-71309928D01*
X97433504Y-71120000D01*
X97413542Y-70930072D01*
X97354527Y-70748444D01*
X97259040Y-70583056D01*
X97131253Y-70441134D01*
X96976752Y-70328882D01*
X96978319Y-70326725D01*
X96937509Y-70283928D01*
X96923500Y-70226188D01*
X96923500Y-67857000D01*
X96943502Y-67788879D01*
X96997158Y-67742386D01*
X97049500Y-67731000D01*
X97261467Y-67731000D01*
X97323649Y-67724245D01*
X97460038Y-67673115D01*
X97576594Y-67585761D01*
X97581975Y-67578581D01*
X97585905Y-67574651D01*
X97648217Y-67540625D01*
X97719032Y-67545690D01*
X97764095Y-67574651D01*
X97768025Y-67578581D01*
X97773406Y-67585761D01*
X97889962Y-67673115D01*
X98026351Y-67724245D01*
X98088533Y-67731000D01*
X98300500Y-67731000D01*
X98368621Y-67751002D01*
X98415114Y-67804658D01*
X98426500Y-67857000D01*
X98426500Y-68501233D01*
X98425973Y-68512416D01*
X98424298Y-68519909D01*
X98424547Y-68527835D01*
X98424547Y-68527836D01*
X98426438Y-68587986D01*
X98426500Y-68591945D01*
X98426500Y-68619856D01*
X98426997Y-68623790D01*
X98426997Y-68623791D01*
X98427005Y-68623856D01*
X98427938Y-68635693D01*
X98429327Y-68679889D01*
X98434978Y-68699339D01*
X98438987Y-68718700D01*
X98441526Y-68738797D01*
X98444445Y-68746168D01*
X98444445Y-68746170D01*
X98457804Y-68779912D01*
X98461649Y-68791142D01*
X98473982Y-68833593D01*
X98478015Y-68840412D01*
X98478017Y-68840417D01*
X98484293Y-68851028D01*
X98492988Y-68868776D01*
X98500448Y-68887617D01*
X98505110Y-68894033D01*
X98505110Y-68894034D01*
X98526436Y-68923387D01*
X98532952Y-68933307D01*
X98555458Y-68971362D01*
X98569779Y-68985683D01*
X98582619Y-69000716D01*
X98594528Y-69017107D01*
X98600634Y-69022158D01*
X98628605Y-69045298D01*
X98637384Y-69053288D01*
X101096343Y-71512247D01*
X101103887Y-71520537D01*
X101108000Y-71527018D01*
X101113777Y-71532443D01*
X101157667Y-71573658D01*
X101160509Y-71576413D01*
X101180230Y-71596134D01*
X101183425Y-71598612D01*
X101192447Y-71606318D01*
X101224679Y-71636586D01*
X101231628Y-71640406D01*
X101242432Y-71646346D01*
X101258956Y-71657199D01*
X101274959Y-71669613D01*
X101315543Y-71687176D01*
X101326173Y-71692383D01*
X101364940Y-71713695D01*
X101372617Y-71715666D01*
X101372622Y-71715668D01*
X101384558Y-71718732D01*
X101403266Y-71725137D01*
X101421855Y-71733181D01*
X101429680Y-71734420D01*
X101429682Y-71734421D01*
X101465519Y-71740097D01*
X101477140Y-71742504D01*
X101512289Y-71751528D01*
X101519970Y-71753500D01*
X101540231Y-71753500D01*
X101559940Y-71755051D01*
X101579943Y-71758219D01*
X101587835Y-71757473D01*
X101593062Y-71756979D01*
X101623954Y-71754059D01*
X101635811Y-71753500D01*
X103431800Y-71753500D01*
X103499921Y-71773502D01*
X103519147Y-71789843D01*
X103519420Y-71789540D01*
X103524332Y-71793963D01*
X103528747Y-71798866D01*
X103550329Y-71814546D01*
X103617148Y-71863093D01*
X103683248Y-71911118D01*
X103689276Y-71913802D01*
X103689278Y-71913803D01*
X103837421Y-71979760D01*
X103857712Y-71988794D01*
X103951112Y-72008647D01*
X104038056Y-72027128D01*
X104038061Y-72027128D01*
X104044513Y-72028500D01*
X104235487Y-72028500D01*
X104241939Y-72027128D01*
X104241944Y-72027128D01*
X104328888Y-72008647D01*
X104422288Y-71988794D01*
X104442579Y-71979760D01*
X104590722Y-71913803D01*
X104590724Y-71913802D01*
X104596752Y-71911118D01*
X104751253Y-71798866D01*
X104787852Y-71758219D01*
X104874621Y-71661852D01*
X104874622Y-71661851D01*
X104879040Y-71656944D01*
X104957409Y-71521206D01*
X104971223Y-71497279D01*
X104971224Y-71497278D01*
X104974527Y-71491556D01*
X105033542Y-71309928D01*
X105053504Y-71120000D01*
X105033542Y-70930072D01*
X104974527Y-70748444D01*
X104879040Y-70583056D01*
X104751253Y-70441134D01*
X104596752Y-70328882D01*
X104590724Y-70326198D01*
X104590722Y-70326197D01*
X104428319Y-70253891D01*
X104428318Y-70253891D01*
X104422288Y-70251206D01*
X104328888Y-70231353D01*
X104241944Y-70212872D01*
X104241939Y-70212872D01*
X104235487Y-70211500D01*
X104044513Y-70211500D01*
X104038061Y-70212872D01*
X104038056Y-70212872D01*
X103951112Y-70231353D01*
X103857712Y-70251206D01*
X103851682Y-70253891D01*
X103851681Y-70253891D01*
X103689278Y-70326197D01*
X103689276Y-70326198D01*
X103683248Y-70328882D01*
X103528747Y-70441134D01*
X103524332Y-70446037D01*
X103519420Y-70450460D01*
X103518295Y-70449211D01*
X103464986Y-70482051D01*
X103431800Y-70486500D01*
X101914595Y-70486500D01*
X101846474Y-70466498D01*
X101825500Y-70449595D01*
X99730405Y-68354500D01*
X99696379Y-68292188D01*
X99693500Y-68265405D01*
X99693500Y-67857000D01*
X99713502Y-67788879D01*
X99767158Y-67742386D01*
X99819500Y-67731000D01*
X100031467Y-67731000D01*
X100093649Y-67724245D01*
X100230038Y-67673115D01*
X100346594Y-67585761D01*
X100351975Y-67578581D01*
X100355905Y-67574651D01*
X100418217Y-67540625D01*
X100489032Y-67545690D01*
X100534095Y-67574651D01*
X100538025Y-67578581D01*
X100543406Y-67585761D01*
X100659962Y-67673115D01*
X100796351Y-67724245D01*
X100858533Y-67731000D01*
X101135212Y-67731000D01*
X101203333Y-67751002D01*
X101240991Y-67795361D01*
X101243981Y-67793592D01*
X101254293Y-67811028D01*
X101262988Y-67828776D01*
X101270448Y-67847617D01*
X101275110Y-67854033D01*
X101275110Y-67854034D01*
X101296436Y-67883387D01*
X101302952Y-67893307D01*
X101325458Y-67931362D01*
X101339779Y-67945683D01*
X101352619Y-67960716D01*
X101364528Y-67977107D01*
X101370632Y-67982157D01*
X101370637Y-67982162D01*
X101398598Y-68005293D01*
X101407379Y-68013283D01*
X102366353Y-68972258D01*
X102373887Y-68980537D01*
X102378000Y-68987018D01*
X102403213Y-69010694D01*
X102427651Y-69033643D01*
X102430493Y-69036398D01*
X102450230Y-69056135D01*
X102453427Y-69058615D01*
X102462447Y-69066318D01*
X102494679Y-69096586D01*
X102501625Y-69100405D01*
X102501628Y-69100407D01*
X102512434Y-69106348D01*
X102528953Y-69117199D01*
X102544959Y-69129614D01*
X102552228Y-69132759D01*
X102552232Y-69132762D01*
X102585537Y-69147174D01*
X102596187Y-69152391D01*
X102634940Y-69173695D01*
X102642615Y-69175666D01*
X102642616Y-69175666D01*
X102654562Y-69178733D01*
X102673267Y-69185137D01*
X102691855Y-69193181D01*
X102699678Y-69194420D01*
X102699688Y-69194423D01*
X102735524Y-69200099D01*
X102747144Y-69202505D01*
X102782289Y-69211528D01*
X102789970Y-69213500D01*
X102810224Y-69213500D01*
X102829934Y-69215051D01*
X102849943Y-69218220D01*
X102857835Y-69217474D01*
X102893961Y-69214059D01*
X102905819Y-69213500D01*
X106365406Y-69213500D01*
X106433527Y-69233502D01*
X106454501Y-69250405D01*
X108272878Y-71068782D01*
X108306904Y-71131094D01*
X108309092Y-71144703D01*
X108326458Y-71309928D01*
X108385473Y-71491556D01*
X108388776Y-71497278D01*
X108388777Y-71497279D01*
X108402591Y-71521206D01*
X108480960Y-71656944D01*
X108485378Y-71661851D01*
X108485379Y-71661852D01*
X108572148Y-71758219D01*
X108608747Y-71798866D01*
X108763248Y-71911118D01*
X108769276Y-71913802D01*
X108769278Y-71913803D01*
X108917421Y-71979760D01*
X108937712Y-71988794D01*
X109031112Y-72008647D01*
X109118056Y-72027128D01*
X109118061Y-72027128D01*
X109124513Y-72028500D01*
X109315487Y-72028500D01*
X109321939Y-72027128D01*
X109321944Y-72027128D01*
X109408888Y-72008647D01*
X109502288Y-71988794D01*
X109522579Y-71979760D01*
X109670722Y-71913803D01*
X109670724Y-71913802D01*
X109676752Y-71911118D01*
X109831253Y-71798866D01*
X109867852Y-71758219D01*
X109954621Y-71661852D01*
X109954622Y-71661851D01*
X109959040Y-71656944D01*
X110037409Y-71521206D01*
X110051223Y-71497279D01*
X110051224Y-71497278D01*
X110054527Y-71491556D01*
X110113542Y-71309928D01*
X110133504Y-71120000D01*
X110113542Y-70930072D01*
X110054527Y-70748444D01*
X109959040Y-70583056D01*
X109831253Y-70441134D01*
X109676752Y-70328882D01*
X109670724Y-70326198D01*
X109670722Y-70326197D01*
X109508319Y-70253891D01*
X109508318Y-70253891D01*
X109502288Y-70251206D01*
X109408888Y-70231353D01*
X109321944Y-70212872D01*
X109321939Y-70212872D01*
X109315487Y-70211500D01*
X109259595Y-70211500D01*
X109191474Y-70191498D01*
X109170500Y-70174595D01*
X107183652Y-68187747D01*
X107176112Y-68179461D01*
X107172000Y-68172982D01*
X107122348Y-68126356D01*
X107119507Y-68123602D01*
X107099770Y-68103865D01*
X107096573Y-68101385D01*
X107087551Y-68093680D01*
X107061100Y-68068841D01*
X107055321Y-68063414D01*
X107048375Y-68059595D01*
X107048372Y-68059593D01*
X107037566Y-68053652D01*
X107021047Y-68042801D01*
X107020583Y-68042441D01*
X107005041Y-68030386D01*
X106997772Y-68027241D01*
X106997768Y-68027238D01*
X106964463Y-68012826D01*
X106953813Y-68007609D01*
X106915060Y-67986305D01*
X106895437Y-67981267D01*
X106876734Y-67974863D01*
X106865420Y-67969967D01*
X106865419Y-67969967D01*
X106858145Y-67966819D01*
X106850322Y-67965580D01*
X106850312Y-67965577D01*
X106814476Y-67959901D01*
X106802856Y-67957495D01*
X106767711Y-67948472D01*
X106767710Y-67948472D01*
X106760030Y-67946500D01*
X106739776Y-67946500D01*
X106720065Y-67944949D01*
X106707886Y-67943020D01*
X106700057Y-67941780D01*
X106692165Y-67942526D01*
X106656039Y-67945941D01*
X106644181Y-67946500D01*
X105735836Y-67946500D01*
X105667715Y-67926498D01*
X105621222Y-67872842D01*
X105611118Y-67802568D01*
X105640612Y-67737988D01*
X105691606Y-67702518D01*
X105761630Y-67676267D01*
X105770038Y-67673115D01*
X105886594Y-67585761D01*
X105973948Y-67469205D01*
X106025078Y-67332816D01*
X106031833Y-67270634D01*
X106031833Y-64209500D01*
X106051835Y-64141379D01*
X106105491Y-64094886D01*
X106157833Y-64083500D01*
X127522167Y-64083500D01*
X127590288Y-64103502D01*
X127636781Y-64157158D01*
X127648167Y-64209500D01*
X127648167Y-67270634D01*
X127654922Y-67332816D01*
X127706052Y-67469205D01*
X127793406Y-67585761D01*
X127909962Y-67673115D01*
X128046351Y-67724245D01*
X128108533Y-67731000D01*
X128320500Y-67731000D01*
X128388621Y-67751002D01*
X128435114Y-67804658D01*
X128446500Y-67857000D01*
X128446500Y-71851233D01*
X128445973Y-71862416D01*
X128444298Y-71869909D01*
X128444547Y-71877835D01*
X128444547Y-71877836D01*
X128446438Y-71937986D01*
X128446500Y-71941945D01*
X128446500Y-71969856D01*
X128446997Y-71973790D01*
X128446997Y-71973791D01*
X128447005Y-71973856D01*
X128447938Y-71985693D01*
X128449327Y-72029889D01*
X128454978Y-72049339D01*
X128458987Y-72068700D01*
X128461526Y-72088797D01*
X128464445Y-72096168D01*
X128464445Y-72096170D01*
X128477804Y-72129912D01*
X128481649Y-72141142D01*
X128493982Y-72183593D01*
X128498015Y-72190412D01*
X128498017Y-72190417D01*
X128504293Y-72201028D01*
X128512988Y-72218776D01*
X128520448Y-72237617D01*
X128525110Y-72244033D01*
X128525110Y-72244034D01*
X128546436Y-72273387D01*
X128552952Y-72283307D01*
X128575458Y-72321362D01*
X128589779Y-72335683D01*
X128602618Y-72350715D01*
X128605860Y-72355177D01*
X128629236Y-72416070D01*
X128638187Y-72501230D01*
X128646458Y-72579928D01*
X128705473Y-72761556D01*
X128708776Y-72767278D01*
X128708777Y-72767279D01*
X128722591Y-72791206D01*
X128800960Y-72926944D01*
X128805378Y-72931851D01*
X128805379Y-72931852D01*
X128849753Y-72981134D01*
X128928747Y-73068866D01*
X129083248Y-73181118D01*
X129089276Y-73183802D01*
X129089278Y-73183803D01*
X129251681Y-73256109D01*
X129257712Y-73258794D01*
X129351113Y-73278647D01*
X129438056Y-73297128D01*
X129438061Y-73297128D01*
X129444513Y-73298500D01*
X129635487Y-73298500D01*
X129641939Y-73297128D01*
X129641944Y-73297128D01*
X129728887Y-73278647D01*
X129822288Y-73258794D01*
X129828319Y-73256109D01*
X129990722Y-73183803D01*
X129990724Y-73183802D01*
X129996752Y-73181118D01*
X130151253Y-73068866D01*
X130230247Y-72981134D01*
X130274621Y-72931852D01*
X130274622Y-72931851D01*
X130279040Y-72926944D01*
X130357409Y-72791206D01*
X130371223Y-72767279D01*
X130371224Y-72767278D01*
X130374527Y-72761556D01*
X130433542Y-72579928D01*
X130441814Y-72501230D01*
X130452814Y-72396565D01*
X130453504Y-72390000D01*
X130447795Y-72335683D01*
X130434232Y-72206635D01*
X130434232Y-72206633D01*
X130433542Y-72200072D01*
X130374527Y-72018444D01*
X130279040Y-71853056D01*
X130233744Y-71802749D01*
X130155675Y-71716045D01*
X130155674Y-71716044D01*
X130151253Y-71711134D01*
X129996752Y-71598882D01*
X129990724Y-71596198D01*
X129990722Y-71596197D01*
X129828319Y-71523891D01*
X129828318Y-71523891D01*
X129822288Y-71521206D01*
X129815827Y-71519833D01*
X129815825Y-71519832D01*
X129813301Y-71519295D01*
X129811982Y-71518583D01*
X129809548Y-71517792D01*
X129809693Y-71517347D01*
X129750828Y-71485566D01*
X129716508Y-71423416D01*
X129713500Y-71396049D01*
X129713500Y-67857000D01*
X129733502Y-67788879D01*
X129787158Y-67742386D01*
X129839500Y-67731000D01*
X130051467Y-67731000D01*
X130113649Y-67724245D01*
X130250038Y-67673115D01*
X130366594Y-67585761D01*
X130371975Y-67578581D01*
X130375905Y-67574651D01*
X130438217Y-67540625D01*
X130509032Y-67545690D01*
X130554095Y-67574651D01*
X130558025Y-67578581D01*
X130563406Y-67585761D01*
X130679962Y-67673115D01*
X130816351Y-67724245D01*
X130878533Y-67731000D01*
X131090500Y-67731000D01*
X131158621Y-67751002D01*
X131205114Y-67804658D01*
X131216500Y-67857000D01*
X131216500Y-72081233D01*
X131215972Y-72092420D01*
X131214298Y-72099909D01*
X131214463Y-72105153D01*
X131209476Y-72129228D01*
X131191812Y-72183593D01*
X131186458Y-72200072D01*
X131185768Y-72206635D01*
X131185767Y-72206642D01*
X131172205Y-72335683D01*
X131166496Y-72390000D01*
X131167186Y-72396565D01*
X131178187Y-72501230D01*
X131186458Y-72579928D01*
X131245473Y-72761556D01*
X131248776Y-72767278D01*
X131248777Y-72767279D01*
X131262591Y-72791206D01*
X131340960Y-72926944D01*
X131345378Y-72931851D01*
X131345379Y-72931852D01*
X131389753Y-72981134D01*
X131468747Y-73068866D01*
X131623248Y-73181118D01*
X131629276Y-73183802D01*
X131629278Y-73183803D01*
X131791681Y-73256109D01*
X131797712Y-73258794D01*
X131891113Y-73278647D01*
X131978056Y-73297128D01*
X131978061Y-73297128D01*
X131984513Y-73298500D01*
X132175487Y-73298500D01*
X132181939Y-73297128D01*
X132181944Y-73297128D01*
X132268887Y-73278647D01*
X132362288Y-73258794D01*
X132368319Y-73256109D01*
X132530722Y-73183803D01*
X132530724Y-73183802D01*
X132536752Y-73181118D01*
X132691253Y-73068866D01*
X132770247Y-72981134D01*
X132814621Y-72931852D01*
X132814622Y-72931851D01*
X132819040Y-72926944D01*
X132897409Y-72791206D01*
X132911223Y-72767279D01*
X132911224Y-72767278D01*
X132914527Y-72761556D01*
X132973542Y-72579928D01*
X132981814Y-72501230D01*
X132992814Y-72396565D01*
X132993504Y-72390000D01*
X132987795Y-72335683D01*
X132974232Y-72206635D01*
X132974232Y-72206633D01*
X132973542Y-72200072D01*
X132914527Y-72018444D01*
X132819040Y-71853056D01*
X132773744Y-71802749D01*
X132695675Y-71716045D01*
X132695674Y-71716044D01*
X132691253Y-71711134D01*
X132536752Y-71598882D01*
X132538319Y-71596725D01*
X132497509Y-71553928D01*
X132483500Y-71496188D01*
X132483500Y-67857000D01*
X132503502Y-67788879D01*
X132557158Y-67742386D01*
X132609500Y-67731000D01*
X132821467Y-67731000D01*
X132883649Y-67724245D01*
X133020038Y-67673115D01*
X133136594Y-67585761D01*
X133141975Y-67578581D01*
X133145905Y-67574651D01*
X133208217Y-67540625D01*
X133279032Y-67545690D01*
X133324095Y-67574651D01*
X133328025Y-67578581D01*
X133333406Y-67585761D01*
X133449962Y-67673115D01*
X133586351Y-67724245D01*
X133648533Y-67731000D01*
X133860500Y-67731000D01*
X133928621Y-67751002D01*
X133975114Y-67804658D01*
X133986500Y-67857000D01*
X133986500Y-71687476D01*
X133966498Y-71755597D01*
X133954142Y-71771779D01*
X133880960Y-71853056D01*
X133785473Y-72018444D01*
X133726458Y-72200072D01*
X133725768Y-72206633D01*
X133725768Y-72206635D01*
X133712205Y-72335683D01*
X133706496Y-72390000D01*
X133707186Y-72396565D01*
X133718187Y-72501230D01*
X133726458Y-72579928D01*
X133785473Y-72761556D01*
X133788776Y-72767278D01*
X133788777Y-72767279D01*
X133802591Y-72791206D01*
X133880960Y-72926944D01*
X133885378Y-72931851D01*
X133885379Y-72931852D01*
X133929753Y-72981134D01*
X134008747Y-73068866D01*
X134163248Y-73181118D01*
X134169276Y-73183802D01*
X134169278Y-73183803D01*
X134331681Y-73256109D01*
X134337712Y-73258794D01*
X134431113Y-73278647D01*
X134518056Y-73297128D01*
X134518061Y-73297128D01*
X134524513Y-73298500D01*
X134715487Y-73298500D01*
X134721939Y-73297128D01*
X134721944Y-73297128D01*
X134808887Y-73278647D01*
X134902288Y-73258794D01*
X134908319Y-73256109D01*
X135070722Y-73183803D01*
X135070724Y-73183802D01*
X135076752Y-73181118D01*
X135231253Y-73068866D01*
X135310247Y-72981134D01*
X135354621Y-72931852D01*
X135354622Y-72931851D01*
X135359040Y-72926944D01*
X135437409Y-72791206D01*
X135451223Y-72767279D01*
X135451224Y-72767278D01*
X135454527Y-72761556D01*
X135513542Y-72579928D01*
X135521814Y-72501230D01*
X135532814Y-72396565D01*
X135533504Y-72390000D01*
X135527795Y-72335683D01*
X135514232Y-72206635D01*
X135514232Y-72206633D01*
X135513542Y-72200072D01*
X135454527Y-72018444D01*
X135359040Y-71853056D01*
X135285863Y-71771785D01*
X135255147Y-71707779D01*
X135253500Y-71687476D01*
X135253500Y-67857000D01*
X135273502Y-67788879D01*
X135327158Y-67742386D01*
X135379500Y-67731000D01*
X135591467Y-67731000D01*
X135653649Y-67724245D01*
X135790038Y-67673115D01*
X135906594Y-67585761D01*
X135911975Y-67578581D01*
X135915905Y-67574651D01*
X135978217Y-67540625D01*
X136049032Y-67545690D01*
X136094095Y-67574651D01*
X136098025Y-67578581D01*
X136103406Y-67585761D01*
X136219962Y-67673115D01*
X136356351Y-67724245D01*
X136418533Y-67731000D01*
X136630500Y-67731000D01*
X136698621Y-67751002D01*
X136745114Y-67804658D01*
X136756500Y-67857000D01*
X136756500Y-71496188D01*
X136736498Y-71564309D01*
X136702016Y-71597186D01*
X136703248Y-71598882D01*
X136548747Y-71711134D01*
X136544326Y-71716044D01*
X136544325Y-71716045D01*
X136466257Y-71802749D01*
X136420960Y-71853056D01*
X136325473Y-72018444D01*
X136266458Y-72200072D01*
X136265768Y-72206633D01*
X136265768Y-72206635D01*
X136252205Y-72335683D01*
X136246496Y-72390000D01*
X136247186Y-72396565D01*
X136258187Y-72501230D01*
X136266458Y-72579928D01*
X136325473Y-72761556D01*
X136328776Y-72767278D01*
X136328777Y-72767279D01*
X136342591Y-72791206D01*
X136420960Y-72926944D01*
X136425378Y-72931851D01*
X136425379Y-72931852D01*
X136469753Y-72981134D01*
X136548747Y-73068866D01*
X136703248Y-73181118D01*
X136709276Y-73183802D01*
X136709278Y-73183803D01*
X136871681Y-73256109D01*
X136877712Y-73258794D01*
X136971113Y-73278647D01*
X137058056Y-73297128D01*
X137058061Y-73297128D01*
X137064513Y-73298500D01*
X137255487Y-73298500D01*
X137261939Y-73297128D01*
X137261944Y-73297128D01*
X137348887Y-73278647D01*
X137442288Y-73258794D01*
X137448319Y-73256109D01*
X137610722Y-73183803D01*
X137610724Y-73183802D01*
X137616752Y-73181118D01*
X137771253Y-73068866D01*
X137850247Y-72981134D01*
X137894621Y-72931852D01*
X137894622Y-72931851D01*
X137899040Y-72926944D01*
X137977409Y-72791206D01*
X137991223Y-72767279D01*
X137991224Y-72767278D01*
X137994527Y-72761556D01*
X138053542Y-72579928D01*
X138061814Y-72501230D01*
X138072814Y-72396565D01*
X138073504Y-72390000D01*
X138067795Y-72335683D01*
X138054232Y-72206635D01*
X138054232Y-72206633D01*
X138053542Y-72200072D01*
X138029667Y-72126593D01*
X138023500Y-72087657D01*
X138023500Y-67857000D01*
X138043502Y-67788879D01*
X138097158Y-67742386D01*
X138149500Y-67731000D01*
X138361467Y-67731000D01*
X138423649Y-67724245D01*
X138560038Y-67673115D01*
X138676594Y-67585761D01*
X138681975Y-67578581D01*
X138685905Y-67574651D01*
X138748217Y-67540625D01*
X138819032Y-67545690D01*
X138864095Y-67574651D01*
X138868025Y-67578581D01*
X138873406Y-67585761D01*
X138989962Y-67673115D01*
X139126351Y-67724245D01*
X139188533Y-67731000D01*
X141131467Y-67731000D01*
X141193649Y-67724245D01*
X141330038Y-67673115D01*
X141446594Y-67585761D01*
X141533948Y-67469205D01*
X141585078Y-67332816D01*
X141591833Y-67270634D01*
X141591833Y-64209500D01*
X141611835Y-64141379D01*
X141665491Y-64094886D01*
X141717833Y-64083500D01*
X144070500Y-64083500D01*
X144138621Y-64103502D01*
X144185114Y-64157158D01*
X144196500Y-64209500D01*
X144196500Y-93270500D01*
X144176498Y-93338621D01*
X144122842Y-93385114D01*
X144070500Y-93396500D01*
X133632333Y-93396500D01*
X133564212Y-93376498D01*
X133517719Y-93322842D01*
X133506333Y-93270500D01*
X133506333Y-92369615D01*
X133501858Y-92354376D01*
X133500468Y-92353171D01*
X133492785Y-92351500D01*
X112557000Y-92351500D01*
X112488879Y-92331498D01*
X112442386Y-92277842D01*
X112431000Y-92225500D01*
X112431000Y-91825385D01*
X112939000Y-91825385D01*
X112943475Y-91840624D01*
X112944865Y-91841829D01*
X112952548Y-91843500D01*
X115182885Y-91843500D01*
X115198124Y-91839025D01*
X115199329Y-91837635D01*
X115201000Y-91829952D01*
X115201000Y-91825385D01*
X115709000Y-91825385D01*
X115713475Y-91840624D01*
X115714865Y-91841829D01*
X115722548Y-91843500D01*
X117952885Y-91843500D01*
X117968124Y-91839025D01*
X117969329Y-91837635D01*
X117971000Y-91829952D01*
X117971000Y-91825385D01*
X118479000Y-91825385D01*
X118483475Y-91840624D01*
X118484865Y-91841829D01*
X118492548Y-91843500D01*
X120722885Y-91843500D01*
X120738124Y-91839025D01*
X120739329Y-91837635D01*
X120741000Y-91829952D01*
X120741000Y-91825385D01*
X121249000Y-91825385D01*
X121253475Y-91840624D01*
X121254865Y-91841829D01*
X121262548Y-91843500D01*
X123492885Y-91843500D01*
X123508124Y-91839025D01*
X123509329Y-91837635D01*
X123511000Y-91829952D01*
X123511000Y-91825385D01*
X124019000Y-91825385D01*
X124023475Y-91840624D01*
X124024865Y-91841829D01*
X124032548Y-91843500D01*
X126262885Y-91843500D01*
X126278124Y-91839025D01*
X126279329Y-91837635D01*
X126281000Y-91829952D01*
X126281000Y-91825385D01*
X126789000Y-91825385D01*
X126793475Y-91840624D01*
X126794865Y-91841829D01*
X126802548Y-91843500D01*
X129032885Y-91843500D01*
X129048124Y-91839025D01*
X129049329Y-91837635D01*
X129051000Y-91829952D01*
X129051000Y-91825385D01*
X129559000Y-91825385D01*
X129563475Y-91840624D01*
X129564865Y-91841829D01*
X129572548Y-91843500D01*
X131802885Y-91843500D01*
X131818124Y-91839025D01*
X131819329Y-91837635D01*
X131821000Y-91829952D01*
X131821000Y-91825385D01*
X132329000Y-91825385D01*
X132333475Y-91840624D01*
X132334865Y-91841829D01*
X132342548Y-91843500D01*
X133488217Y-91843500D01*
X133503456Y-91839025D01*
X133504661Y-91837635D01*
X133506332Y-91829952D01*
X133506332Y-90312831D01*
X133505962Y-90306010D01*
X133500438Y-90255148D01*
X133496812Y-90239896D01*
X133451657Y-90119446D01*
X133443119Y-90103851D01*
X133366618Y-90001776D01*
X133354057Y-89989215D01*
X133251982Y-89912714D01*
X133236387Y-89904176D01*
X133115939Y-89859022D01*
X133100684Y-89855395D01*
X133049819Y-89849869D01*
X133043005Y-89849500D01*
X132347115Y-89849500D01*
X132331876Y-89853975D01*
X132330671Y-89855365D01*
X132329000Y-89863048D01*
X132329000Y-91825385D01*
X131821000Y-91825385D01*
X131821000Y-89867616D01*
X131816525Y-89852377D01*
X131815135Y-89851172D01*
X131807452Y-89849501D01*
X131106998Y-89849501D01*
X131100177Y-89849871D01*
X131049315Y-89855395D01*
X131034063Y-89859021D01*
X130913613Y-89904176D01*
X130898018Y-89912714D01*
X130795943Y-89989215D01*
X130779095Y-90006063D01*
X130716783Y-90040089D01*
X130645968Y-90035024D01*
X130600905Y-90006063D01*
X130584057Y-89989215D01*
X130481982Y-89912714D01*
X130466387Y-89904176D01*
X130345939Y-89859022D01*
X130330684Y-89855395D01*
X130279819Y-89849869D01*
X130273005Y-89849500D01*
X129577115Y-89849500D01*
X129561876Y-89853975D01*
X129560671Y-89855365D01*
X129559000Y-89863048D01*
X129559000Y-91825385D01*
X129051000Y-91825385D01*
X129051000Y-89867616D01*
X129046525Y-89852377D01*
X129045135Y-89851172D01*
X129037452Y-89849501D01*
X128336998Y-89849501D01*
X128330177Y-89849871D01*
X128279315Y-89855395D01*
X128264063Y-89859021D01*
X128143613Y-89904176D01*
X128128018Y-89912714D01*
X128025943Y-89989215D01*
X128009095Y-90006063D01*
X127946783Y-90040089D01*
X127875968Y-90035024D01*
X127830905Y-90006063D01*
X127814057Y-89989215D01*
X127711982Y-89912714D01*
X127696387Y-89904176D01*
X127575939Y-89859022D01*
X127560684Y-89855395D01*
X127509819Y-89849869D01*
X127503005Y-89849500D01*
X126807115Y-89849500D01*
X126791876Y-89853975D01*
X126790671Y-89855365D01*
X126789000Y-89863048D01*
X126789000Y-91825385D01*
X126281000Y-91825385D01*
X126281000Y-89867616D01*
X126276525Y-89852377D01*
X126275135Y-89851172D01*
X126267452Y-89849501D01*
X125566998Y-89849501D01*
X125560177Y-89849871D01*
X125509315Y-89855395D01*
X125494063Y-89859021D01*
X125373613Y-89904176D01*
X125358018Y-89912714D01*
X125255943Y-89989215D01*
X125239095Y-90006063D01*
X125176783Y-90040089D01*
X125105968Y-90035024D01*
X125060905Y-90006063D01*
X125044057Y-89989215D01*
X124941982Y-89912714D01*
X124926387Y-89904176D01*
X124805939Y-89859022D01*
X124790684Y-89855395D01*
X124739819Y-89849869D01*
X124733005Y-89849500D01*
X124037115Y-89849500D01*
X124021876Y-89853975D01*
X124020671Y-89855365D01*
X124019000Y-89863048D01*
X124019000Y-91825385D01*
X123511000Y-91825385D01*
X123511000Y-89867616D01*
X123506525Y-89852377D01*
X123505135Y-89851172D01*
X123497452Y-89849501D01*
X122796998Y-89849501D01*
X122790177Y-89849871D01*
X122739315Y-89855395D01*
X122724063Y-89859021D01*
X122603613Y-89904176D01*
X122588018Y-89912714D01*
X122485943Y-89989215D01*
X122469095Y-90006063D01*
X122406783Y-90040089D01*
X122335968Y-90035024D01*
X122290905Y-90006063D01*
X122274057Y-89989215D01*
X122171982Y-89912714D01*
X122156387Y-89904176D01*
X122035939Y-89859022D01*
X122020684Y-89855395D01*
X121969819Y-89849869D01*
X121963005Y-89849500D01*
X121267115Y-89849500D01*
X121251876Y-89853975D01*
X121250671Y-89855365D01*
X121249000Y-89863048D01*
X121249000Y-91825385D01*
X120741000Y-91825385D01*
X120741000Y-89867616D01*
X120736525Y-89852377D01*
X120735135Y-89851172D01*
X120727452Y-89849501D01*
X120026998Y-89849501D01*
X120020177Y-89849871D01*
X119969315Y-89855395D01*
X119954063Y-89859021D01*
X119833613Y-89904176D01*
X119818018Y-89912714D01*
X119715943Y-89989215D01*
X119699095Y-90006063D01*
X119636783Y-90040089D01*
X119565968Y-90035024D01*
X119520905Y-90006063D01*
X119504057Y-89989215D01*
X119401982Y-89912714D01*
X119386387Y-89904176D01*
X119265939Y-89859022D01*
X119250684Y-89855395D01*
X119199819Y-89849869D01*
X119193005Y-89849500D01*
X118497115Y-89849500D01*
X118481876Y-89853975D01*
X118480671Y-89855365D01*
X118479000Y-89863048D01*
X118479000Y-91825385D01*
X117971000Y-91825385D01*
X117971000Y-89867616D01*
X117966525Y-89852377D01*
X117965135Y-89851172D01*
X117957452Y-89849501D01*
X117256998Y-89849501D01*
X117250177Y-89849871D01*
X117199315Y-89855395D01*
X117184063Y-89859021D01*
X117063613Y-89904176D01*
X117048018Y-89912714D01*
X116945943Y-89989215D01*
X116929095Y-90006063D01*
X116866783Y-90040089D01*
X116795968Y-90035024D01*
X116750905Y-90006063D01*
X116734057Y-89989215D01*
X116631982Y-89912714D01*
X116616387Y-89904176D01*
X116495939Y-89859022D01*
X116480684Y-89855395D01*
X116429819Y-89849869D01*
X116423005Y-89849500D01*
X115727115Y-89849500D01*
X115711876Y-89853975D01*
X115710671Y-89855365D01*
X115709000Y-89863048D01*
X115709000Y-91825385D01*
X115201000Y-91825385D01*
X115201000Y-89867616D01*
X115196525Y-89852377D01*
X115195135Y-89851172D01*
X115187452Y-89849501D01*
X114486998Y-89849501D01*
X114480177Y-89849871D01*
X114429315Y-89855395D01*
X114414063Y-89859021D01*
X114293613Y-89904176D01*
X114278018Y-89912714D01*
X114175943Y-89989215D01*
X114159095Y-90006063D01*
X114096783Y-90040089D01*
X114025968Y-90035024D01*
X113980905Y-90006063D01*
X113964057Y-89989215D01*
X113861982Y-89912714D01*
X113846387Y-89904176D01*
X113725939Y-89859022D01*
X113710684Y-89855395D01*
X113659819Y-89849869D01*
X113653005Y-89849500D01*
X112957115Y-89849500D01*
X112941876Y-89853975D01*
X112940671Y-89855365D01*
X112939000Y-89863048D01*
X112939000Y-91825385D01*
X112431000Y-91825385D01*
X112431000Y-89867616D01*
X112426525Y-89852377D01*
X112425135Y-89851172D01*
X112417452Y-89849501D01*
X111716998Y-89849501D01*
X111710177Y-89849871D01*
X111659315Y-89855395D01*
X111644063Y-89859021D01*
X111523613Y-89904176D01*
X111508018Y-89912714D01*
X111405943Y-89989215D01*
X111389452Y-90005706D01*
X111327140Y-90039732D01*
X111256325Y-90034667D01*
X111211262Y-90005706D01*
X111206975Y-90001419D01*
X111201594Y-89994239D01*
X111085038Y-89906885D01*
X110948649Y-89855755D01*
X110886467Y-89849000D01*
X108943533Y-89849000D01*
X108881351Y-89855755D01*
X108744962Y-89906885D01*
X108628406Y-89994239D01*
X108623025Y-90001419D01*
X108619095Y-90005349D01*
X108556783Y-90039375D01*
X108485968Y-90034310D01*
X108440905Y-90005349D01*
X108436975Y-90001419D01*
X108431594Y-89994239D01*
X108315038Y-89906885D01*
X108178649Y-89855755D01*
X108116467Y-89849000D01*
X106173533Y-89849000D01*
X106111351Y-89855755D01*
X105974962Y-89906885D01*
X105858406Y-89994239D01*
X105853025Y-90001419D01*
X105849095Y-90005349D01*
X105786783Y-90039375D01*
X105715968Y-90034310D01*
X105670905Y-90005349D01*
X105666975Y-90001419D01*
X105661594Y-89994239D01*
X105545038Y-89906885D01*
X105408649Y-89855755D01*
X105346467Y-89849000D01*
X103403533Y-89849000D01*
X103341351Y-89855755D01*
X103204962Y-89906885D01*
X103088406Y-89994239D01*
X103083025Y-90001419D01*
X103079095Y-90005349D01*
X103016783Y-90039375D01*
X102945968Y-90034310D01*
X102900905Y-90005349D01*
X102896975Y-90001419D01*
X102891594Y-89994239D01*
X102775038Y-89906885D01*
X102638649Y-89855755D01*
X102576467Y-89849000D01*
X100633533Y-89849000D01*
X100571351Y-89855755D01*
X100434962Y-89906885D01*
X100318406Y-89994239D01*
X100231052Y-90110795D01*
X100179922Y-90247184D01*
X100173167Y-90309366D01*
X100173167Y-93270500D01*
X100153165Y-93338621D01*
X100099509Y-93385114D01*
X100047167Y-93396500D01*
X89609500Y-93396500D01*
X89541379Y-93376498D01*
X89494886Y-93322842D01*
X89483500Y-93270500D01*
X89483500Y-83161114D01*
X97383275Y-83161114D01*
X97385325Y-83178830D01*
X97387285Y-83188727D01*
X97450604Y-83412494D01*
X97454116Y-83421938D01*
X97552399Y-83632705D01*
X97557378Y-83641471D01*
X97688087Y-83833802D01*
X97694419Y-83841677D01*
X97854186Y-84010626D01*
X97861695Y-84017387D01*
X98046426Y-84158625D01*
X98054905Y-84164089D01*
X98259847Y-84273978D01*
X98269099Y-84278020D01*
X98488971Y-84353727D01*
X98498743Y-84356236D01*
X98728971Y-84396004D01*
X98736843Y-84396859D01*
X98760551Y-84397936D01*
X98763384Y-84398000D01*
X99697885Y-84398000D01*
X99713124Y-84393525D01*
X99714329Y-84392135D01*
X99716000Y-84384452D01*
X99716000Y-84379885D01*
X100224000Y-84379885D01*
X100228475Y-84395124D01*
X100229865Y-84396329D01*
X100237548Y-84398000D01*
X101128456Y-84398000D01*
X101133488Y-84397798D01*
X101306843Y-84383850D01*
X101316796Y-84382238D01*
X101542633Y-84326767D01*
X101552203Y-84323584D01*
X101766265Y-84232720D01*
X101775207Y-84228045D01*
X101971987Y-84104126D01*
X101980060Y-84098086D01*
X102154500Y-83944297D01*
X102161504Y-83937044D01*
X102309110Y-83757346D01*
X102314866Y-83749064D01*
X102431841Y-83548081D01*
X102436203Y-83538976D01*
X102519537Y-83321885D01*
X102522388Y-83312196D01*
X102553821Y-83161736D01*
X102552698Y-83147675D01*
X102542590Y-83144000D01*
X100242115Y-83144000D01*
X100226876Y-83148475D01*
X100225671Y-83149865D01*
X100224000Y-83157548D01*
X100224000Y-84379885D01*
X99716000Y-84379885D01*
X99716000Y-83162115D01*
X99711525Y-83146876D01*
X99710135Y-83145671D01*
X99702452Y-83144000D01*
X97399410Y-83144000D01*
X97385324Y-83148136D01*
X97383275Y-83161114D01*
X89483500Y-83161114D01*
X89483500Y-82618264D01*
X97386179Y-82618264D01*
X97387302Y-82632325D01*
X97397410Y-82636000D01*
X99697885Y-82636000D01*
X99713124Y-82631525D01*
X99714329Y-82630135D01*
X99716000Y-82622452D01*
X99716000Y-82617885D01*
X100224000Y-82617885D01*
X100228475Y-82633124D01*
X100229865Y-82634329D01*
X100237548Y-82636000D01*
X102540590Y-82636000D01*
X102554676Y-82631864D01*
X102556725Y-82618886D01*
X102554675Y-82601170D01*
X102552715Y-82591273D01*
X102489396Y-82367506D01*
X102485884Y-82358062D01*
X102387601Y-82147295D01*
X102382622Y-82138529D01*
X102251913Y-81946198D01*
X102245581Y-81938323D01*
X102085814Y-81769374D01*
X102078305Y-81762613D01*
X101893574Y-81621375D01*
X101885095Y-81615911D01*
X101680153Y-81506022D01*
X101670901Y-81501980D01*
X101451029Y-81426273D01*
X101441257Y-81423764D01*
X101211029Y-81383996D01*
X101203157Y-81383141D01*
X101179449Y-81382064D01*
X101176616Y-81382000D01*
X100242115Y-81382000D01*
X100226876Y-81386475D01*
X100225671Y-81387865D01*
X100224000Y-81395548D01*
X100224000Y-82617885D01*
X99716000Y-82617885D01*
X99716000Y-81400115D01*
X99711525Y-81384876D01*
X99710135Y-81383671D01*
X99702452Y-81382000D01*
X98811544Y-81382000D01*
X98806512Y-81382202D01*
X98633157Y-81396150D01*
X98623204Y-81397762D01*
X98397367Y-81453233D01*
X98387797Y-81456416D01*
X98173735Y-81547280D01*
X98164793Y-81551955D01*
X97968013Y-81675874D01*
X97959940Y-81681914D01*
X97785500Y-81835703D01*
X97778496Y-81842956D01*
X97630890Y-82022654D01*
X97625134Y-82030936D01*
X97508159Y-82231919D01*
X97503797Y-82241024D01*
X97420463Y-82458115D01*
X97417612Y-82467804D01*
X97386179Y-82618264D01*
X89483500Y-82618264D01*
X89483500Y-79248456D01*
X95062000Y-79248456D01*
X95062202Y-79253488D01*
X95076150Y-79426843D01*
X95077762Y-79436796D01*
X95133233Y-79662633D01*
X95136416Y-79672203D01*
X95227280Y-79886265D01*
X95231955Y-79895207D01*
X95355874Y-80091987D01*
X95361914Y-80100060D01*
X95515703Y-80274500D01*
X95522956Y-80281504D01*
X95702654Y-80429110D01*
X95710936Y-80434866D01*
X95911919Y-80551841D01*
X95921024Y-80556203D01*
X96138115Y-80639537D01*
X96147804Y-80642388D01*
X96298264Y-80673821D01*
X96312325Y-80672698D01*
X96316000Y-80662590D01*
X96316000Y-80660590D01*
X96824000Y-80660590D01*
X96828136Y-80674676D01*
X96841114Y-80676725D01*
X96858830Y-80674675D01*
X96868727Y-80672715D01*
X97092494Y-80609396D01*
X97101938Y-80605884D01*
X97312705Y-80507601D01*
X97321471Y-80502622D01*
X97416361Y-80438134D01*
X101361500Y-80438134D01*
X101368255Y-80500316D01*
X101419385Y-80636705D01*
X101506739Y-80753261D01*
X101623295Y-80840615D01*
X101759684Y-80891745D01*
X101821866Y-80898500D01*
X103918134Y-80898500D01*
X103980316Y-80891745D01*
X104116705Y-80840615D01*
X104233261Y-80753261D01*
X104320615Y-80636705D01*
X104371745Y-80500316D01*
X104378500Y-80438134D01*
X104378500Y-78849500D01*
X104398502Y-78781379D01*
X104452158Y-78734886D01*
X104504500Y-78723500D01*
X140271233Y-78723500D01*
X140282416Y-78724027D01*
X140289909Y-78725702D01*
X140297835Y-78725453D01*
X140297836Y-78725453D01*
X140357986Y-78723562D01*
X140361945Y-78723500D01*
X140389856Y-78723500D01*
X140393791Y-78723003D01*
X140393856Y-78722995D01*
X140405693Y-78722062D01*
X140437951Y-78721048D01*
X140441970Y-78720922D01*
X140449889Y-78720673D01*
X140469343Y-78715021D01*
X140488700Y-78711013D01*
X140500930Y-78709468D01*
X140500931Y-78709468D01*
X140508797Y-78708474D01*
X140516168Y-78705555D01*
X140516170Y-78705555D01*
X140549912Y-78692196D01*
X140561142Y-78688351D01*
X140595983Y-78678229D01*
X140595984Y-78678229D01*
X140603593Y-78676018D01*
X140610412Y-78671985D01*
X140610417Y-78671983D01*
X140621028Y-78665707D01*
X140638776Y-78657012D01*
X140657617Y-78649552D01*
X140693387Y-78623564D01*
X140703307Y-78617048D01*
X140734535Y-78598580D01*
X140734538Y-78598578D01*
X140741362Y-78594542D01*
X140755683Y-78580221D01*
X140770717Y-78567380D01*
X140780694Y-78560131D01*
X140787107Y-78555472D01*
X140815298Y-78521395D01*
X140823288Y-78512616D01*
X142190499Y-77145405D01*
X142252811Y-77111379D01*
X142279594Y-77108500D01*
X142335487Y-77108500D01*
X142341939Y-77107128D01*
X142341944Y-77107128D01*
X142428887Y-77088647D01*
X142522288Y-77068794D01*
X142528319Y-77066109D01*
X142690722Y-76993803D01*
X142690724Y-76993802D01*
X142696752Y-76991118D01*
X142851253Y-76878866D01*
X142964442Y-76753157D01*
X142974621Y-76741852D01*
X142974622Y-76741851D01*
X142979040Y-76736944D01*
X143074527Y-76571556D01*
X143133542Y-76389928D01*
X143153504Y-76200000D01*
X143133542Y-76010072D01*
X143074527Y-75828444D01*
X142979040Y-75663056D01*
X142878778Y-75551703D01*
X142855675Y-75526045D01*
X142855674Y-75526044D01*
X142851253Y-75521134D01*
X142696752Y-75408882D01*
X142690724Y-75406198D01*
X142690722Y-75406197D01*
X142528319Y-75333891D01*
X142528318Y-75333891D01*
X142522288Y-75331206D01*
X142428887Y-75311353D01*
X142341944Y-75292872D01*
X142341939Y-75292872D01*
X142335487Y-75291500D01*
X142144513Y-75291500D01*
X142138061Y-75292872D01*
X142138056Y-75292872D01*
X142051113Y-75311353D01*
X141957712Y-75331206D01*
X141951682Y-75333891D01*
X141951681Y-75333891D01*
X141789278Y-75406197D01*
X141789276Y-75406198D01*
X141783248Y-75408882D01*
X141628747Y-75521134D01*
X141624326Y-75526044D01*
X141624325Y-75526045D01*
X141601223Y-75551703D01*
X141500960Y-75663056D01*
X141405473Y-75828444D01*
X141346458Y-76010072D01*
X141345768Y-76016633D01*
X141345768Y-76016635D01*
X141329093Y-76175293D01*
X141302080Y-76240950D01*
X141292878Y-76251218D01*
X140124500Y-77419595D01*
X140062188Y-77453621D01*
X140035405Y-77456500D01*
X104504500Y-77456500D01*
X104436379Y-77436498D01*
X104389886Y-77382842D01*
X104378500Y-77330500D01*
X104378500Y-75741866D01*
X104371745Y-75679684D01*
X104320615Y-75543295D01*
X104233261Y-75426739D01*
X104116705Y-75339385D01*
X103980316Y-75288255D01*
X103918134Y-75281500D01*
X101821866Y-75281500D01*
X101759684Y-75288255D01*
X101623295Y-75339385D01*
X101506739Y-75426739D01*
X101419385Y-75543295D01*
X101368255Y-75679684D01*
X101361500Y-75741866D01*
X101361500Y-80438134D01*
X97416361Y-80438134D01*
X97513802Y-80371913D01*
X97521677Y-80365581D01*
X97690626Y-80205814D01*
X97697387Y-80198305D01*
X97838625Y-80013574D01*
X97844089Y-80005095D01*
X97953978Y-79800153D01*
X97958020Y-79790901D01*
X98033727Y-79571029D01*
X98036236Y-79561257D01*
X98076004Y-79331029D01*
X98076859Y-79323157D01*
X98077936Y-79299449D01*
X98078000Y-79296616D01*
X98078000Y-78362115D01*
X98073525Y-78346876D01*
X98072135Y-78345671D01*
X98064452Y-78344000D01*
X96842115Y-78344000D01*
X96826876Y-78348475D01*
X96825671Y-78349865D01*
X96824000Y-78357548D01*
X96824000Y-80660590D01*
X96316000Y-80660590D01*
X96316000Y-78362115D01*
X96311525Y-78346876D01*
X96310135Y-78345671D01*
X96302452Y-78344000D01*
X95080115Y-78344000D01*
X95064876Y-78348475D01*
X95063671Y-78349865D01*
X95062000Y-78357548D01*
X95062000Y-79248456D01*
X89483500Y-79248456D01*
X89483500Y-77817885D01*
X95062000Y-77817885D01*
X95066475Y-77833124D01*
X95067865Y-77834329D01*
X95075548Y-77836000D01*
X96297885Y-77836000D01*
X96313124Y-77831525D01*
X96314329Y-77830135D01*
X96316000Y-77822452D01*
X96316000Y-77817885D01*
X96824000Y-77817885D01*
X96828475Y-77833124D01*
X96829865Y-77834329D01*
X96837548Y-77836000D01*
X98059885Y-77836000D01*
X98075124Y-77831525D01*
X98076329Y-77830135D01*
X98078000Y-77822452D01*
X98078000Y-76931544D01*
X98077798Y-76926512D01*
X98063850Y-76753157D01*
X98062238Y-76743204D01*
X98006767Y-76517367D01*
X98003584Y-76507797D01*
X97912720Y-76293735D01*
X97908045Y-76284793D01*
X97784126Y-76088013D01*
X97778086Y-76079940D01*
X97624297Y-75905500D01*
X97617044Y-75898496D01*
X97437346Y-75750890D01*
X97429064Y-75745134D01*
X97228081Y-75628159D01*
X97218976Y-75623797D01*
X97001885Y-75540463D01*
X96992196Y-75537612D01*
X96841736Y-75506179D01*
X96827675Y-75507302D01*
X96824000Y-75517410D01*
X96824000Y-77817885D01*
X96316000Y-77817885D01*
X96316000Y-75519410D01*
X96311864Y-75505324D01*
X96298886Y-75503275D01*
X96281170Y-75505325D01*
X96271273Y-75507285D01*
X96047506Y-75570604D01*
X96038062Y-75574116D01*
X95827295Y-75672399D01*
X95818529Y-75677378D01*
X95626198Y-75808087D01*
X95618323Y-75814419D01*
X95449374Y-75974186D01*
X95442613Y-75981695D01*
X95301375Y-76166426D01*
X95295911Y-76174905D01*
X95186022Y-76379847D01*
X95181980Y-76389099D01*
X95106273Y-76608971D01*
X95103764Y-76618743D01*
X95063996Y-76848971D01*
X95063141Y-76856843D01*
X95062064Y-76880551D01*
X95062000Y-76883384D01*
X95062000Y-77817885D01*
X89483500Y-77817885D01*
X89483500Y-64209500D01*
X89503502Y-64141379D01*
X89557158Y-64094886D01*
X89609500Y-64083500D01*
X91962167Y-64083500D01*
X92030288Y-64103502D01*
G37*
%TD.AperFunction*%
%TD*%
M02*
