  0
SECTION
  2
HEADER
  9
$ANGBASE
  50
0.0
  9
$ANGDIR
  70
1
  9
$MEASUREMENT
  70
1
  0
ENDSEC
  0
SECTION
  2
TABLES
  0
TABLE
  2
LTYPE
  70
4
  0
LTYPE
  5
40F
  2
CONTINUOUS
  70
0
  3
Solid line
  72
65
  73
0
  40
0.0
  0
LTYPE
  5
410
  2
DASHDOT
 70
0
  3
Dash Dot ____ _ ____ _
 72
65
 73
4
 40
2.0
 49
1.25
 49
-0.25
 49
0.25
 49
-0.25
  0
LTYPE
  5
411
  2
DASHED
 70
0
  3
Dashed __ __ __ __ __
 72
65
 73
2
 40
0.75
 49
0.5
 49
-0.25
  0
LTYPE
  5
43B
  2
DOTTED
 70
0
  3
Dotted .  .  .  .
 72
65
 73
2
 40
0.2
 49
0.0
 49
-0.2
  0
ENDTAB
  0
TABLE
  2
STYLE
  70
4
  0
STYLE
  2
KICAD
  70
0
  40
0
  41
1
  42
1
  50
0
  71
0
  3
isocp.shx
  0
STYLE
  2
KICADB
  70
0
  40
0
  41
1
  42
1
  50
0
  71
0
  3
isocp.shx
  0
STYLE
  2
KICADI
  70
0
  40
0
  41
1
  42
1
  50
15
  71
0
  3
isocp.shx
  0
STYLE
  2
KICADBI
  70
0
  40
0
  41
1
  42
1
  50
15
  71
0
  3
isocp.shx
  0
ENDTAB
  0
TABLE
  2
LAYER
  70
1
  0
LAYER
  2
BLACK
  70
0
  62
7
  6
CONTINUOUS
  0
ENDTAB
  0
ENDSEC
  0
SECTION
  2
ENTITIES
0
LINE
8
BLACK
6
CONTINUOUS
10
88.9
20
-93.98
11
88.9
21
-63.5
0
LINE
8
BLACK
6
CONTINUOUS
10
144.78
20
-93.98
11
88.9
21
-93.98
0
LINE
8
BLACK
6
CONTINUOUS
10
144.78
20
-63.5
11
144.78
21
-93.98
0
LINE
8
BLACK
6
CONTINUOUS
10
88.9
20
-63.5
11
144.78
21
-63.5
0
LINE
8
BLACK
6
CONTINUOUS
10
91.4262
20
-97.1348
11
91.4262
21
-95.1348
0
LINE
8
BLACK
6
CONTINUOUS
10
91.4262
20
-95.1348
11
91.9024
21
-95.1348
0
LINE
8
BLACK
6
CONTINUOUS
10
91.9024
20
-95.1348
11
92.1881
21
-95.23
0
LINE
8
BLACK
6
CONTINUOUS
10
92.1881
20
-95.23
11
92.3786
21
-95.4205
0
LINE
8
BLACK
6
CONTINUOUS
10
92.3786
20
-95.4205
11
92.4738
21
-95.611
0
LINE
8
BLACK
6
CONTINUOUS
10
92.4738
20
-95.611
11
92.569
21
-95.9919
0
LINE
8
BLACK
6
CONTINUOUS
10
92.569
20
-95.9919
11
92.569
21
-96.2776
0
LINE
8
BLACK
6
CONTINUOUS
10
92.569
20
-96.2776
11
92.4738
21
-96.6586
0
LINE
8
BLACK
6
CONTINUOUS
10
92.4738
20
-96.6586
11
92.3786
21
-96.849
0
LINE
8
BLACK
6
CONTINUOUS
10
92.3786
20
-96.849
11
92.1881
21
-97.0395
0
LINE
8
BLACK
6
CONTINUOUS
10
92.1881
20
-97.0395
11
91.9024
21
-97.1348
0
LINE
8
BLACK
6
CONTINUOUS
10
91.9024
20
-97.1348
11
91.4262
21
-97.1348
0
LINE
8
BLACK
6
CONTINUOUS
10
93.4262
20
-97.1348
11
93.4262
21
-95.8014
0
LINE
8
BLACK
6
CONTINUOUS
10
93.4262
20
-96.1824
11
93.5214
21
-95.9919
0
LINE
8
BLACK
6
CONTINUOUS
10
93.5214
20
-95.9919
11
93.6167
21
-95.8967
0
LINE
8
BLACK
6
CONTINUOUS
10
93.6167
20
-95.8967
11
93.8071
21
-95.8014
0
LINE
8
BLACK
6
CONTINUOUS
10
93.8071
20
-95.8014
11
93.9976
21
-95.8014
0
LINE
8
BLACK
6
CONTINUOUS
10
94.6643
20
-97.1348
11
94.6643
21
-95.8014
0
LINE
8
BLACK
6
CONTINUOUS
10
94.6643
20
-95.1348
11
94.569
21
-95.23
0
LINE
8
BLACK
6
CONTINUOUS
10
94.569
20
-95.23
11
94.6643
21
-95.3252
0
LINE
8
BLACK
6
CONTINUOUS
10
94.6643
20
-95.3252
11
94.7595
21
-95.23
0
LINE
8
BLACK
6
CONTINUOUS
10
94.7595
20
-95.23
11
94.6643
21
-95.1348
0
LINE
8
BLACK
6
CONTINUOUS
10
94.6643
20
-95.1348
11
94.6643
21
-95.3252
0
LINE
8
BLACK
6
CONTINUOUS
10
95.9024
20
-97.1348
11
95.7119
21
-97.0395
0
LINE
8
BLACK
6
CONTINUOUS
10
95.7119
20
-97.0395
11
95.6167
21
-96.849
0
LINE
8
BLACK
6
CONTINUOUS
10
95.6167
20
-96.849
11
95.6167
21
-95.1348
0
LINE
8
BLACK
6
CONTINUOUS
10
96.95
20
-97.1348
11
96.7595
21
-97.0395
0
LINE
8
BLACK
6
CONTINUOUS
10
96.7595
20
-97.0395
11
96.6643
21
-96.849
0
LINE
8
BLACK
6
CONTINUOUS
10
96.6643
20
-96.849
11
96.6643
21
-95.1348
0
LINE
8
BLACK
6
CONTINUOUS
10
99.2357
20
-97.1348
11
99.2357
21
-95.1348
0
LINE
8
BLACK
6
CONTINUOUS
10
99.2357
20
-95.1348
11
99.9024
21
-96.5633
0
LINE
8
BLACK
6
CONTINUOUS
10
99.9024
20
-96.5633
11
100.569
21
-95.1348
0
LINE
8
BLACK
6
CONTINUOUS
10
100.569
20
-95.1348
11
100.569
21
-97.1348
0
LINE
8
BLACK
6
CONTINUOUS
10
102.379
20
-97.1348
11
102.379
21
-96.0871
0
LINE
8
BLACK
6
CONTINUOUS
10
102.379
20
-96.0871
11
102.283
21
-95.8967
0
LINE
8
BLACK
6
CONTINUOUS
10
102.283
20
-95.8967
11
102.093
21
-95.8014
0
LINE
8
BLACK
6
CONTINUOUS
10
102.093
20
-95.8014
11
101.712
21
-95.8014
0
LINE
8
BLACK
6
CONTINUOUS
10
101.712
20
-95.8014
11
101.521
21
-95.8967
0
LINE
8
BLACK
6
CONTINUOUS
10
102.379
20
-97.0395
11
102.188
21
-97.1348
0
LINE
8
BLACK
6
CONTINUOUS
10
102.188
20
-97.1348
11
101.712
21
-97.1348
0
LINE
8
BLACK
6
CONTINUOUS
10
101.712
20
-97.1348
11
101.521
21
-97.0395
0
LINE
8
BLACK
6
CONTINUOUS
10
101.521
20
-97.0395
11
101.426
21
-96.849
0
LINE
8
BLACK
6
CONTINUOUS
10
101.426
20
-96.849
11
101.426
21
-96.6586
0
LINE
8
BLACK
6
CONTINUOUS
10
101.426
20
-96.6586
11
101.521
21
-96.4681
0
LINE
8
BLACK
6
CONTINUOUS
10
101.521
20
-96.4681
11
101.712
21
-96.3729
0
LINE
8
BLACK
6
CONTINUOUS
10
101.712
20
-96.3729
11
102.188
21
-96.3729
0
LINE
8
BLACK
6
CONTINUOUS
10
102.188
20
-96.3729
11
102.379
21
-96.2776
0
LINE
8
BLACK
6
CONTINUOUS
10
103.331
20
-95.8014
11
103.331
21
-97.8014
0
LINE
8
BLACK
6
CONTINUOUS
10
103.331
20
-95.8967
11
103.521
21
-95.8014
0
LINE
8
BLACK
6
CONTINUOUS
10
103.521
20
-95.8014
11
103.902
21
-95.8014
0
LINE
8
BLACK
6
CONTINUOUS
10
103.902
20
-95.8014
11
104.093
21
-95.8967
0
LINE
8
BLACK
6
CONTINUOUS
10
104.093
20
-95.8967
11
104.188
21
-95.9919
0
LINE
8
BLACK
6
CONTINUOUS
10
104.188
20
-95.9919
11
104.283
21
-96.1824
0
LINE
8
BLACK
6
CONTINUOUS
10
104.283
20
-96.1824
11
104.283
21
-96.7538
0
LINE
8
BLACK
6
CONTINUOUS
10
104.283
20
-96.7538
11
104.188
21
-96.9443
0
LINE
8
BLACK
6
CONTINUOUS
10
104.188
20
-96.9443
11
104.093
21
-97.0395
0
LINE
8
BLACK
6
CONTINUOUS
10
104.093
20
-97.0395
11
103.902
21
-97.1348
0
LINE
8
BLACK
6
CONTINUOUS
10
103.902
20
-97.1348
11
103.521
21
-97.1348
0
LINE
8
BLACK
6
CONTINUOUS
10
103.521
20
-97.1348
11
103.331
21
-97.0395
0
LINE
8
BLACK
6
CONTINUOUS
10
105.14
20
-96.9443
11
105.236
21
-97.0395
0
LINE
8
BLACK
6
CONTINUOUS
10
105.236
20
-97.0395
11
105.14
21
-97.1348
0
LINE
8
BLACK
6
CONTINUOUS
10
105.14
20
-97.1348
11
105.045
21
-97.0395
0
LINE
8
BLACK
6
CONTINUOUS
10
105.045
20
-97.0395
11
105.14
21
-96.9443
0
LINE
8
BLACK
6
CONTINUOUS
10
105.14
20
-96.9443
11
105.14
21
-97.1348
0
LINE
8
BLACK
6
CONTINUOUS
10
105.14
20
-95.8967
11
105.236
21
-95.9919
0
LINE
8
BLACK
6
CONTINUOUS
10
105.236
20
-95.9919
11
105.14
21
-96.0871
0
LINE
8
BLACK
6
CONTINUOUS
10
105.14
20
-96.0871
11
105.045
21
-95.9919
0
LINE
8
BLACK
6
CONTINUOUS
10
105.045
20
-95.9919
11
105.14
21
-95.8967
0
LINE
8
BLACK
6
CONTINUOUS
10
105.14
20
-95.8967
11
105.14
21
-96.0871
  0
ENDSEC
  0
EOF
