%TF.GenerationSoftware,KiCad,Pcbnew,6.0.6-1.fc36*%
%TF.CreationDate,2022-07-20T00:31:47+02:00*%
%TF.ProjectId,atari-lpt-joysticks,61746172-692d-46c7-9074-2d6a6f797374,rev?*%
%TF.SameCoordinates,Original*%
%TF.FileFunction,Copper,L1,Top*%
%TF.FilePolarity,Positive*%
%FSLAX46Y46*%
G04 Gerber Fmt 4.6, Leading zero omitted, Abs format (unit mm)*
G04 Created by KiCad (PCBNEW 6.0.6-1.fc36) date 2022-07-20 00:31:47*
%MOMM*%
%LPD*%
G01*
G04 APERTURE LIST*
%TA.AperFunction,SMDPad,CuDef*%
%ADD10R,1.846667X3.480000*%
%TD*%
%TA.AperFunction,ComponentPad*%
%ADD11R,2.000000X4.600000*%
%TD*%
%TA.AperFunction,ComponentPad*%
%ADD12O,2.000000X4.200000*%
%TD*%
%TA.AperFunction,ComponentPad*%
%ADD13O,4.200000X2.000000*%
%TD*%
%TA.AperFunction,ViaPad*%
%ADD14C,0.800000*%
%TD*%
%TA.AperFunction,Conductor*%
%ADD15C,0.250000*%
%TD*%
G04 APERTURE END LIST*
D10*
%TO.P,Joystick-3,6,6*%
%TO.N,Net-(Joystick-3-Pad6)*%
X94905000Y-65482500D03*
%TO.P,Joystick-3,7,7*%
%TO.N,Net-(Joystick-3-Pad7)*%
X97675000Y-65482500D03*
%TO.P,Joystick-3,8,8*%
%TO.N,GND*%
X100445000Y-65482500D03*
%TO.P,Joystick-3,9,9*%
%TO.N,unconnected-(Joystick-3-Pad9)*%
X103215000Y-65482500D03*
%TD*%
%TO.P,Joystick-4,6,6*%
%TO.N,Net-(Joystick-4-Pad6)*%
X130465000Y-65482500D03*
%TO.P,Joystick-4,7,7*%
%TO.N,Net-(Joystick-3-Pad7)*%
X133235000Y-65482500D03*
%TO.P,Joystick-4,8,8*%
%TO.N,GND*%
X136005000Y-65482500D03*
%TO.P,Joystick-4,9,9*%
%TO.N,unconnected-(Joystick-4-Pad9)*%
X138775000Y-65482500D03*
%TD*%
%TO.P,J1,1,1*%
%TO.N,Net-(Joystick-3-Pad6)*%
X100220000Y-92097500D03*
%TO.P,J1,2,2*%
%TO.N,Net-(Joystick-3-Pad1)*%
X102990000Y-92097500D03*
%TO.P,J1,3,3*%
%TO.N,Net-(Joystick-3-Pad2)*%
X105760000Y-92097500D03*
%TO.P,J1,4,4*%
%TO.N,Net-(Joystick-3-Pad3)*%
X108530000Y-92097500D03*
%TO.P,J1,5,5*%
%TO.N,Net-(Joystick-3-Pad4)*%
X111300000Y-92097500D03*
%TO.P,J1,6,6*%
%TO.N,Net-(Joystick-4-Pad1)*%
X114070000Y-92097500D03*
%TO.P,J1,7,7*%
%TO.N,Net-(Joystick-4-Pad2)*%
X116840000Y-92097500D03*
%TO.P,J1,8,8*%
%TO.N,Net-(Joystick-4-Pad3)*%
X119610000Y-92097500D03*
%TO.P,J1,9,9*%
%TO.N,Net-(Joystick-4-Pad4)*%
X122380000Y-92097500D03*
%TO.P,J1,10,10*%
%TO.N,unconnected-(J1-Pad10)*%
X125150000Y-92097500D03*
%TO.P,J1,11,11*%
%TO.N,Net-(Joystick-4-Pad6)*%
X127920000Y-92097500D03*
%TO.P,J1,12,12*%
%TO.N,unconnected-(J1-Pad12)*%
X130690000Y-92097500D03*
%TO.P,J1,13,13*%
%TO.N,unconnected-(J1-Pad13)*%
X133460000Y-92097500D03*
%TD*%
D11*
%TO.P,J2,1*%
%TO.N,Net-(Joystick-3-Pad7)*%
X102870000Y-78090000D03*
D12*
%TO.P,J2,2*%
%TO.N,GND*%
X96570000Y-78090000D03*
D13*
%TO.P,J2,3*%
X99970000Y-82890000D03*
%TD*%
D14*
%TO.N,GND*%
X140962549Y-73656031D03*
X133350000Y-69850000D03*
X95250000Y-68580000D03*
X92710000Y-71120000D03*
X135890000Y-68580000D03*
%TO.N,Net-(Joystick-4-Pad4)*%
X137160000Y-72390000D03*
%TO.N,Net-(Joystick-3-Pad1)*%
X92164500Y-73660000D03*
%TO.N,Net-(Joystick-3-Pad4)*%
X109220000Y-71120000D03*
%TO.N,Net-(Joystick-3-Pad3)*%
X104140000Y-71120000D03*
%TO.N,Net-(Joystick-3-Pad2)*%
X96520000Y-71120000D03*
%TO.N,Net-(Joystick-3-Pad7)*%
X142240000Y-76200000D03*
%TO.N,Net-(Joystick-4-Pad3)*%
X134620000Y-72390000D03*
%TO.N,Net-(Joystick-4-Pad2)*%
X132080000Y-72390000D03*
%TO.N,Net-(Joystick-4-Pad1)*%
X129540000Y-72390000D03*
%TO.N,GND*%
X106680000Y-81280000D03*
X113030000Y-81280000D03*
X92710000Y-91440000D03*
X110490000Y-81280000D03*
X128270000Y-83820000D03*
X121920000Y-86360000D03*
X119380000Y-83820000D03*
X113030000Y-76200000D03*
X96520000Y-87630000D03*
X135890000Y-88900000D03*
X132080000Y-85090000D03*
%TD*%
D15*
%TO.N,Net-(Joystick-4-Pad4)*%
X122380000Y-91280833D02*
X136040417Y-77620417D01*
X136040417Y-77620417D02*
X137160000Y-76500833D01*
X137160000Y-76500834D02*
X136040417Y-77620417D01*
X137160000Y-72390000D02*
X137160000Y-76500834D01*
%TO.N,Net-(Joystick-4-Pad3)*%
X119610000Y-91280833D02*
X132750416Y-78140416D01*
X132750416Y-78140416D02*
X134620000Y-76270833D01*
X134620000Y-72390000D02*
X134620000Y-76270832D01*
X134620000Y-76270832D02*
X132750416Y-78140416D01*
%TO.N,Net-(Joystick-4-Pad2)*%
X132080000Y-72390000D02*
X132080000Y-73660000D01*
X132080000Y-73660000D02*
X116840000Y-88900000D01*
X116840000Y-88900000D02*
X116840000Y-92097500D01*
%TO.N,Net-(Joystick-3-Pad7)*%
X142240000Y-76200000D02*
X142240000Y-71310000D01*
X142240000Y-71310000D02*
X140780000Y-69850000D01*
X140780000Y-69850000D02*
X134620000Y-69850000D01*
X134620000Y-69850000D02*
X133235000Y-68465000D01*
X133235000Y-68465000D02*
X133235000Y-65482500D01*
%TO.N,Net-(Joystick-4-Pad6)*%
X130465000Y-69505000D02*
X132080000Y-71120000D01*
X132080000Y-71120000D02*
X139700000Y-71120000D01*
X130465000Y-65482500D02*
X130465000Y-69505000D01*
X139700000Y-71120000D02*
X139700000Y-79774167D01*
X139700000Y-79774167D02*
X127920000Y-91554167D01*
X127920000Y-91554167D02*
X127920000Y-92097500D01*
%TO.N,Net-(Joystick-3-Pad1)*%
X93980000Y-75475500D02*
X92164500Y-73660000D01*
X93980000Y-81280000D02*
X93980000Y-75475500D01*
%TO.N,Net-(Joystick-3-Pad6)*%
X93530000Y-69030000D02*
X91440000Y-71120000D01*
X93530000Y-66857500D02*
X93530000Y-69030000D01*
X94905000Y-65482500D02*
X93530000Y-66857500D01*
X91440000Y-71120000D02*
X91440000Y-86360000D01*
%TO.N,Net-(Joystick-3-Pad7)*%
X102870000Y-78090000D02*
X102870000Y-76790000D01*
X97675000Y-67425000D02*
X97675000Y-65482500D01*
X102870000Y-76790000D02*
X99740000Y-73660000D01*
X99740000Y-73660000D02*
X93980000Y-73660000D01*
X93980000Y-73660000D02*
X93980000Y-71120000D01*
X93980000Y-71120000D02*
X97675000Y-67425000D01*
%TO.N,Net-(Joystick-3-Pad4)*%
X109220000Y-71120000D02*
X111300000Y-73200000D01*
%TO.N,Net-(Joystick-3-Pad3)*%
X108530000Y-74350000D02*
X105300000Y-71120000D01*
X105300000Y-71120000D02*
X104140000Y-71120000D01*
X108530000Y-92097500D02*
X108530000Y-74350000D01*
%TO.N,Net-(Joystick-3-Pad2)*%
X101600000Y-71120000D02*
X96520000Y-71120000D01*
X105760000Y-75280000D02*
X101600000Y-71120000D01*
%TO.N,Net-(Joystick-3-Pad6)*%
X97177500Y-92097500D02*
X100220000Y-92097500D01*
X91440000Y-86360000D02*
X97177500Y-92097500D01*
%TO.N,Net-(Joystick-3-Pad1)*%
X102990000Y-92097500D02*
X102990000Y-90290000D01*
X102990000Y-90290000D02*
X93980000Y-81280000D01*
%TO.N,Net-(Joystick-3-Pad2)*%
X105760000Y-92097500D02*
X105760000Y-75280000D01*
%TO.N,Net-(Joystick-3-Pad4)*%
X111300000Y-92097500D02*
X111300000Y-73200000D01*
%TO.N,Net-(Joystick-4-Pad1)*%
X114070000Y-87860000D02*
X129540000Y-72390000D01*
X114070000Y-92097500D02*
X114070000Y-87860000D01*
%TO.N,Net-(Joystick-4-Pad3)*%
X119610000Y-92097500D02*
X119610000Y-91280833D01*
%TO.N,Net-(Joystick-4-Pad4)*%
X122380000Y-92097500D02*
X122380000Y-91280833D01*
%TD*%
%TA.AperFunction,Conductor*%
%TO.N,GND*%
G36*
X93415288Y-64103502D02*
G01*
X93461781Y-64157158D01*
X93473167Y-64209500D01*
X93473167Y-65966238D01*
X93453165Y-66034359D01*
X93436262Y-66055333D01*
X93137747Y-66353848D01*
X93129461Y-66361388D01*
X93122982Y-66365500D01*
X93117557Y-66371277D01*
X93076357Y-66415151D01*
X93073602Y-66417993D01*
X93053865Y-66437730D01*
X93051385Y-66440927D01*
X93043682Y-66449947D01*
X93013414Y-66482179D01*
X93009595Y-66489125D01*
X93009593Y-66489128D01*
X93003652Y-66499934D01*
X92992801Y-66516453D01*
X92980386Y-66532459D01*
X92977241Y-66539728D01*
X92977238Y-66539732D01*
X92962826Y-66573037D01*
X92957609Y-66583687D01*
X92936305Y-66622440D01*
X92934334Y-66630115D01*
X92934334Y-66630116D01*
X92931267Y-66642062D01*
X92924863Y-66660766D01*
X92916819Y-66679355D01*
X92915580Y-66687178D01*
X92915577Y-66687188D01*
X92909901Y-66723024D01*
X92907495Y-66734644D01*
X92896500Y-66777470D01*
X92896500Y-66797724D01*
X92894949Y-66817434D01*
X92891780Y-66837443D01*
X92892526Y-66845335D01*
X92895941Y-66881461D01*
X92896500Y-66893319D01*
X92896500Y-68715405D01*
X92876498Y-68783526D01*
X92859595Y-68804500D01*
X91047747Y-70616348D01*
X91039461Y-70623888D01*
X91032982Y-70628000D01*
X91027557Y-70633777D01*
X90986357Y-70677651D01*
X90983602Y-70680493D01*
X90963865Y-70700230D01*
X90961385Y-70703427D01*
X90953682Y-70712447D01*
X90923414Y-70744679D01*
X90919595Y-70751625D01*
X90919593Y-70751628D01*
X90913652Y-70762434D01*
X90902801Y-70778953D01*
X90890386Y-70794959D01*
X90887241Y-70802228D01*
X90887238Y-70802232D01*
X90872826Y-70835537D01*
X90867609Y-70846187D01*
X90846305Y-70884940D01*
X90844334Y-70892615D01*
X90844334Y-70892616D01*
X90841267Y-70904562D01*
X90834863Y-70923266D01*
X90833912Y-70925465D01*
X90826819Y-70941855D01*
X90825580Y-70949678D01*
X90825577Y-70949688D01*
X90819901Y-70985524D01*
X90817495Y-70997144D01*
X90808472Y-71032289D01*
X90806500Y-71039970D01*
X90806500Y-71060224D01*
X90804949Y-71079934D01*
X90801780Y-71099943D01*
X90802526Y-71107835D01*
X90805941Y-71143961D01*
X90806500Y-71155819D01*
X90806500Y-86281233D01*
X90805973Y-86292416D01*
X90804298Y-86299909D01*
X90804547Y-86307835D01*
X90804547Y-86307836D01*
X90806438Y-86367986D01*
X90806500Y-86371945D01*
X90806500Y-86399856D01*
X90806997Y-86403790D01*
X90806997Y-86403791D01*
X90807005Y-86403856D01*
X90807938Y-86415693D01*
X90809327Y-86459889D01*
X90814978Y-86479339D01*
X90818987Y-86498700D01*
X90821526Y-86518797D01*
X90824445Y-86526168D01*
X90824445Y-86526170D01*
X90837804Y-86559912D01*
X90841649Y-86571142D01*
X90853982Y-86613593D01*
X90858015Y-86620412D01*
X90858017Y-86620417D01*
X90864293Y-86631028D01*
X90872988Y-86648776D01*
X90880448Y-86667617D01*
X90885110Y-86674033D01*
X90885110Y-86674034D01*
X90906436Y-86703387D01*
X90912952Y-86713307D01*
X90935458Y-86751362D01*
X90949779Y-86765683D01*
X90962619Y-86780716D01*
X90974528Y-86797107D01*
X90980634Y-86802158D01*
X91008605Y-86825298D01*
X91017384Y-86833288D01*
X96673843Y-92489747D01*
X96681387Y-92498037D01*
X96685500Y-92504518D01*
X96691277Y-92509943D01*
X96735167Y-92551158D01*
X96738009Y-92553913D01*
X96757730Y-92573634D01*
X96760925Y-92576112D01*
X96769947Y-92583818D01*
X96802179Y-92614086D01*
X96809128Y-92617906D01*
X96819932Y-92623846D01*
X96836456Y-92634699D01*
X96852459Y-92647113D01*
X96893043Y-92664676D01*
X96903673Y-92669883D01*
X96942440Y-92691195D01*
X96950117Y-92693166D01*
X96950122Y-92693168D01*
X96962058Y-92696232D01*
X96980766Y-92702637D01*
X96999355Y-92710681D01*
X97007183Y-92711921D01*
X97007190Y-92711923D01*
X97043024Y-92717599D01*
X97054644Y-92720005D01*
X97089789Y-92729028D01*
X97097470Y-92731000D01*
X97117724Y-92731000D01*
X97137434Y-92732551D01*
X97157443Y-92735720D01*
X97165335Y-92734974D01*
X97201461Y-92731559D01*
X97213319Y-92731000D01*
X98662167Y-92731000D01*
X98730288Y-92751002D01*
X98776781Y-92804658D01*
X98788167Y-92857000D01*
X98788167Y-93270500D01*
X98768165Y-93338621D01*
X98714509Y-93385114D01*
X98662167Y-93396500D01*
X89609500Y-93396500D01*
X89541379Y-93376498D01*
X89494886Y-93322842D01*
X89483500Y-93270500D01*
X89483500Y-64209500D01*
X89503502Y-64141379D01*
X89557158Y-64094886D01*
X89609500Y-64083500D01*
X93347167Y-64083500D01*
X93415288Y-64103502D01*
G37*
%TD.AperFunction*%
%TA.AperFunction,Conductor*%
G36*
X144138621Y-64103502D02*
G01*
X144185114Y-64157158D01*
X144196500Y-64209500D01*
X144196500Y-93270500D01*
X144176498Y-93338621D01*
X144122842Y-93385114D01*
X144070500Y-93396500D01*
X135017833Y-93396500D01*
X134949712Y-93376498D01*
X134903219Y-93322842D01*
X134891833Y-93270500D01*
X134891833Y-90309366D01*
X134885078Y-90247184D01*
X134833948Y-90110795D01*
X134746594Y-89994239D01*
X134630038Y-89906885D01*
X134493649Y-89855755D01*
X134431467Y-89849000D01*
X132488533Y-89849000D01*
X132426351Y-89855755D01*
X132289962Y-89906885D01*
X132173406Y-89994239D01*
X132168025Y-90001419D01*
X132164095Y-90005349D01*
X132101783Y-90039375D01*
X132030968Y-90034310D01*
X131985905Y-90005349D01*
X131981975Y-90001419D01*
X131976594Y-89994239D01*
X131860038Y-89906885D01*
X131723649Y-89855755D01*
X131661467Y-89849000D01*
X130825261Y-89849000D01*
X130757140Y-89828998D01*
X130710647Y-89775342D01*
X130700543Y-89705068D01*
X130730037Y-89640488D01*
X130736166Y-89633905D01*
X140092253Y-80277819D01*
X140100539Y-80270279D01*
X140107018Y-80266167D01*
X140153644Y-80216515D01*
X140156398Y-80213674D01*
X140176135Y-80193937D01*
X140178615Y-80190740D01*
X140186320Y-80181718D01*
X140211159Y-80155267D01*
X140216586Y-80149488D01*
X140220405Y-80142542D01*
X140220407Y-80142539D01*
X140226348Y-80131733D01*
X140237199Y-80115214D01*
X140244758Y-80105468D01*
X140249614Y-80099208D01*
X140252759Y-80091939D01*
X140252762Y-80091935D01*
X140267174Y-80058630D01*
X140272391Y-80047980D01*
X140293695Y-80009227D01*
X140298733Y-79989604D01*
X140305137Y-79970901D01*
X140310033Y-79959587D01*
X140310033Y-79959586D01*
X140313181Y-79952312D01*
X140314420Y-79944489D01*
X140314423Y-79944479D01*
X140320099Y-79908643D01*
X140322505Y-79897023D01*
X140331528Y-79861878D01*
X140331528Y-79861877D01*
X140333500Y-79854197D01*
X140333500Y-79833943D01*
X140335051Y-79814232D01*
X140336980Y-79802053D01*
X140338220Y-79794224D01*
X140334059Y-79750205D01*
X140333500Y-79738348D01*
X140333500Y-71191793D01*
X140335732Y-71168184D01*
X140335790Y-71167881D01*
X140335790Y-71167877D01*
X140337275Y-71160094D01*
X140333749Y-71104049D01*
X140333500Y-71096138D01*
X140333500Y-71080144D01*
X140331494Y-71064270D01*
X140330752Y-71056410D01*
X140329024Y-71028951D01*
X140327723Y-71008263D01*
X140327723Y-71008262D01*
X140327225Y-71000350D01*
X140324679Y-70992513D01*
X140319506Y-70969369D01*
X140319468Y-70969065D01*
X140319467Y-70969060D01*
X140318474Y-70961203D01*
X140315558Y-70953838D01*
X140315557Y-70953834D01*
X140297801Y-70908989D01*
X140295129Y-70901570D01*
X140277764Y-70848125D01*
X140273514Y-70841428D01*
X140273350Y-70841169D01*
X140262585Y-70820042D01*
X140262471Y-70819754D01*
X140262468Y-70819749D01*
X140259552Y-70812383D01*
X140254896Y-70805975D01*
X140254893Y-70805969D01*
X140226542Y-70766948D01*
X140222092Y-70760401D01*
X140192000Y-70712982D01*
X140185993Y-70707341D01*
X140170312Y-70689555D01*
X140165958Y-70683563D01*
X140142099Y-70616697D01*
X140158177Y-70547545D01*
X140209089Y-70498063D01*
X140267893Y-70483500D01*
X140465406Y-70483500D01*
X140533527Y-70503502D01*
X140554501Y-70520405D01*
X141569595Y-71535500D01*
X141603621Y-71597812D01*
X141606500Y-71624595D01*
X141606500Y-75497476D01*
X141586498Y-75565597D01*
X141574142Y-75581779D01*
X141500960Y-75663056D01*
X141405473Y-75828444D01*
X141346458Y-76010072D01*
X141326496Y-76200000D01*
X141327186Y-76206565D01*
X141338152Y-76310897D01*
X141346458Y-76389928D01*
X141405473Y-76571556D01*
X141408776Y-76577278D01*
X141408777Y-76577279D01*
X141432716Y-76618743D01*
X141500960Y-76736944D01*
X141505378Y-76741851D01*
X141505379Y-76741852D01*
X141608917Y-76856843D01*
X141628747Y-76878866D01*
X141783248Y-76991118D01*
X141789276Y-76993802D01*
X141789278Y-76993803D01*
X141951681Y-77066109D01*
X141957712Y-77068794D01*
X142051113Y-77088647D01*
X142138056Y-77107128D01*
X142138061Y-77107128D01*
X142144513Y-77108500D01*
X142335487Y-77108500D01*
X142341939Y-77107128D01*
X142341944Y-77107128D01*
X142428887Y-77088647D01*
X142522288Y-77068794D01*
X142528319Y-77066109D01*
X142690722Y-76993803D01*
X142690724Y-76993802D01*
X142696752Y-76991118D01*
X142851253Y-76878866D01*
X142871083Y-76856843D01*
X142974621Y-76741852D01*
X142974622Y-76741851D01*
X142979040Y-76736944D01*
X143047284Y-76618743D01*
X143071223Y-76577279D01*
X143071224Y-76577278D01*
X143074527Y-76571556D01*
X143133542Y-76389928D01*
X143141849Y-76310897D01*
X143152814Y-76206565D01*
X143153504Y-76200000D01*
X143133542Y-76010072D01*
X143074527Y-75828444D01*
X142979040Y-75663056D01*
X142905863Y-75581785D01*
X142875147Y-75517779D01*
X142873500Y-75497476D01*
X142873500Y-71388767D01*
X142874027Y-71377584D01*
X142875702Y-71370091D01*
X142873562Y-71302000D01*
X142873500Y-71298043D01*
X142873500Y-71270144D01*
X142872996Y-71266153D01*
X142872063Y-71254311D01*
X142870923Y-71218036D01*
X142870674Y-71210111D01*
X142868462Y-71202497D01*
X142868461Y-71202492D01*
X142865023Y-71190659D01*
X142861012Y-71171295D01*
X142859467Y-71159064D01*
X142858474Y-71151203D01*
X142855557Y-71143836D01*
X142855556Y-71143831D01*
X142842198Y-71110092D01*
X142838354Y-71098865D01*
X142834065Y-71084103D01*
X142826018Y-71056407D01*
X142815707Y-71038972D01*
X142807012Y-71021224D01*
X142799552Y-71002383D01*
X142787304Y-70985524D01*
X142773564Y-70966613D01*
X142767048Y-70956693D01*
X142748580Y-70925465D01*
X142748578Y-70925462D01*
X142744542Y-70918638D01*
X142730221Y-70904317D01*
X142717380Y-70889283D01*
X142710131Y-70879306D01*
X142705472Y-70872893D01*
X142671395Y-70844702D01*
X142662616Y-70836712D01*
X141283652Y-69457747D01*
X141276112Y-69449461D01*
X141272000Y-69442982D01*
X141222348Y-69396356D01*
X141219507Y-69393602D01*
X141199770Y-69373865D01*
X141196573Y-69371385D01*
X141187551Y-69363680D01*
X141185023Y-69361306D01*
X141155321Y-69333414D01*
X141148375Y-69329595D01*
X141148372Y-69329593D01*
X141137566Y-69323652D01*
X141121047Y-69312801D01*
X141116168Y-69309017D01*
X141105041Y-69300386D01*
X141097772Y-69297241D01*
X141097768Y-69297238D01*
X141064463Y-69282826D01*
X141053813Y-69277609D01*
X141015060Y-69256305D01*
X140995437Y-69251267D01*
X140976734Y-69244863D01*
X140965420Y-69239967D01*
X140965419Y-69239967D01*
X140958145Y-69236819D01*
X140950322Y-69235580D01*
X140950312Y-69235577D01*
X140914476Y-69229901D01*
X140902856Y-69227495D01*
X140867711Y-69218472D01*
X140867710Y-69218472D01*
X140860030Y-69216500D01*
X140839776Y-69216500D01*
X140820065Y-69214949D01*
X140807886Y-69213020D01*
X140800057Y-69211780D01*
X140792165Y-69212526D01*
X140756039Y-69215941D01*
X140744181Y-69216500D01*
X134934594Y-69216500D01*
X134866473Y-69196498D01*
X134845503Y-69179599D01*
X133905403Y-68239498D01*
X133871379Y-68177188D01*
X133868500Y-68150405D01*
X133868500Y-67857000D01*
X133888502Y-67788879D01*
X133942158Y-67742386D01*
X133994500Y-67731000D01*
X134206467Y-67731000D01*
X134268649Y-67724245D01*
X134405038Y-67673115D01*
X134521594Y-67585761D01*
X134526975Y-67578581D01*
X134531262Y-67574294D01*
X134593574Y-67540268D01*
X134664389Y-67545333D01*
X134709452Y-67574294D01*
X134725943Y-67590785D01*
X134828018Y-67667286D01*
X134843613Y-67675824D01*
X134964061Y-67720978D01*
X134979316Y-67724605D01*
X135030181Y-67730131D01*
X135036995Y-67730500D01*
X135732885Y-67730500D01*
X135748124Y-67726025D01*
X135749329Y-67724635D01*
X135751000Y-67716952D01*
X135751000Y-65354500D01*
X135771002Y-65286379D01*
X135824658Y-65239886D01*
X135877000Y-65228500D01*
X136133000Y-65228500D01*
X136201121Y-65248502D01*
X136247614Y-65302158D01*
X136259000Y-65354500D01*
X136259000Y-67712384D01*
X136263475Y-67727623D01*
X136264865Y-67728828D01*
X136272548Y-67730499D01*
X136973002Y-67730499D01*
X136979823Y-67730129D01*
X137030685Y-67724605D01*
X137045937Y-67720979D01*
X137166387Y-67675824D01*
X137181982Y-67667286D01*
X137284057Y-67590785D01*
X137300548Y-67574294D01*
X137362860Y-67540268D01*
X137433675Y-67545333D01*
X137478738Y-67574294D01*
X137483025Y-67578581D01*
X137488406Y-67585761D01*
X137604962Y-67673115D01*
X137741351Y-67724245D01*
X137803533Y-67731000D01*
X139746467Y-67731000D01*
X139808649Y-67724245D01*
X139945038Y-67673115D01*
X140061594Y-67585761D01*
X140148948Y-67469205D01*
X140200078Y-67332816D01*
X140206833Y-67270634D01*
X140206833Y-64209500D01*
X140226835Y-64141379D01*
X140280491Y-64094886D01*
X140332833Y-64083500D01*
X144070500Y-64083500D01*
X144138621Y-64103502D01*
G37*
%TD.AperFunction*%
%TA.AperFunction,Conductor*%
G36*
X92282012Y-74673870D02*
G01*
X92288594Y-74679998D01*
X92804532Y-75195937D01*
X93309595Y-75701000D01*
X93343621Y-75763312D01*
X93346500Y-75790095D01*
X93346500Y-81201233D01*
X93345973Y-81212416D01*
X93344298Y-81219909D01*
X93344547Y-81227835D01*
X93344547Y-81227836D01*
X93346438Y-81287986D01*
X93346500Y-81291945D01*
X93346500Y-81319856D01*
X93346997Y-81323790D01*
X93346997Y-81323791D01*
X93347005Y-81323856D01*
X93347938Y-81335693D01*
X93349327Y-81379889D01*
X93354978Y-81399339D01*
X93358987Y-81418700D01*
X93361526Y-81438797D01*
X93364445Y-81446168D01*
X93364445Y-81446170D01*
X93377804Y-81479912D01*
X93381649Y-81491142D01*
X93393982Y-81533593D01*
X93398015Y-81540412D01*
X93398017Y-81540417D01*
X93404293Y-81551028D01*
X93412988Y-81568776D01*
X93420448Y-81587617D01*
X93425110Y-81594033D01*
X93425110Y-81594034D01*
X93446436Y-81623387D01*
X93452952Y-81633307D01*
X93475458Y-81671362D01*
X93489779Y-81685683D01*
X93502619Y-81700716D01*
X93514528Y-81717107D01*
X93520634Y-81722158D01*
X93548605Y-81745298D01*
X93557384Y-81753288D01*
X101492234Y-89688138D01*
X101526260Y-89750450D01*
X101521195Y-89821265D01*
X101478648Y-89878101D01*
X101412128Y-89902912D01*
X101358910Y-89895215D01*
X101261051Y-89858529D01*
X101261045Y-89858527D01*
X101253649Y-89855755D01*
X101191467Y-89849000D01*
X99248533Y-89849000D01*
X99186351Y-89855755D01*
X99049962Y-89906885D01*
X98933406Y-89994239D01*
X98846052Y-90110795D01*
X98794922Y-90247184D01*
X98788167Y-90309366D01*
X98788167Y-91338000D01*
X98768165Y-91406121D01*
X98714509Y-91452614D01*
X98662167Y-91464000D01*
X97492095Y-91464000D01*
X97423974Y-91443998D01*
X97403000Y-91427095D01*
X92110405Y-86134500D01*
X92076379Y-86072188D01*
X92073500Y-86045405D01*
X92073500Y-74769094D01*
X92093502Y-74700973D01*
X92147158Y-74654480D01*
X92217432Y-74644376D01*
X92282012Y-74673870D01*
G37*
%TD.AperFunction*%
%TA.AperFunction,Conductor*%
G36*
X128975288Y-64103502D02*
G01*
X129021781Y-64157158D01*
X129033167Y-64209500D01*
X129033167Y-67270634D01*
X129039922Y-67332816D01*
X129091052Y-67469205D01*
X129178406Y-67585761D01*
X129294962Y-67673115D01*
X129431351Y-67724245D01*
X129493533Y-67731000D01*
X129705500Y-67731000D01*
X129773621Y-67751002D01*
X129820114Y-67804658D01*
X129831500Y-67857000D01*
X129831500Y-69426233D01*
X129830973Y-69437416D01*
X129829298Y-69444909D01*
X129829547Y-69452835D01*
X129829547Y-69452836D01*
X129831438Y-69512986D01*
X129831500Y-69516945D01*
X129831500Y-69544856D01*
X129831997Y-69548790D01*
X129831997Y-69548791D01*
X129832005Y-69548856D01*
X129832938Y-69560693D01*
X129834327Y-69604889D01*
X129839978Y-69624339D01*
X129843987Y-69643700D01*
X129846526Y-69663797D01*
X129849445Y-69671168D01*
X129849445Y-69671170D01*
X129862804Y-69704912D01*
X129866649Y-69716142D01*
X129878982Y-69758593D01*
X129883015Y-69765412D01*
X129883017Y-69765417D01*
X129889293Y-69776028D01*
X129897988Y-69793776D01*
X129905448Y-69812617D01*
X129910110Y-69819033D01*
X129910110Y-69819034D01*
X129931436Y-69848387D01*
X129937952Y-69858307D01*
X129960458Y-69896362D01*
X129974779Y-69910683D01*
X129987619Y-69925716D01*
X129999528Y-69942107D01*
X130005634Y-69947158D01*
X130033605Y-69970298D01*
X130042384Y-69978288D01*
X131541942Y-71477847D01*
X131575968Y-71540159D01*
X131570903Y-71610975D01*
X131526908Y-71668877D01*
X131468747Y-71711134D01*
X131464326Y-71716044D01*
X131464325Y-71716045D01*
X131364279Y-71827158D01*
X131340960Y-71853056D01*
X131245473Y-72018444D01*
X131186458Y-72200072D01*
X131166496Y-72390000D01*
X131186458Y-72579928D01*
X131245473Y-72761556D01*
X131340960Y-72926944D01*
X131414137Y-73008215D01*
X131444853Y-73072221D01*
X131446500Y-73092524D01*
X131446500Y-73345406D01*
X131426498Y-73413527D01*
X131409595Y-73434501D01*
X116447747Y-88396348D01*
X116439461Y-88403888D01*
X116432982Y-88408000D01*
X116427557Y-88413777D01*
X116386357Y-88457651D01*
X116383602Y-88460493D01*
X116363865Y-88480230D01*
X116361385Y-88483427D01*
X116353682Y-88492447D01*
X116323414Y-88524679D01*
X116319595Y-88531625D01*
X116319593Y-88531628D01*
X116313652Y-88542434D01*
X116302801Y-88558953D01*
X116290386Y-88574959D01*
X116287241Y-88582228D01*
X116287238Y-88582232D01*
X116272826Y-88615537D01*
X116267609Y-88626187D01*
X116246305Y-88664940D01*
X116244334Y-88672615D01*
X116244334Y-88672616D01*
X116241267Y-88684562D01*
X116234863Y-88703266D01*
X116226819Y-88721855D01*
X116225580Y-88729678D01*
X116225577Y-88729688D01*
X116219901Y-88765524D01*
X116217495Y-88777144D01*
X116206500Y-88819970D01*
X116206500Y-88840224D01*
X116204949Y-88859934D01*
X116201780Y-88879943D01*
X116202526Y-88887835D01*
X116205941Y-88923961D01*
X116206500Y-88935819D01*
X116206500Y-89723000D01*
X116186498Y-89791121D01*
X116132842Y-89837614D01*
X116080500Y-89849000D01*
X115868533Y-89849000D01*
X115806351Y-89855755D01*
X115669962Y-89906885D01*
X115553406Y-89994239D01*
X115548025Y-90001419D01*
X115544095Y-90005349D01*
X115481783Y-90039375D01*
X115410968Y-90034310D01*
X115365905Y-90005349D01*
X115361975Y-90001419D01*
X115356594Y-89994239D01*
X115240038Y-89906885D01*
X115103649Y-89855755D01*
X115041467Y-89849000D01*
X114829500Y-89849000D01*
X114761379Y-89828998D01*
X114714886Y-89775342D01*
X114703500Y-89723000D01*
X114703500Y-88174594D01*
X114723502Y-88106473D01*
X114740405Y-88085499D01*
X129490500Y-73335405D01*
X129552812Y-73301379D01*
X129579595Y-73298500D01*
X129635487Y-73298500D01*
X129641939Y-73297128D01*
X129641944Y-73297128D01*
X129728887Y-73278647D01*
X129822288Y-73258794D01*
X129835342Y-73252982D01*
X129990722Y-73183803D01*
X129990724Y-73183802D01*
X129996752Y-73181118D01*
X130006990Y-73173680D01*
X130062083Y-73133652D01*
X130151253Y-73068866D01*
X130171104Y-73046819D01*
X130274621Y-72931852D01*
X130274625Y-72931847D01*
X130279040Y-72926944D01*
X130374527Y-72761556D01*
X130433542Y-72579928D01*
X130453504Y-72390000D01*
X130433542Y-72200072D01*
X130374527Y-72018444D01*
X130279040Y-71853056D01*
X130255722Y-71827158D01*
X130155675Y-71716045D01*
X130155674Y-71716044D01*
X130151253Y-71711134D01*
X129996752Y-71598882D01*
X129990724Y-71596198D01*
X129990722Y-71596197D01*
X129828319Y-71523891D01*
X129828318Y-71523891D01*
X129822288Y-71521206D01*
X129709721Y-71497279D01*
X129641944Y-71482872D01*
X129641939Y-71482872D01*
X129635487Y-71481500D01*
X129444513Y-71481500D01*
X129438061Y-71482872D01*
X129438056Y-71482872D01*
X129370279Y-71497279D01*
X129257712Y-71521206D01*
X129251682Y-71523891D01*
X129251681Y-71523891D01*
X129089278Y-71596197D01*
X129089276Y-71596198D01*
X129083248Y-71598882D01*
X128928747Y-71711134D01*
X128924326Y-71716044D01*
X128924325Y-71716045D01*
X128824279Y-71827158D01*
X128800960Y-71853056D01*
X128705473Y-72018444D01*
X128646458Y-72200072D01*
X128645768Y-72206633D01*
X128645768Y-72206635D01*
X128629093Y-72365293D01*
X128602080Y-72430950D01*
X128592878Y-72441218D01*
X121131317Y-79902778D01*
X113677747Y-87356348D01*
X113669461Y-87363888D01*
X113662982Y-87368000D01*
X113657557Y-87373777D01*
X113616357Y-87417651D01*
X113613602Y-87420493D01*
X113593865Y-87440230D01*
X113591385Y-87443427D01*
X113583682Y-87452447D01*
X113553414Y-87484679D01*
X113549595Y-87491625D01*
X113549593Y-87491628D01*
X113543652Y-87502434D01*
X113532801Y-87518953D01*
X113520386Y-87534959D01*
X113517241Y-87542228D01*
X113517238Y-87542232D01*
X113502826Y-87575537D01*
X113497609Y-87586187D01*
X113476305Y-87624940D01*
X113474334Y-87632615D01*
X113474334Y-87632616D01*
X113471267Y-87644562D01*
X113464863Y-87663266D01*
X113456819Y-87681855D01*
X113455580Y-87689678D01*
X113455577Y-87689688D01*
X113449901Y-87725524D01*
X113447495Y-87737144D01*
X113436500Y-87779970D01*
X113436500Y-87800224D01*
X113434949Y-87819934D01*
X113431780Y-87839943D01*
X113432526Y-87847835D01*
X113435941Y-87883961D01*
X113436500Y-87895819D01*
X113436500Y-89723000D01*
X113416498Y-89791121D01*
X113362842Y-89837614D01*
X113310500Y-89849000D01*
X113098533Y-89849000D01*
X113036351Y-89855755D01*
X112899962Y-89906885D01*
X112783406Y-89994239D01*
X112778025Y-90001419D01*
X112774095Y-90005349D01*
X112711783Y-90039375D01*
X112640968Y-90034310D01*
X112595905Y-90005349D01*
X112591975Y-90001419D01*
X112586594Y-89994239D01*
X112470038Y-89906885D01*
X112333649Y-89855755D01*
X112271467Y-89849000D01*
X112059500Y-89849000D01*
X111991379Y-89828998D01*
X111944886Y-89775342D01*
X111933500Y-89723000D01*
X111933500Y-73278767D01*
X111934027Y-73267584D01*
X111935702Y-73260091D01*
X111933562Y-73192014D01*
X111933500Y-73188055D01*
X111933500Y-73160144D01*
X111932995Y-73156144D01*
X111932062Y-73144301D01*
X111931728Y-73133652D01*
X111930673Y-73100110D01*
X111925022Y-73080658D01*
X111921014Y-73061306D01*
X111919467Y-73049063D01*
X111918474Y-73041203D01*
X111912653Y-73026500D01*
X111902200Y-73000097D01*
X111898355Y-72988870D01*
X111894979Y-72977251D01*
X111886018Y-72946407D01*
X111881984Y-72939585D01*
X111881981Y-72939579D01*
X111875706Y-72928968D01*
X111867010Y-72911218D01*
X111862472Y-72899756D01*
X111862469Y-72899751D01*
X111859552Y-72892383D01*
X111833573Y-72856625D01*
X111827057Y-72846707D01*
X111808575Y-72815457D01*
X111804542Y-72808637D01*
X111790218Y-72794313D01*
X111777376Y-72779278D01*
X111765472Y-72762893D01*
X111731406Y-72734711D01*
X111722627Y-72726722D01*
X110167122Y-71171217D01*
X110133096Y-71108905D01*
X110130907Y-71095292D01*
X110127621Y-71064022D01*
X110121142Y-71002383D01*
X110114232Y-70936635D01*
X110114232Y-70936633D01*
X110113542Y-70930072D01*
X110054527Y-70748444D01*
X109959040Y-70583056D01*
X109944798Y-70567238D01*
X109835675Y-70446045D01*
X109835674Y-70446044D01*
X109831253Y-70441134D01*
X109676752Y-70328882D01*
X109670724Y-70326198D01*
X109670722Y-70326197D01*
X109508319Y-70253891D01*
X109508318Y-70253891D01*
X109502288Y-70251206D01*
X109408888Y-70231353D01*
X109321944Y-70212872D01*
X109321939Y-70212872D01*
X109315487Y-70211500D01*
X109124513Y-70211500D01*
X109118061Y-70212872D01*
X109118056Y-70212872D01*
X109031112Y-70231353D01*
X108937712Y-70251206D01*
X108931682Y-70253891D01*
X108931681Y-70253891D01*
X108769278Y-70326197D01*
X108769276Y-70326198D01*
X108763248Y-70328882D01*
X108608747Y-70441134D01*
X108604326Y-70446044D01*
X108604325Y-70446045D01*
X108495203Y-70567238D01*
X108480960Y-70583056D01*
X108385473Y-70748444D01*
X108326458Y-70930072D01*
X108325768Y-70936633D01*
X108325768Y-70936635D01*
X108310707Y-71079935D01*
X108306496Y-71120000D01*
X108307186Y-71126565D01*
X108322277Y-71270144D01*
X108326458Y-71309928D01*
X108385473Y-71491556D01*
X108480960Y-71656944D01*
X108485378Y-71661851D01*
X108485379Y-71661852D01*
X108526258Y-71707253D01*
X108608747Y-71798866D01*
X108763248Y-71911118D01*
X108769276Y-71913802D01*
X108769278Y-71913803D01*
X108931681Y-71986109D01*
X108937712Y-71988794D01*
X109031112Y-72008647D01*
X109118056Y-72027128D01*
X109118061Y-72027128D01*
X109124513Y-72028500D01*
X109180406Y-72028500D01*
X109248527Y-72048502D01*
X109269501Y-72065405D01*
X110629595Y-73425499D01*
X110663621Y-73487811D01*
X110666500Y-73514594D01*
X110666500Y-89723000D01*
X110646498Y-89791121D01*
X110592842Y-89837614D01*
X110540500Y-89849000D01*
X110328533Y-89849000D01*
X110266351Y-89855755D01*
X110129962Y-89906885D01*
X110013406Y-89994239D01*
X110008025Y-90001419D01*
X110004095Y-90005349D01*
X109941783Y-90039375D01*
X109870968Y-90034310D01*
X109825905Y-90005349D01*
X109821975Y-90001419D01*
X109816594Y-89994239D01*
X109700038Y-89906885D01*
X109563649Y-89855755D01*
X109501467Y-89849000D01*
X109289500Y-89849000D01*
X109221379Y-89828998D01*
X109174886Y-89775342D01*
X109163500Y-89723000D01*
X109163500Y-74428767D01*
X109164027Y-74417584D01*
X109165702Y-74410091D01*
X109163562Y-74342000D01*
X109163500Y-74338043D01*
X109163500Y-74310144D01*
X109162996Y-74306153D01*
X109162063Y-74294311D01*
X109162046Y-74293748D01*
X109160674Y-74250111D01*
X109158462Y-74242497D01*
X109158461Y-74242492D01*
X109155023Y-74230659D01*
X109151012Y-74211295D01*
X109149467Y-74199064D01*
X109148474Y-74191203D01*
X109145557Y-74183836D01*
X109145556Y-74183831D01*
X109132198Y-74150092D01*
X109128354Y-74138865D01*
X109118230Y-74104022D01*
X109116018Y-74096407D01*
X109107841Y-74082580D01*
X109105707Y-74078972D01*
X109097012Y-74061224D01*
X109089552Y-74042383D01*
X109065213Y-74008882D01*
X109063564Y-74006613D01*
X109057048Y-73996693D01*
X109038580Y-73965465D01*
X109038578Y-73965462D01*
X109034542Y-73958638D01*
X109020221Y-73944317D01*
X109007380Y-73929283D01*
X109000131Y-73919306D01*
X108995472Y-73912893D01*
X108961395Y-73884702D01*
X108952616Y-73876712D01*
X105803652Y-70727747D01*
X105796112Y-70719461D01*
X105792000Y-70712982D01*
X105742348Y-70666356D01*
X105739507Y-70663602D01*
X105719770Y-70643865D01*
X105716573Y-70641385D01*
X105707551Y-70633680D01*
X105675321Y-70603414D01*
X105668375Y-70599595D01*
X105668372Y-70599593D01*
X105657566Y-70593652D01*
X105641047Y-70582801D01*
X105640583Y-70582441D01*
X105625041Y-70570386D01*
X105617772Y-70567241D01*
X105617768Y-70567238D01*
X105584463Y-70552826D01*
X105573813Y-70547609D01*
X105535060Y-70526305D01*
X105515437Y-70521267D01*
X105496734Y-70514863D01*
X105485420Y-70509967D01*
X105485419Y-70509967D01*
X105478145Y-70506819D01*
X105470322Y-70505580D01*
X105470312Y-70505577D01*
X105434476Y-70499901D01*
X105422856Y-70497495D01*
X105387711Y-70488472D01*
X105387710Y-70488472D01*
X105380030Y-70486500D01*
X105359776Y-70486500D01*
X105340065Y-70484949D01*
X105327886Y-70483020D01*
X105320057Y-70481780D01*
X105312165Y-70482526D01*
X105276039Y-70485941D01*
X105264181Y-70486500D01*
X104848200Y-70486500D01*
X104780079Y-70466498D01*
X104760853Y-70450157D01*
X104760580Y-70450460D01*
X104755668Y-70446037D01*
X104751253Y-70441134D01*
X104596752Y-70328882D01*
X104590724Y-70326198D01*
X104590722Y-70326197D01*
X104428319Y-70253891D01*
X104428318Y-70253891D01*
X104422288Y-70251206D01*
X104328888Y-70231353D01*
X104241944Y-70212872D01*
X104241939Y-70212872D01*
X104235487Y-70211500D01*
X104044513Y-70211500D01*
X104038061Y-70212872D01*
X104038056Y-70212872D01*
X103951112Y-70231353D01*
X103857712Y-70251206D01*
X103851682Y-70253891D01*
X103851681Y-70253891D01*
X103689278Y-70326197D01*
X103689276Y-70326198D01*
X103683248Y-70328882D01*
X103528747Y-70441134D01*
X103524326Y-70446044D01*
X103524325Y-70446045D01*
X103415203Y-70567238D01*
X103400960Y-70583056D01*
X103305473Y-70748444D01*
X103246458Y-70930072D01*
X103245768Y-70936633D01*
X103245768Y-70936635D01*
X103230707Y-71079935D01*
X103226496Y-71120000D01*
X103227186Y-71126565D01*
X103242277Y-71270144D01*
X103246458Y-71309928D01*
X103305473Y-71491556D01*
X103400960Y-71656944D01*
X103405378Y-71661851D01*
X103405379Y-71661852D01*
X103509220Y-71777179D01*
X103515734Y-71790751D01*
X103515843Y-71790775D01*
X103529519Y-71799427D01*
X103639730Y-71879500D01*
X103683248Y-71911118D01*
X103689276Y-71913802D01*
X103689278Y-71913803D01*
X103851681Y-71986109D01*
X103857712Y-71988794D01*
X103951112Y-72008647D01*
X104038056Y-72027128D01*
X104038061Y-72027128D01*
X104044513Y-72028500D01*
X104235487Y-72028500D01*
X104241939Y-72027128D01*
X104241944Y-72027128D01*
X104328888Y-72008647D01*
X104422288Y-71988794D01*
X104428319Y-71986109D01*
X104590722Y-71913803D01*
X104590724Y-71913802D01*
X104596752Y-71911118D01*
X104683423Y-71848148D01*
X104740865Y-71806413D01*
X104751253Y-71798866D01*
X104755668Y-71793963D01*
X104760580Y-71789540D01*
X104761705Y-71790789D01*
X104815014Y-71757949D01*
X104848200Y-71753500D01*
X104985406Y-71753500D01*
X105053527Y-71773502D01*
X105074501Y-71790405D01*
X107859595Y-74575500D01*
X107893621Y-74637812D01*
X107896500Y-74664595D01*
X107896500Y-89723000D01*
X107876498Y-89791121D01*
X107822842Y-89837614D01*
X107770500Y-89849000D01*
X107558533Y-89849000D01*
X107496351Y-89855755D01*
X107359962Y-89906885D01*
X107243406Y-89994239D01*
X107238025Y-90001419D01*
X107234095Y-90005349D01*
X107171783Y-90039375D01*
X107100968Y-90034310D01*
X107055905Y-90005349D01*
X107051975Y-90001419D01*
X107046594Y-89994239D01*
X106930038Y-89906885D01*
X106793649Y-89855755D01*
X106731467Y-89849000D01*
X106519500Y-89849000D01*
X106451379Y-89828998D01*
X106404886Y-89775342D01*
X106393500Y-89723000D01*
X106393500Y-75358763D01*
X106394027Y-75347579D01*
X106395701Y-75340091D01*
X106393562Y-75272032D01*
X106393500Y-75268075D01*
X106393500Y-75240144D01*
X106392994Y-75236138D01*
X106392061Y-75224292D01*
X106390922Y-75188037D01*
X106390673Y-75180110D01*
X106385022Y-75160658D01*
X106381014Y-75141306D01*
X106379468Y-75129068D01*
X106379467Y-75129066D01*
X106378474Y-75121203D01*
X106362194Y-75080086D01*
X106358359Y-75068885D01*
X106346018Y-75026406D01*
X106341985Y-75019587D01*
X106341983Y-75019582D01*
X106335707Y-75008971D01*
X106327010Y-74991221D01*
X106319552Y-74972383D01*
X106293571Y-74936623D01*
X106287053Y-74926701D01*
X106268578Y-74895460D01*
X106268574Y-74895455D01*
X106264542Y-74888637D01*
X106250218Y-74874313D01*
X106237376Y-74859278D01*
X106225472Y-74842893D01*
X106191406Y-74814711D01*
X106182627Y-74806722D01*
X103366363Y-71990458D01*
X103355398Y-71970377D01*
X103349494Y-71968765D01*
X103326489Y-71950584D01*
X102103652Y-70727747D01*
X102096112Y-70719461D01*
X102092000Y-70712982D01*
X102042348Y-70666356D01*
X102039507Y-70663602D01*
X102019770Y-70643865D01*
X102016573Y-70641385D01*
X102007551Y-70633680D01*
X101975321Y-70603414D01*
X101968375Y-70599595D01*
X101968372Y-70599593D01*
X101957566Y-70593652D01*
X101941047Y-70582801D01*
X101940583Y-70582441D01*
X101925041Y-70570386D01*
X101917772Y-70567241D01*
X101917768Y-70567238D01*
X101884463Y-70552826D01*
X101873813Y-70547609D01*
X101835060Y-70526305D01*
X101815437Y-70521267D01*
X101796734Y-70514863D01*
X101785420Y-70509967D01*
X101785419Y-70509967D01*
X101778145Y-70506819D01*
X101770322Y-70505580D01*
X101770312Y-70505577D01*
X101734476Y-70499901D01*
X101722856Y-70497495D01*
X101687711Y-70488472D01*
X101687710Y-70488472D01*
X101680030Y-70486500D01*
X101659776Y-70486500D01*
X101640065Y-70484949D01*
X101627886Y-70483020D01*
X101620057Y-70481780D01*
X101612165Y-70482526D01*
X101576039Y-70485941D01*
X101564181Y-70486500D01*
X97228200Y-70486500D01*
X97160079Y-70466498D01*
X97140853Y-70450157D01*
X97140580Y-70450460D01*
X97135668Y-70446037D01*
X97131253Y-70441134D01*
X96976752Y-70328882D01*
X96970724Y-70326198D01*
X96970722Y-70326197D01*
X96808319Y-70253891D01*
X96808318Y-70253891D01*
X96802288Y-70251206D01*
X96708888Y-70231353D01*
X96621944Y-70212872D01*
X96621939Y-70212872D01*
X96615487Y-70211500D01*
X96424513Y-70211500D01*
X96418061Y-70212872D01*
X96418056Y-70212872D01*
X96331112Y-70231353D01*
X96237712Y-70251206D01*
X96231682Y-70253891D01*
X96231681Y-70253891D01*
X96069278Y-70326197D01*
X96069276Y-70326198D01*
X96063248Y-70328882D01*
X96057907Y-70332762D01*
X96057906Y-70332763D01*
X95909516Y-70440575D01*
X95903451Y-70442739D01*
X95889232Y-70462808D01*
X95780960Y-70583056D01*
X95685473Y-70748444D01*
X95626458Y-70930072D01*
X95625768Y-70936633D01*
X95625768Y-70936635D01*
X95610707Y-71079935D01*
X95606496Y-71120000D01*
X95607186Y-71126565D01*
X95622277Y-71270144D01*
X95626458Y-71309928D01*
X95685473Y-71491556D01*
X95780960Y-71656944D01*
X95785378Y-71661851D01*
X95785379Y-71661852D01*
X95826258Y-71707253D01*
X95908747Y-71798866D01*
X96063248Y-71911118D01*
X96069276Y-71913802D01*
X96069278Y-71913803D01*
X96231681Y-71986109D01*
X96237712Y-71988794D01*
X96331112Y-72008647D01*
X96418056Y-72027128D01*
X96418061Y-72027128D01*
X96424513Y-72028500D01*
X96615487Y-72028500D01*
X96621939Y-72027128D01*
X96621944Y-72027128D01*
X96708888Y-72008647D01*
X96802288Y-71988794D01*
X96808319Y-71986109D01*
X96970722Y-71913803D01*
X96970724Y-71913802D01*
X96976752Y-71911118D01*
X97063423Y-71848148D01*
X97120865Y-71806413D01*
X97131253Y-71798866D01*
X97135668Y-71793963D01*
X97140580Y-71789540D01*
X97141705Y-71790789D01*
X97195014Y-71757949D01*
X97228200Y-71753500D01*
X101285406Y-71753500D01*
X101353527Y-71773502D01*
X101374501Y-71790405D01*
X105089595Y-75505499D01*
X105123621Y-75567811D01*
X105126500Y-75594594D01*
X105126500Y-89723000D01*
X105106498Y-89791121D01*
X105052842Y-89837614D01*
X105000500Y-89849000D01*
X104788533Y-89849000D01*
X104726351Y-89855755D01*
X104589962Y-89906885D01*
X104473406Y-89994239D01*
X104468025Y-90001419D01*
X104464095Y-90005349D01*
X104401783Y-90039375D01*
X104330968Y-90034310D01*
X104285905Y-90005349D01*
X104281975Y-90001419D01*
X104276594Y-89994239D01*
X104160038Y-89906885D01*
X104023649Y-89855755D01*
X103961467Y-89849000D01*
X103497095Y-89849000D01*
X103428974Y-89828998D01*
X103408000Y-89812095D01*
X98022404Y-84426499D01*
X97988378Y-84364187D01*
X97993443Y-84293372D01*
X98035990Y-84236536D01*
X98102510Y-84211725D01*
X98171040Y-84226360D01*
X98259847Y-84273978D01*
X98269099Y-84278020D01*
X98488971Y-84353727D01*
X98498743Y-84356236D01*
X98728971Y-84396004D01*
X98736843Y-84396859D01*
X98760551Y-84397936D01*
X98763384Y-84398000D01*
X99697885Y-84398000D01*
X99713124Y-84393525D01*
X99714329Y-84392135D01*
X99716000Y-84384452D01*
X99716000Y-84379885D01*
X100224000Y-84379885D01*
X100228475Y-84395124D01*
X100229865Y-84396329D01*
X100237548Y-84398000D01*
X101128456Y-84398000D01*
X101133488Y-84397798D01*
X101306843Y-84383850D01*
X101316796Y-84382238D01*
X101542633Y-84326767D01*
X101552203Y-84323584D01*
X101766265Y-84232720D01*
X101775207Y-84228045D01*
X101971987Y-84104126D01*
X101980060Y-84098086D01*
X102154500Y-83944297D01*
X102161504Y-83937044D01*
X102309110Y-83757346D01*
X102314866Y-83749064D01*
X102431841Y-83548081D01*
X102436203Y-83538976D01*
X102519537Y-83321885D01*
X102522388Y-83312196D01*
X102553821Y-83161736D01*
X102552698Y-83147675D01*
X102542590Y-83144000D01*
X100242115Y-83144000D01*
X100226876Y-83148475D01*
X100225671Y-83149865D01*
X100224000Y-83157548D01*
X100224000Y-84379885D01*
X99716000Y-84379885D01*
X99716000Y-83162115D01*
X99711525Y-83146876D01*
X99710135Y-83145671D01*
X99702452Y-83144000D01*
X97399410Y-83144000D01*
X97385324Y-83148136D01*
X97383275Y-83161114D01*
X97385325Y-83178830D01*
X97387285Y-83188727D01*
X97450604Y-83412494D01*
X97454116Y-83421938D01*
X97533311Y-83591771D01*
X97543972Y-83661962D01*
X97514992Y-83726775D01*
X97455573Y-83765632D01*
X97384578Y-83766195D01*
X97330021Y-83734116D01*
X96214169Y-82618264D01*
X97386179Y-82618264D01*
X97387302Y-82632325D01*
X97397410Y-82636000D01*
X99697885Y-82636000D01*
X99713124Y-82631525D01*
X99714329Y-82630135D01*
X99716000Y-82622452D01*
X99716000Y-82617885D01*
X100224000Y-82617885D01*
X100228475Y-82633124D01*
X100229865Y-82634329D01*
X100237548Y-82636000D01*
X102540590Y-82636000D01*
X102554676Y-82631864D01*
X102556725Y-82618886D01*
X102554675Y-82601170D01*
X102552715Y-82591273D01*
X102489396Y-82367506D01*
X102485884Y-82358062D01*
X102387601Y-82147295D01*
X102382622Y-82138529D01*
X102251913Y-81946198D01*
X102245581Y-81938323D01*
X102085814Y-81769374D01*
X102078305Y-81762613D01*
X101893574Y-81621375D01*
X101885095Y-81615911D01*
X101680153Y-81506022D01*
X101670901Y-81501980D01*
X101451029Y-81426273D01*
X101441257Y-81423764D01*
X101211029Y-81383996D01*
X101203157Y-81383141D01*
X101179449Y-81382064D01*
X101176616Y-81382000D01*
X100242115Y-81382000D01*
X100226876Y-81386475D01*
X100225671Y-81387865D01*
X100224000Y-81395548D01*
X100224000Y-82617885D01*
X99716000Y-82617885D01*
X99716000Y-81400115D01*
X99711525Y-81384876D01*
X99710135Y-81383671D01*
X99702452Y-81382000D01*
X98811544Y-81382000D01*
X98806512Y-81382202D01*
X98633157Y-81396150D01*
X98623204Y-81397762D01*
X98397367Y-81453233D01*
X98387797Y-81456416D01*
X98173735Y-81547280D01*
X98164793Y-81551955D01*
X97968013Y-81675874D01*
X97959940Y-81681914D01*
X97785500Y-81835703D01*
X97778496Y-81842956D01*
X97630890Y-82022654D01*
X97625134Y-82030936D01*
X97508159Y-82231919D01*
X97503797Y-82241024D01*
X97420463Y-82458115D01*
X97417612Y-82467804D01*
X97386179Y-82618264D01*
X96214169Y-82618264D01*
X94650405Y-81054500D01*
X94616379Y-80992188D01*
X94613500Y-80965405D01*
X94613500Y-79248456D01*
X95062000Y-79248456D01*
X95062202Y-79253488D01*
X95076150Y-79426843D01*
X95077762Y-79436796D01*
X95133233Y-79662633D01*
X95136416Y-79672203D01*
X95227280Y-79886265D01*
X95231955Y-79895207D01*
X95355874Y-80091987D01*
X95361914Y-80100060D01*
X95515703Y-80274500D01*
X95522956Y-80281504D01*
X95702654Y-80429110D01*
X95710936Y-80434866D01*
X95911919Y-80551841D01*
X95921024Y-80556203D01*
X96138115Y-80639537D01*
X96147804Y-80642388D01*
X96298264Y-80673821D01*
X96312325Y-80672698D01*
X96316000Y-80662590D01*
X96316000Y-80660590D01*
X96824000Y-80660590D01*
X96828136Y-80674676D01*
X96841114Y-80676725D01*
X96858830Y-80674675D01*
X96868727Y-80672715D01*
X97092494Y-80609396D01*
X97101938Y-80605884D01*
X97312705Y-80507601D01*
X97321471Y-80502622D01*
X97513802Y-80371913D01*
X97521677Y-80365581D01*
X97690626Y-80205814D01*
X97697387Y-80198305D01*
X97838625Y-80013574D01*
X97844089Y-80005095D01*
X97953978Y-79800153D01*
X97958020Y-79790901D01*
X98033727Y-79571029D01*
X98036236Y-79561257D01*
X98076004Y-79331029D01*
X98076859Y-79323157D01*
X98077936Y-79299449D01*
X98078000Y-79296616D01*
X98078000Y-78362115D01*
X98073525Y-78346876D01*
X98072135Y-78345671D01*
X98064452Y-78344000D01*
X96842115Y-78344000D01*
X96826876Y-78348475D01*
X96825671Y-78349865D01*
X96824000Y-78357548D01*
X96824000Y-80660590D01*
X96316000Y-80660590D01*
X96316000Y-78362115D01*
X96311525Y-78346876D01*
X96310135Y-78345671D01*
X96302452Y-78344000D01*
X95080115Y-78344000D01*
X95064876Y-78348475D01*
X95063671Y-78349865D01*
X95062000Y-78357548D01*
X95062000Y-79248456D01*
X94613500Y-79248456D01*
X94613500Y-77817885D01*
X95062000Y-77817885D01*
X95066475Y-77833124D01*
X95067865Y-77834329D01*
X95075548Y-77836000D01*
X96297885Y-77836000D01*
X96313124Y-77831525D01*
X96314329Y-77830135D01*
X96316000Y-77822452D01*
X96316000Y-77817885D01*
X96824000Y-77817885D01*
X96828475Y-77833124D01*
X96829865Y-77834329D01*
X96837548Y-77836000D01*
X98059885Y-77836000D01*
X98075124Y-77831525D01*
X98076329Y-77830135D01*
X98078000Y-77822452D01*
X98078000Y-76931544D01*
X98077798Y-76926512D01*
X98063850Y-76753157D01*
X98062238Y-76743204D01*
X98006767Y-76517367D01*
X98003584Y-76507797D01*
X97912720Y-76293735D01*
X97908045Y-76284793D01*
X97784126Y-76088013D01*
X97778086Y-76079940D01*
X97624297Y-75905500D01*
X97617044Y-75898496D01*
X97437346Y-75750890D01*
X97429064Y-75745134D01*
X97228081Y-75628159D01*
X97218976Y-75623797D01*
X97001885Y-75540463D01*
X96992196Y-75537612D01*
X96841736Y-75506179D01*
X96827675Y-75507302D01*
X96824000Y-75517410D01*
X96824000Y-77817885D01*
X96316000Y-77817885D01*
X96316000Y-75519410D01*
X96311864Y-75505324D01*
X96298886Y-75503275D01*
X96281170Y-75505325D01*
X96271273Y-75507285D01*
X96047506Y-75570604D01*
X96038062Y-75574116D01*
X95827295Y-75672399D01*
X95818529Y-75677378D01*
X95626198Y-75808087D01*
X95618323Y-75814419D01*
X95449374Y-75974186D01*
X95442613Y-75981695D01*
X95301375Y-76166426D01*
X95295911Y-76174905D01*
X95186022Y-76379847D01*
X95181980Y-76389099D01*
X95106273Y-76608971D01*
X95103764Y-76618743D01*
X95063996Y-76848971D01*
X95063141Y-76856843D01*
X95062064Y-76880551D01*
X95062000Y-76883384D01*
X95062000Y-77817885D01*
X94613500Y-77817885D01*
X94613500Y-75554268D01*
X94614027Y-75543085D01*
X94615702Y-75535592D01*
X94615194Y-75519410D01*
X94613562Y-75467502D01*
X94613500Y-75463544D01*
X94613500Y-75435644D01*
X94612996Y-75431653D01*
X94612063Y-75419811D01*
X94610923Y-75383536D01*
X94610674Y-75375611D01*
X94608462Y-75367997D01*
X94608461Y-75367992D01*
X94605023Y-75356159D01*
X94601012Y-75336795D01*
X94599467Y-75324564D01*
X94598474Y-75316703D01*
X94595557Y-75309336D01*
X94595556Y-75309331D01*
X94582198Y-75275592D01*
X94578354Y-75264365D01*
X94572466Y-75244099D01*
X94566018Y-75221907D01*
X94555707Y-75204472D01*
X94547012Y-75186724D01*
X94539552Y-75167883D01*
X94513564Y-75132113D01*
X94507048Y-75122193D01*
X94488580Y-75090965D01*
X94488578Y-75090962D01*
X94484542Y-75084138D01*
X94470221Y-75069817D01*
X94457380Y-75054783D01*
X94450131Y-75044806D01*
X94445472Y-75038393D01*
X94411395Y-75010202D01*
X94402626Y-75002222D01*
X93909340Y-74508935D01*
X93875315Y-74446624D01*
X93880380Y-74375808D01*
X93922927Y-74318973D01*
X93990530Y-74294090D01*
X93995975Y-74293747D01*
X94003862Y-74293500D01*
X99425406Y-74293500D01*
X99493527Y-74313502D01*
X99514501Y-74330405D01*
X101324595Y-76140499D01*
X101358621Y-76202811D01*
X101361500Y-76229594D01*
X101361500Y-80438134D01*
X101368255Y-80500316D01*
X101419385Y-80636705D01*
X101506739Y-80753261D01*
X101623295Y-80840615D01*
X101759684Y-80891745D01*
X101821866Y-80898500D01*
X103918134Y-80898500D01*
X103980316Y-80891745D01*
X104116705Y-80840615D01*
X104233261Y-80753261D01*
X104320615Y-80636705D01*
X104371745Y-80500316D01*
X104378500Y-80438134D01*
X104378500Y-75741866D01*
X104371745Y-75679684D01*
X104320615Y-75543295D01*
X104233261Y-75426739D01*
X104116705Y-75339385D01*
X103980316Y-75288255D01*
X103918134Y-75281500D01*
X102309595Y-75281500D01*
X102241474Y-75261498D01*
X102220500Y-75244595D01*
X100243652Y-73267747D01*
X100236112Y-73259461D01*
X100232000Y-73252982D01*
X100182348Y-73206356D01*
X100179507Y-73203602D01*
X100159770Y-73183865D01*
X100156573Y-73181385D01*
X100147551Y-73173680D01*
X100121100Y-73148841D01*
X100115321Y-73143414D01*
X100108375Y-73139595D01*
X100108372Y-73139593D01*
X100097566Y-73133652D01*
X100081047Y-73122801D01*
X100075048Y-73118148D01*
X100065041Y-73110386D01*
X100057772Y-73107241D01*
X100057768Y-73107238D01*
X100024463Y-73092826D01*
X100013813Y-73087609D01*
X99975060Y-73066305D01*
X99965908Y-73063955D01*
X99955438Y-73061267D01*
X99936734Y-73054863D01*
X99925420Y-73049967D01*
X99925419Y-73049967D01*
X99918145Y-73046819D01*
X99910322Y-73045580D01*
X99910312Y-73045577D01*
X99874476Y-73039901D01*
X99862856Y-73037495D01*
X99827711Y-73028472D01*
X99827710Y-73028472D01*
X99820030Y-73026500D01*
X99799776Y-73026500D01*
X99780065Y-73024949D01*
X99767886Y-73023020D01*
X99760057Y-73021780D01*
X99752165Y-73022526D01*
X99716039Y-73025941D01*
X99704181Y-73026500D01*
X94739500Y-73026500D01*
X94671379Y-73006498D01*
X94624886Y-72952842D01*
X94613500Y-72900500D01*
X94613500Y-71434594D01*
X94633502Y-71366473D01*
X94650405Y-71345499D01*
X95706495Y-70289410D01*
X95729851Y-70276656D01*
X95735675Y-70261697D01*
X95746360Y-70249544D01*
X96352205Y-69643700D01*
X98067253Y-67928652D01*
X98075539Y-67921112D01*
X98082018Y-67917000D01*
X98128644Y-67867348D01*
X98131398Y-67864507D01*
X98151135Y-67844770D01*
X98153615Y-67841573D01*
X98161320Y-67832551D01*
X98186159Y-67806100D01*
X98191586Y-67800321D01*
X98195405Y-67793375D01*
X98200065Y-67786961D01*
X98201871Y-67788273D01*
X98244138Y-67746243D01*
X98304212Y-67731000D01*
X98646467Y-67731000D01*
X98708649Y-67724245D01*
X98845038Y-67673115D01*
X98961594Y-67585761D01*
X98966975Y-67578581D01*
X98971262Y-67574294D01*
X99033574Y-67540268D01*
X99104389Y-67545333D01*
X99149452Y-67574294D01*
X99165943Y-67590785D01*
X99268018Y-67667286D01*
X99283613Y-67675824D01*
X99404061Y-67720978D01*
X99419316Y-67724605D01*
X99470181Y-67730131D01*
X99476995Y-67730500D01*
X100172885Y-67730500D01*
X100188124Y-67726025D01*
X100189329Y-67724635D01*
X100191000Y-67716952D01*
X100191000Y-65354500D01*
X100211002Y-65286379D01*
X100264658Y-65239886D01*
X100317000Y-65228500D01*
X100573000Y-65228500D01*
X100641121Y-65248502D01*
X100687614Y-65302158D01*
X100699000Y-65354500D01*
X100699000Y-67712384D01*
X100703475Y-67727623D01*
X100704865Y-67728828D01*
X100712548Y-67730499D01*
X101413002Y-67730499D01*
X101419823Y-67730129D01*
X101470685Y-67724605D01*
X101485937Y-67720979D01*
X101606387Y-67675824D01*
X101621982Y-67667286D01*
X101724057Y-67590785D01*
X101740548Y-67574294D01*
X101802860Y-67540268D01*
X101873675Y-67545333D01*
X101918738Y-67574294D01*
X101923025Y-67578581D01*
X101928406Y-67585761D01*
X102044962Y-67673115D01*
X102181351Y-67724245D01*
X102243533Y-67731000D01*
X104186467Y-67731000D01*
X104248649Y-67724245D01*
X104385038Y-67673115D01*
X104501594Y-67585761D01*
X104588948Y-67469205D01*
X104640078Y-67332816D01*
X104646833Y-67270634D01*
X104646833Y-64209500D01*
X104666835Y-64141379D01*
X104720491Y-64094886D01*
X104772833Y-64083500D01*
X128907167Y-64083500D01*
X128975288Y-64103502D01*
G37*
%TD.AperFunction*%
%TA.AperFunction,Conductor*%
G36*
X133788321Y-71773502D02*
G01*
X133834814Y-71827158D01*
X133844918Y-71897432D01*
X133829319Y-71942500D01*
X133802591Y-71988794D01*
X133785473Y-72018444D01*
X133726458Y-72200072D01*
X133706496Y-72390000D01*
X133726458Y-72579928D01*
X133785473Y-72761556D01*
X133880960Y-72926944D01*
X133954137Y-73008215D01*
X133984853Y-73072221D01*
X133986500Y-73092524D01*
X133986500Y-75956238D01*
X133966498Y-76024359D01*
X133949595Y-76045333D01*
X132359053Y-77635874D01*
X126260812Y-83734116D01*
X120182833Y-89812095D01*
X120120521Y-89846121D01*
X120093738Y-89849000D01*
X118638533Y-89849000D01*
X118576351Y-89855755D01*
X118439962Y-89906885D01*
X118323406Y-89994239D01*
X118318025Y-90001419D01*
X118314095Y-90005349D01*
X118251783Y-90039375D01*
X118180968Y-90034310D01*
X118135905Y-90005349D01*
X118131975Y-90001419D01*
X118126594Y-89994239D01*
X118010038Y-89906885D01*
X117873649Y-89855755D01*
X117811467Y-89849000D01*
X117599500Y-89849000D01*
X117531379Y-89828998D01*
X117484886Y-89775342D01*
X117473500Y-89723000D01*
X117473500Y-89214594D01*
X117493502Y-89146473D01*
X117510405Y-89125499D01*
X132472247Y-74163657D01*
X132480537Y-74156113D01*
X132487018Y-74152000D01*
X132499353Y-74138865D01*
X132533658Y-74102333D01*
X132536413Y-74099491D01*
X132556135Y-74079769D01*
X132558619Y-74076567D01*
X132566317Y-74067555D01*
X132591161Y-74041098D01*
X132596586Y-74035321D01*
X132606347Y-74017566D01*
X132617198Y-74001047D01*
X132629614Y-73985041D01*
X132647174Y-73944463D01*
X132652391Y-73933813D01*
X132673695Y-73895060D01*
X132676355Y-73884702D01*
X132678733Y-73875438D01*
X132685137Y-73856734D01*
X132690033Y-73845420D01*
X132690033Y-73845419D01*
X132693181Y-73838145D01*
X132694420Y-73830322D01*
X132694423Y-73830312D01*
X132700099Y-73794476D01*
X132702505Y-73782856D01*
X132711528Y-73747711D01*
X132711528Y-73747710D01*
X132713500Y-73740030D01*
X132713500Y-73719776D01*
X132715051Y-73700065D01*
X132716980Y-73687886D01*
X132718220Y-73680057D01*
X132714059Y-73636038D01*
X132713500Y-73624181D01*
X132713500Y-73092524D01*
X132733502Y-73024403D01*
X132745858Y-73008221D01*
X132819040Y-72926944D01*
X132914527Y-72761556D01*
X132973542Y-72579928D01*
X132993504Y-72390000D01*
X132973542Y-72200072D01*
X132914527Y-72018444D01*
X132897409Y-71988794D01*
X132870681Y-71942500D01*
X132853943Y-71873504D01*
X132877164Y-71806413D01*
X132932971Y-71762526D01*
X132979800Y-71753500D01*
X133720200Y-71753500D01*
X133788321Y-71773502D01*
G37*
%TD.AperFunction*%
%TA.AperFunction,Conductor*%
G36*
X139008621Y-71773502D02*
G01*
X139055114Y-71827158D01*
X139066500Y-71879500D01*
X139066500Y-79459573D01*
X139046498Y-79527694D01*
X139029595Y-79548668D01*
X128766167Y-89812095D01*
X128703855Y-89846121D01*
X128677072Y-89849000D01*
X126948533Y-89849000D01*
X126886351Y-89855755D01*
X126749962Y-89906885D01*
X126633406Y-89994239D01*
X126628025Y-90001419D01*
X126624095Y-90005349D01*
X126561783Y-90039375D01*
X126490968Y-90034310D01*
X126445905Y-90005349D01*
X126441975Y-90001419D01*
X126436594Y-89994239D01*
X126320038Y-89906885D01*
X126183649Y-89855755D01*
X126121467Y-89849000D01*
X125011927Y-89849000D01*
X124943806Y-89828998D01*
X124897313Y-89775342D01*
X124887209Y-89705068D01*
X124916703Y-89640488D01*
X124922832Y-89633905D01*
X130612441Y-83944297D01*
X136431778Y-78124960D01*
X136431780Y-78124959D01*
X137552249Y-77004489D01*
X137560537Y-76996947D01*
X137567018Y-76992834D01*
X137613659Y-76943166D01*
X137616413Y-76940325D01*
X137636135Y-76920603D01*
X137638612Y-76917410D01*
X137646317Y-76908389D01*
X137676586Y-76876155D01*
X137680407Y-76869205D01*
X137686346Y-76858402D01*
X137697202Y-76841875D01*
X137704757Y-76832136D01*
X137704758Y-76832134D01*
X137709614Y-76825874D01*
X137727173Y-76785298D01*
X137732394Y-76774641D01*
X137749875Y-76742843D01*
X137749875Y-76742842D01*
X137753695Y-76735894D01*
X137755666Y-76728217D01*
X137755668Y-76728212D01*
X137758732Y-76716276D01*
X137765138Y-76697564D01*
X137766938Y-76693406D01*
X137773181Y-76678979D01*
X137780098Y-76635307D01*
X137782506Y-76623683D01*
X137789646Y-76595873D01*
X137793500Y-76580864D01*
X137793500Y-76560609D01*
X137795051Y-76540898D01*
X137796980Y-76528719D01*
X137798220Y-76520890D01*
X137794059Y-76476871D01*
X137793500Y-76465014D01*
X137793500Y-73092524D01*
X137813502Y-73024403D01*
X137825858Y-73008221D01*
X137899040Y-72926944D01*
X137994527Y-72761556D01*
X138053542Y-72579928D01*
X138073504Y-72390000D01*
X138053542Y-72200072D01*
X137994527Y-72018444D01*
X137977409Y-71988794D01*
X137950681Y-71942500D01*
X137933943Y-71873504D01*
X137957164Y-71806413D01*
X138012971Y-71762526D01*
X138059800Y-71753500D01*
X138940500Y-71753500D01*
X139008621Y-71773502D01*
G37*
%TD.AperFunction*%
%TA.AperFunction,Conductor*%
G36*
X136328321Y-71773502D02*
G01*
X136374814Y-71827158D01*
X136384918Y-71897432D01*
X136369319Y-71942500D01*
X136342591Y-71988794D01*
X136325473Y-72018444D01*
X136266458Y-72200072D01*
X136246496Y-72390000D01*
X136266458Y-72579928D01*
X136325473Y-72761556D01*
X136420960Y-72926944D01*
X136494137Y-73008215D01*
X136524853Y-73072221D01*
X136526500Y-73092524D01*
X136526500Y-76186238D01*
X136506498Y-76254359D01*
X136489595Y-76275333D01*
X136466942Y-76297986D01*
X136466929Y-76298000D01*
X135649054Y-77115875D01*
X122952833Y-89812095D01*
X122890521Y-89846121D01*
X122863738Y-89849000D01*
X122241927Y-89849000D01*
X122173806Y-89828998D01*
X122127313Y-89775342D01*
X122117209Y-89705068D01*
X122146703Y-89640488D01*
X122152832Y-89633905D01*
X133226550Y-78560186D01*
X135012253Y-76774484D01*
X135020539Y-76766944D01*
X135027018Y-76762832D01*
X135073644Y-76713180D01*
X135076398Y-76710339D01*
X135096135Y-76690602D01*
X135098615Y-76687405D01*
X135106320Y-76678383D01*
X135136586Y-76646153D01*
X135140405Y-76639207D01*
X135140407Y-76639204D01*
X135146348Y-76628398D01*
X135157199Y-76611879D01*
X135157559Y-76611415D01*
X135169614Y-76595873D01*
X135172759Y-76588604D01*
X135172762Y-76588600D01*
X135187174Y-76555295D01*
X135192391Y-76544645D01*
X135213695Y-76505892D01*
X135218733Y-76486269D01*
X135225137Y-76467566D01*
X135230033Y-76456252D01*
X135230033Y-76456251D01*
X135233181Y-76448977D01*
X135234420Y-76441154D01*
X135234423Y-76441144D01*
X135240099Y-76405308D01*
X135242505Y-76393688D01*
X135251528Y-76358543D01*
X135251528Y-76358542D01*
X135253500Y-76350862D01*
X135253500Y-76330608D01*
X135255051Y-76310897D01*
X135256980Y-76298718D01*
X135258220Y-76290889D01*
X135254059Y-76246870D01*
X135253500Y-76235013D01*
X135253500Y-73092524D01*
X135273502Y-73024403D01*
X135285858Y-73008221D01*
X135359040Y-72926944D01*
X135454527Y-72761556D01*
X135513542Y-72579928D01*
X135533504Y-72390000D01*
X135513542Y-72200072D01*
X135454527Y-72018444D01*
X135437409Y-71988794D01*
X135410681Y-71942500D01*
X135393943Y-71873504D01*
X135417164Y-71806413D01*
X135472971Y-71762526D01*
X135519800Y-71753500D01*
X136260200Y-71753500D01*
X136328321Y-71773502D01*
G37*
%TD.AperFunction*%
%TA.AperFunction,Conductor*%
G36*
X96334032Y-67545690D02*
G01*
X96379095Y-67574651D01*
X96383025Y-67578581D01*
X96388406Y-67585761D01*
X96395586Y-67591142D01*
X96395587Y-67591143D01*
X96403543Y-67597106D01*
X96446056Y-67653967D01*
X96451080Y-67724785D01*
X96417070Y-67787025D01*
X93587747Y-70616348D01*
X93579461Y-70623888D01*
X93572982Y-70628000D01*
X93567557Y-70633777D01*
X93526357Y-70677651D01*
X93523602Y-70680493D01*
X93503865Y-70700230D01*
X93501385Y-70703427D01*
X93493682Y-70712447D01*
X93463414Y-70744679D01*
X93459595Y-70751625D01*
X93459593Y-70751628D01*
X93453652Y-70762434D01*
X93442801Y-70778953D01*
X93430386Y-70794959D01*
X93427241Y-70802228D01*
X93427238Y-70802232D01*
X93412826Y-70835537D01*
X93407609Y-70846187D01*
X93386305Y-70884940D01*
X93384334Y-70892615D01*
X93384334Y-70892616D01*
X93381267Y-70904562D01*
X93374863Y-70923266D01*
X93373912Y-70925465D01*
X93366819Y-70941855D01*
X93365580Y-70949678D01*
X93365577Y-70949688D01*
X93359901Y-70985524D01*
X93357495Y-70997144D01*
X93348472Y-71032289D01*
X93346500Y-71039970D01*
X93346500Y-71060224D01*
X93344949Y-71079934D01*
X93341780Y-71099943D01*
X93342526Y-71107835D01*
X93345941Y-71143961D01*
X93346500Y-71155819D01*
X93346500Y-73588207D01*
X93344268Y-73611816D01*
X93342725Y-73619906D01*
X93343223Y-73627817D01*
X93343434Y-73631178D01*
X93342849Y-73633762D01*
X93342725Y-73635728D01*
X93342408Y-73635708D01*
X93327749Y-73700420D01*
X93277118Y-73750189D01*
X93207617Y-73764685D01*
X93141312Y-73739305D01*
X93128588Y-73728183D01*
X93111622Y-73711217D01*
X93077596Y-73648905D01*
X93075407Y-73635292D01*
X93072972Y-73612119D01*
X93069477Y-73578866D01*
X93058732Y-73476635D01*
X93058732Y-73476633D01*
X93058042Y-73470072D01*
X92999027Y-73288444D01*
X92903540Y-73123056D01*
X92889298Y-73107238D01*
X92780175Y-72986045D01*
X92780174Y-72986044D01*
X92775753Y-72981134D01*
X92621252Y-72868882D01*
X92615224Y-72866198D01*
X92615222Y-72866197D01*
X92452819Y-72793891D01*
X92452818Y-72793891D01*
X92446788Y-72791206D01*
X92353387Y-72771353D01*
X92266444Y-72752872D01*
X92266439Y-72752872D01*
X92259987Y-72751500D01*
X92199500Y-72751500D01*
X92131379Y-72731498D01*
X92084886Y-72677842D01*
X92073500Y-72625500D01*
X92073500Y-71434594D01*
X92093502Y-71366473D01*
X92110405Y-71345499D01*
X93922247Y-69533657D01*
X93930537Y-69526113D01*
X93937018Y-69522000D01*
X93983659Y-69472332D01*
X93986413Y-69469491D01*
X94006134Y-69449770D01*
X94008612Y-69446575D01*
X94016318Y-69437553D01*
X94041158Y-69411101D01*
X94046586Y-69405321D01*
X94056346Y-69387568D01*
X94067199Y-69371045D01*
X94074753Y-69361306D01*
X94079613Y-69355041D01*
X94097176Y-69314457D01*
X94102383Y-69303827D01*
X94123695Y-69265060D01*
X94125666Y-69257383D01*
X94125668Y-69257378D01*
X94128732Y-69245442D01*
X94135138Y-69226730D01*
X94140034Y-69215417D01*
X94143181Y-69208145D01*
X94150097Y-69164481D01*
X94152504Y-69152860D01*
X94161528Y-69117711D01*
X94161528Y-69117710D01*
X94163500Y-69110030D01*
X94163500Y-69089769D01*
X94165051Y-69070058D01*
X94166979Y-69057885D01*
X94168219Y-69050057D01*
X94164059Y-69006046D01*
X94163500Y-68994189D01*
X94163500Y-67857000D01*
X94183502Y-67788879D01*
X94237158Y-67742386D01*
X94289500Y-67731000D01*
X95876467Y-67731000D01*
X95938649Y-67724245D01*
X96075038Y-67673115D01*
X96191594Y-67585761D01*
X96196975Y-67578581D01*
X96200905Y-67574651D01*
X96263217Y-67540625D01*
X96334032Y-67545690D01*
G37*
%TD.AperFunction*%
%TA.AperFunction,Conductor*%
G36*
X131894032Y-67545690D02*
G01*
X131939095Y-67574651D01*
X131943025Y-67578581D01*
X131948406Y-67585761D01*
X132064962Y-67673115D01*
X132201351Y-67724245D01*
X132263533Y-67731000D01*
X132475500Y-67731000D01*
X132543621Y-67751002D01*
X132590114Y-67804658D01*
X132601500Y-67857000D01*
X132601500Y-68386233D01*
X132600973Y-68397416D01*
X132599298Y-68404909D01*
X132599547Y-68412835D01*
X132599547Y-68412836D01*
X132601438Y-68472986D01*
X132601500Y-68476945D01*
X132601500Y-68504856D01*
X132601997Y-68508790D01*
X132601997Y-68508791D01*
X132602005Y-68508856D01*
X132602938Y-68520693D01*
X132604327Y-68564889D01*
X132609978Y-68584339D01*
X132613987Y-68603700D01*
X132616526Y-68623797D01*
X132619445Y-68631168D01*
X132619445Y-68631170D01*
X132632804Y-68664912D01*
X132636649Y-68676142D01*
X132648982Y-68718593D01*
X132653015Y-68725412D01*
X132653017Y-68725417D01*
X132659293Y-68736028D01*
X132667988Y-68753776D01*
X132675448Y-68772617D01*
X132680110Y-68779033D01*
X132680110Y-68779034D01*
X132701436Y-68808387D01*
X132707952Y-68818307D01*
X132730458Y-68856362D01*
X132744779Y-68870683D01*
X132757619Y-68885716D01*
X132769528Y-68902107D01*
X132775634Y-68907158D01*
X132803605Y-68930298D01*
X132812384Y-68938288D01*
X134116348Y-70242253D01*
X134123888Y-70250539D01*
X134128000Y-70257018D01*
X134133777Y-70262443D01*
X134140386Y-70268649D01*
X134176352Y-70329862D01*
X134173515Y-70400802D01*
X134132775Y-70458946D01*
X134067067Y-70485835D01*
X134054134Y-70486500D01*
X132394594Y-70486500D01*
X132326473Y-70466498D01*
X132305499Y-70449595D01*
X131135405Y-69279500D01*
X131101379Y-69217188D01*
X131098500Y-69190405D01*
X131098500Y-67857000D01*
X131118502Y-67788879D01*
X131172158Y-67742386D01*
X131224500Y-67731000D01*
X131436467Y-67731000D01*
X131498649Y-67724245D01*
X131635038Y-67673115D01*
X131751594Y-67585761D01*
X131756975Y-67578581D01*
X131760905Y-67574651D01*
X131823217Y-67540625D01*
X131894032Y-67545690D01*
G37*
%TD.AperFunction*%
%TD*%
M02*
