  0
SECTION
  2
HEADER
  9
$ANGBASE
  50
0.0
  9
$ANGDIR
  70
1
  9
$MEASUREMENT
  70
1
  0
ENDSEC
  0
SECTION
  2
TABLES
  0
TABLE
  2
LTYPE
  70
4
  0
LTYPE
  5
40F
  2
CONTINUOUS
  70
0
  3
Solid line
  72
65
  73
0
  40
0.0
  0
LTYPE
  5
410
  2
DASHDOT
 70
0
  3
Dash Dot ____ _ ____ _
 72
65
 73
4
 40
2.0
 49
1.25
 49
-0.25
 49
0.25
 49
-0.25
  0
LTYPE
  5
411
  2
DASHED
 70
0
  3
Dashed __ __ __ __ __
 72
65
 73
2
 40
0.75
 49
0.5
 49
-0.25
  0
LTYPE
  5
43B
  2
DOTTED
 70
0
  3
Dotted .  .  .  .
 72
65
 73
2
 40
0.2
 49
0.0
 49
-0.2
  0
ENDTAB
  0
TABLE
  2
STYLE
  70
4
  0
STYLE
  2
KICAD
  70
0
  40
0
  41
1
  42
1
  50
0
  71
0
  3
isocp.shx
  0
STYLE
  2
KICADB
  70
0
  40
0
  41
1
  42
1
  50
0
  71
0
  3
isocp.shx
  0
STYLE
  2
KICADI
  70
0
  40
0
  41
1
  42
1
  50
15
  71
0
  3
isocp.shx
  0
STYLE
  2
KICADBI
  70
0
  40
0
  41
1
  42
1
  50
15
  71
0
  3
isocp.shx
  0
ENDTAB
  0
TABLE
  2
LAYER
  70
1
  0
LAYER
  2
BLACK
  70
0
  62
7
  6
CONTINUOUS
  0
ENDTAB
  0
ENDSEC
  0
SECTION
  2
ENTITIES
0
LINE
8
BLACK
6
CONTINUOUS
10
88.9
20
-93.98
11
88.9
21
-63.5
0
LINE
8
BLACK
6
CONTINUOUS
10
144.78
20
-93.98
11
88.9
21
-93.98
0
LINE
8
BLACK
6
CONTINUOUS
10
144.78
20
-63.5
11
144.78
21
-93.98
0
LINE
8
BLACK
6
CONTINUOUS
10
88.9
20
-63.5
11
144.78
21
-63.5
0
LINE
8
BLACK
6
CONTINUOUS
10
91.9645
20
-73.46
11
92.3645
21
-73.86
0
LINE
8
BLACK
6
CONTINUOUS
10
92.3645
20
-73.46
11
91.9645
21
-73.86
0
LINE
8
BLACK
6
CONTINUOUS
10
92.51
20
-70.92
11
92.91
21
-71.32
0
LINE
8
BLACK
6
CONTINUOUS
10
92.91
20
-70.92
11
92.51
21
-71.32
0
LINE
8
BLACK
6
CONTINUOUS
10
92.51
20
-91.24
11
92.91
21
-91.64
0
LINE
8
BLACK
6
CONTINUOUS
10
92.91
20
-91.24
11
92.51
21
-91.64
0
LINE
8
BLACK
6
CONTINUOUS
10
95.05
20
-68.38
11
95.45
21
-68.78
0
LINE
8
BLACK
6
CONTINUOUS
10
95.45
20
-68.38
11
95.05
21
-68.78
0
LINE
8
BLACK
6
CONTINUOUS
10
96.32
20
-70.92
11
96.72
21
-71.32
0
LINE
8
BLACK
6
CONTINUOUS
10
96.72
20
-70.92
11
96.32
21
-71.32
0
LINE
8
BLACK
6
CONTINUOUS
10
96.32
20
-87.43
11
96.72
21
-87.83
0
LINE
8
BLACK
6
CONTINUOUS
10
96.72
20
-87.43
11
96.32
21
-87.83
0
LINE
8
BLACK
6
CONTINUOUS
10
103.94
20
-70.92
11
104.34
21
-71.32
0
LINE
8
BLACK
6
CONTINUOUS
10
104.34
20
-70.92
11
103.94
21
-71.32
0
LINE
8
BLACK
6
CONTINUOUS
10
106.48
20
-81.08
11
106.88
21
-81.48
0
LINE
8
BLACK
6
CONTINUOUS
10
106.88
20
-81.08
11
106.48
21
-81.48
0
LINE
8
BLACK
6
CONTINUOUS
10
109.02
20
-70.92
11
109.42
21
-71.32
0
LINE
8
BLACK
6
CONTINUOUS
10
109.42
20
-70.92
11
109.02
21
-71.32
0
LINE
8
BLACK
6
CONTINUOUS
10
110.29
20
-81.08
11
110.69
21
-81.48
0
LINE
8
BLACK
6
CONTINUOUS
10
110.69
20
-81.08
11
110.29
21
-81.48
0
LINE
8
BLACK
6
CONTINUOUS
10
112.83
20
-76
11
113.23
21
-76.4
0
LINE
8
BLACK
6
CONTINUOUS
10
113.23
20
-76
11
112.83
21
-76.4
0
LINE
8
BLACK
6
CONTINUOUS
10
112.83
20
-81.08
11
113.23
21
-81.48
0
LINE
8
BLACK
6
CONTINUOUS
10
113.23
20
-81.08
11
112.83
21
-81.48
0
LINE
8
BLACK
6
CONTINUOUS
10
119.18
20
-83.62
11
119.58
21
-84.02
0
LINE
8
BLACK
6
CONTINUOUS
10
119.58
20
-83.62
11
119.18
21
-84.02
0
LINE
8
BLACK
6
CONTINUOUS
10
121.72
20
-86.16
11
122.12
21
-86.56
0
LINE
8
BLACK
6
CONTINUOUS
10
122.12
20
-86.16
11
121.72
21
-86.56
0
LINE
8
BLACK
6
CONTINUOUS
10
128.07
20
-83.62
11
128.47
21
-84.02
0
LINE
8
BLACK
6
CONTINUOUS
10
128.47
20
-83.62
11
128.07
21
-84.02
0
LINE
8
BLACK
6
CONTINUOUS
10
129.34
20
-72.19
11
129.74
21
-72.59
0
LINE
8
BLACK
6
CONTINUOUS
10
129.74
20
-72.19
11
129.34
21
-72.59
0
LINE
8
BLACK
6
CONTINUOUS
10
131.88
20
-72.19
11
132.28
21
-72.59
0
LINE
8
BLACK
6
CONTINUOUS
10
132.28
20
-72.19
11
131.88
21
-72.59
0
LINE
8
BLACK
6
CONTINUOUS
10
131.88
20
-84.89
11
132.28
21
-85.29
0
LINE
8
BLACK
6
CONTINUOUS
10
132.28
20
-84.89
11
131.88
21
-85.29
0
LINE
8
BLACK
6
CONTINUOUS
10
133.15
20
-69.65
11
133.55
21
-70.05
0
LINE
8
BLACK
6
CONTINUOUS
10
133.55
20
-69.65
11
133.15
21
-70.05
0
LINE
8
BLACK
6
CONTINUOUS
10
134.42
20
-72.19
11
134.82
21
-72.59
0
LINE
8
BLACK
6
CONTINUOUS
10
134.82
20
-72.19
11
134.42
21
-72.59
0
LINE
8
BLACK
6
CONTINUOUS
10
135.69
20
-68.38
11
136.09
21
-68.78
0
LINE
8
BLACK
6
CONTINUOUS
10
136.09
20
-68.38
11
135.69
21
-68.78
0
LINE
8
BLACK
6
CONTINUOUS
10
135.69
20
-88.7
11
136.09
21
-89.1
0
LINE
8
BLACK
6
CONTINUOUS
10
136.09
20
-88.7
11
135.69
21
-89.1
0
LINE
8
BLACK
6
CONTINUOUS
10
136.96
20
-72.19
11
137.36
21
-72.59
0
LINE
8
BLACK
6
CONTINUOUS
10
137.36
20
-72.19
11
136.96
21
-72.59
0
LINE
8
BLACK
6
CONTINUOUS
10
140.763
20
-73.456
11
141.163
21
-73.856
0
LINE
8
BLACK
6
CONTINUOUS
10
141.163
20
-73.456
11
140.763
21
-73.856
0
LINE
8
BLACK
6
CONTINUOUS
10
142.04
20
-76
11
142.44
21
-76.4
0
LINE
8
BLACK
6
CONTINUOUS
10
142.44
20
-76
11
142.04
21
-76.4
0
CIRCLE
8
BLACK
10
96.57
20
-78.09
40
0.5
0
LINE
8
BLACK
6
CONTINUOUS
10
96.07
20
-76.99
11
96.07
21
-79.19
0
LINE
8
BLACK
6
CONTINUOUS
10
97.07
20
-76.99
11
97.07
21
-79.19
0
ARC
8
BLACK
10
96.57
20
-79.19
40
0.5
50
180
51
360
0
ARC
8
BLACK
10
96.57
20
-76.99
40
0.5
50
0
51
180
0
CIRCLE
8
BLACK
10
99.97
20
-82.89
40
0.5
0
LINE
8
BLACK
6
CONTINUOUS
10
101.07
20
-82.39
11
98.87
21
-82.39
0
LINE
8
BLACK
6
CONTINUOUS
10
101.07
20
-83.39
11
98.87
21
-83.39
0
ARC
8
BLACK
10
98.87
20
-82.89
40
0.5
50
450
51
630
0
ARC
8
BLACK
10
101.07
20
-82.89
40
0.5
50
270
51
450
0
CIRCLE
8
BLACK
10
102.87
20
-78.09
40
0.5
0
LINE
8
BLACK
6
CONTINUOUS
10
102.37
20
-76.79
11
102.37
21
-79.39
0
LINE
8
BLACK
6
CONTINUOUS
10
103.37
20
-76.79
11
103.37
21
-79.39
0
ARC
8
BLACK
10
102.87
20
-79.39
40
0.5
50
180
51
360
0
ARC
8
BLACK
10
102.87
20
-76.79
40
0.5
50
0
51
180
0
LINE
8
BLACK
6
CONTINUOUS
10
91.4262
20
-97.1348
11
91.4262
21
-95.1348
0
LINE
8
BLACK
6
CONTINUOUS
10
91.4262
20
-95.1348
11
91.9024
21
-95.1348
0
LINE
8
BLACK
6
CONTINUOUS
10
91.9024
20
-95.1348
11
92.1881
21
-95.23
0
LINE
8
BLACK
6
CONTINUOUS
10
92.1881
20
-95.23
11
92.3786
21
-95.4205
0
LINE
8
BLACK
6
CONTINUOUS
10
92.3786
20
-95.4205
11
92.4738
21
-95.611
0
LINE
8
BLACK
6
CONTINUOUS
10
92.4738
20
-95.611
11
92.569
21
-95.9919
0
LINE
8
BLACK
6
CONTINUOUS
10
92.569
20
-95.9919
11
92.569
21
-96.2776
0
LINE
8
BLACK
6
CONTINUOUS
10
92.569
20
-96.2776
11
92.4738
21
-96.6586
0
LINE
8
BLACK
6
CONTINUOUS
10
92.4738
20
-96.6586
11
92.3786
21
-96.849
0
LINE
8
BLACK
6
CONTINUOUS
10
92.3786
20
-96.849
11
92.1881
21
-97.0395
0
LINE
8
BLACK
6
CONTINUOUS
10
92.1881
20
-97.0395
11
91.9024
21
-97.1348
0
LINE
8
BLACK
6
CONTINUOUS
10
91.9024
20
-97.1348
11
91.4262
21
-97.1348
0
LINE
8
BLACK
6
CONTINUOUS
10
93.4262
20
-97.1348
11
93.4262
21
-95.8014
0
LINE
8
BLACK
6
CONTINUOUS
10
93.4262
20
-96.1824
11
93.5214
21
-95.9919
0
LINE
8
BLACK
6
CONTINUOUS
10
93.5214
20
-95.9919
11
93.6167
21
-95.8967
0
LINE
8
BLACK
6
CONTINUOUS
10
93.6167
20
-95.8967
11
93.8071
21
-95.8014
0
LINE
8
BLACK
6
CONTINUOUS
10
93.8071
20
-95.8014
11
93.9976
21
-95.8014
0
LINE
8
BLACK
6
CONTINUOUS
10
94.6643
20
-97.1348
11
94.6643
21
-95.8014
0
LINE
8
BLACK
6
CONTINUOUS
10
94.6643
20
-95.1348
11
94.569
21
-95.23
0
LINE
8
BLACK
6
CONTINUOUS
10
94.569
20
-95.23
11
94.6643
21
-95.3252
0
LINE
8
BLACK
6
CONTINUOUS
10
94.6643
20
-95.3252
11
94.7595
21
-95.23
0
LINE
8
BLACK
6
CONTINUOUS
10
94.7595
20
-95.23
11
94.6643
21
-95.1348
0
LINE
8
BLACK
6
CONTINUOUS
10
94.6643
20
-95.1348
11
94.6643
21
-95.3252
0
LINE
8
BLACK
6
CONTINUOUS
10
95.9024
20
-97.1348
11
95.7119
21
-97.0395
0
LINE
8
BLACK
6
CONTINUOUS
10
95.7119
20
-97.0395
11
95.6167
21
-96.849
0
LINE
8
BLACK
6
CONTINUOUS
10
95.6167
20
-96.849
11
95.6167
21
-95.1348
0
LINE
8
BLACK
6
CONTINUOUS
10
96.95
20
-97.1348
11
96.7595
21
-97.0395
0
LINE
8
BLACK
6
CONTINUOUS
10
96.7595
20
-97.0395
11
96.6643
21
-96.849
0
LINE
8
BLACK
6
CONTINUOUS
10
96.6643
20
-96.849
11
96.6643
21
-95.1348
0
LINE
8
BLACK
6
CONTINUOUS
10
99.2357
20
-97.1348
11
99.2357
21
-95.1348
0
LINE
8
BLACK
6
CONTINUOUS
10
99.2357
20
-95.1348
11
99.9024
21
-96.5633
0
LINE
8
BLACK
6
CONTINUOUS
10
99.9024
20
-96.5633
11
100.569
21
-95.1348
0
LINE
8
BLACK
6
CONTINUOUS
10
100.569
20
-95.1348
11
100.569
21
-97.1348
0
LINE
8
BLACK
6
CONTINUOUS
10
102.379
20
-97.1348
11
102.379
21
-96.0871
0
LINE
8
BLACK
6
CONTINUOUS
10
102.379
20
-96.0871
11
102.283
21
-95.8967
0
LINE
8
BLACK
6
CONTINUOUS
10
102.283
20
-95.8967
11
102.093
21
-95.8014
0
LINE
8
BLACK
6
CONTINUOUS
10
102.093
20
-95.8014
11
101.712
21
-95.8014
0
LINE
8
BLACK
6
CONTINUOUS
10
101.712
20
-95.8014
11
101.521
21
-95.8967
0
LINE
8
BLACK
6
CONTINUOUS
10
102.379
20
-97.0395
11
102.188
21
-97.1348
0
LINE
8
BLACK
6
CONTINUOUS
10
102.188
20
-97.1348
11
101.712
21
-97.1348
0
LINE
8
BLACK
6
CONTINUOUS
10
101.712
20
-97.1348
11
101.521
21
-97.0395
0
LINE
8
BLACK
6
CONTINUOUS
10
101.521
20
-97.0395
11
101.426
21
-96.849
0
LINE
8
BLACK
6
CONTINUOUS
10
101.426
20
-96.849
11
101.426
21
-96.6586
0
LINE
8
BLACK
6
CONTINUOUS
10
101.426
20
-96.6586
11
101.521
21
-96.4681
0
LINE
8
BLACK
6
CONTINUOUS
10
101.521
20
-96.4681
11
101.712
21
-96.3729
0
LINE
8
BLACK
6
CONTINUOUS
10
101.712
20
-96.3729
11
102.188
21
-96.3729
0
LINE
8
BLACK
6
CONTINUOUS
10
102.188
20
-96.3729
11
102.379
21
-96.2776
0
LINE
8
BLACK
6
CONTINUOUS
10
103.331
20
-95.8014
11
103.331
21
-97.8014
0
LINE
8
BLACK
6
CONTINUOUS
10
103.331
20
-95.8967
11
103.521
21
-95.8014
0
LINE
8
BLACK
6
CONTINUOUS
10
103.521
20
-95.8014
11
103.902
21
-95.8014
0
LINE
8
BLACK
6
CONTINUOUS
10
103.902
20
-95.8014
11
104.093
21
-95.8967
0
LINE
8
BLACK
6
CONTINUOUS
10
104.093
20
-95.8967
11
104.188
21
-95.9919
0
LINE
8
BLACK
6
CONTINUOUS
10
104.188
20
-95.9919
11
104.283
21
-96.1824
0
LINE
8
BLACK
6
CONTINUOUS
10
104.283
20
-96.1824
11
104.283
21
-96.7538
0
LINE
8
BLACK
6
CONTINUOUS
10
104.283
20
-96.7538
11
104.188
21
-96.9443
0
LINE
8
BLACK
6
CONTINUOUS
10
104.188
20
-96.9443
11
104.093
21
-97.0395
0
LINE
8
BLACK
6
CONTINUOUS
10
104.093
20
-97.0395
11
103.902
21
-97.1348
0
LINE
8
BLACK
6
CONTINUOUS
10
103.902
20
-97.1348
11
103.521
21
-97.1348
0
LINE
8
BLACK
6
CONTINUOUS
10
103.521
20
-97.1348
11
103.331
21
-97.0395
0
LINE
8
BLACK
6
CONTINUOUS
10
105.14
20
-96.9443
11
105.236
21
-97.0395
0
LINE
8
BLACK
6
CONTINUOUS
10
105.236
20
-97.0395
11
105.14
21
-97.1348
0
LINE
8
BLACK
6
CONTINUOUS
10
105.14
20
-97.1348
11
105.045
21
-97.0395
0
LINE
8
BLACK
6
CONTINUOUS
10
105.045
20
-97.0395
11
105.14
21
-96.9443
0
LINE
8
BLACK
6
CONTINUOUS
10
105.14
20
-96.9443
11
105.14
21
-97.1348
0
LINE
8
BLACK
6
CONTINUOUS
10
105.14
20
-95.8967
11
105.236
21
-95.9919
0
LINE
8
BLACK
6
CONTINUOUS
10
105.236
20
-95.9919
11
105.14
21
-96.0871
0
LINE
8
BLACK
6
CONTINUOUS
10
105.14
20
-96.0871
11
105.045
21
-95.9919
0
LINE
8
BLACK
6
CONTINUOUS
10
105.045
20
-95.9919
11
105.14
21
-95.8967
0
LINE
8
BLACK
6
CONTINUOUS
10
105.14
20
-95.8967
11
105.14
21
-96.0871
0
LINE
8
BLACK
6
CONTINUOUS
10
88.45
20
-100.23
11
88.85
21
-100.63
0
LINE
8
BLACK
6
CONTINUOUS
10
88.85
20
-100.23
11
88.45
21
-100.63
0
LINE
8
BLACK
6
CONTINUOUS
10
91.8071
20
-99.3348
11
91.9976
21
-99.3348
0
LINE
8
BLACK
6
CONTINUOUS
10
91.9976
20
-99.3348
11
92.1881
21
-99.43
0
LINE
8
BLACK
6
CONTINUOUS
10
92.1881
20
-99.43
11
92.2833
21
-99.5252
0
LINE
8
BLACK
6
CONTINUOUS
10
92.2833
20
-99.5252
11
92.3786
21
-99.7157
0
LINE
8
BLACK
6
CONTINUOUS
10
92.3786
20
-99.7157
11
92.4738
21
-100.097
0
LINE
8
BLACK
6
CONTINUOUS
10
92.4738
20
-100.097
11
92.4738
21
-100.573
0
LINE
8
BLACK
6
CONTINUOUS
10
92.4738
20
-100.573
11
92.3786
21
-100.954
0
LINE
8
BLACK
6
CONTINUOUS
10
92.3786
20
-100.954
11
92.2833
21
-101.144
0
LINE
8
BLACK
6
CONTINUOUS
10
92.2833
20
-101.144
11
92.1881
21
-101.24
0
LINE
8
BLACK
6
CONTINUOUS
10
92.1881
20
-101.24
11
91.9976
21
-101.335
0
LINE
8
BLACK
6
CONTINUOUS
10
91.9976
20
-101.335
11
91.8071
21
-101.335
0
LINE
8
BLACK
6
CONTINUOUS
10
91.8071
20
-101.335
11
91.6167
21
-101.24
0
LINE
8
BLACK
6
CONTINUOUS
10
91.6167
20
-101.24
11
91.5214
21
-101.144
0
LINE
8
BLACK
6
CONTINUOUS
10
91.5214
20
-101.144
11
91.4262
21
-100.954
0
LINE
8
BLACK
6
CONTINUOUS
10
91.4262
20
-100.954
11
91.331
21
-100.573
0
LINE
8
BLACK
6
CONTINUOUS
10
91.331
20
-100.573
11
91.331
21
-100.097
0
LINE
8
BLACK
6
CONTINUOUS
10
91.331
20
-100.097
11
91.4262
21
-99.7157
0
LINE
8
BLACK
6
CONTINUOUS
10
91.4262
20
-99.7157
11
91.5214
21
-99.5252
0
LINE
8
BLACK
6
CONTINUOUS
10
91.5214
20
-99.5252
11
91.6167
21
-99.43
0
LINE
8
BLACK
6
CONTINUOUS
10
91.6167
20
-99.43
11
91.8071
21
-99.3348
0
LINE
8
BLACK
6
CONTINUOUS
10
93.331
20
-101.144
11
93.4262
21
-101.24
0
LINE
8
BLACK
6
CONTINUOUS
10
93.4262
20
-101.24
11
93.331
21
-101.335
0
LINE
8
BLACK
6
CONTINUOUS
10
93.331
20
-101.335
11
93.2357
21
-101.24
0
LINE
8
BLACK
6
CONTINUOUS
10
93.2357
20
-101.24
11
93.331
21
-101.144
0
LINE
8
BLACK
6
CONTINUOUS
10
93.331
20
-101.144
11
93.331
21
-101.335
0
LINE
8
BLACK
6
CONTINUOUS
10
95.1405
20
-100.001
11
95.1405
21
-101.335
0
LINE
8
BLACK
6
CONTINUOUS
10
94.6643
20
-99.2395
11
94.1881
21
-100.668
0
LINE
8
BLACK
6
CONTINUOUS
10
94.1881
20
-100.668
11
95.4262
21
-100.668
0
LINE
8
BLACK
6
CONTINUOUS
10
96.569
20
-99.3348
11
96.7595
21
-99.3348
0
LINE
8
BLACK
6
CONTINUOUS
10
96.7595
20
-99.3348
11
96.95
21
-99.43
0
LINE
8
BLACK
6
CONTINUOUS
10
96.95
20
-99.43
11
97.0452
21
-99.5252
0
LINE
8
BLACK
6
CONTINUOUS
10
97.0452
20
-99.5252
11
97.1405
21
-99.7157
0
LINE
8
BLACK
6
CONTINUOUS
10
97.1405
20
-99.7157
11
97.2357
21
-100.097
0
LINE
8
BLACK
6
CONTINUOUS
10
97.2357
20
-100.097
11
97.2357
21
-100.573
0
LINE
8
BLACK
6
CONTINUOUS
10
97.2357
20
-100.573
11
97.1405
21
-100.954
0
LINE
8
BLACK
6
CONTINUOUS
10
97.1405
20
-100.954
11
97.0452
21
-101.144
0
LINE
8
BLACK
6
CONTINUOUS
10
97.0452
20
-101.144
11
96.95
21
-101.24
0
LINE
8
BLACK
6
CONTINUOUS
10
96.95
20
-101.24
11
96.7595
21
-101.335
0
LINE
8
BLACK
6
CONTINUOUS
10
96.7595
20
-101.335
11
96.569
21
-101.335
0
LINE
8
BLACK
6
CONTINUOUS
10
96.569
20
-101.335
11
96.3786
21
-101.24
0
LINE
8
BLACK
6
CONTINUOUS
10
96.3786
20
-101.24
11
96.2833
21
-101.144
0
LINE
8
BLACK
6
CONTINUOUS
10
96.2833
20
-101.144
11
96.1881
21
-100.954
0
LINE
8
BLACK
6
CONTINUOUS
10
96.1881
20
-100.954
11
96.0929
21
-100.573
0
LINE
8
BLACK
6
CONTINUOUS
10
96.0929
20
-100.573
11
96.0929
21
-100.097
0
LINE
8
BLACK
6
CONTINUOUS
10
96.0929
20
-100.097
11
96.1881
21
-99.7157
0
LINE
8
BLACK
6
CONTINUOUS
10
96.1881
20
-99.7157
11
96.2833
21
-99.5252
0
LINE
8
BLACK
6
CONTINUOUS
10
96.2833
20
-99.5252
11
96.3786
21
-99.43
0
LINE
8
BLACK
6
CONTINUOUS
10
96.3786
20
-99.43
11
96.569
21
-99.3348
0
LINE
8
BLACK
6
CONTINUOUS
10
98.4738
20
-99.3348
11
98.6643
21
-99.3348
0
LINE
8
BLACK
6
CONTINUOUS
10
98.6643
20
-99.3348
11
98.8548
21
-99.43
0
LINE
8
BLACK
6
CONTINUOUS
10
98.8548
20
-99.43
11
98.95
21
-99.5252
0
LINE
8
BLACK
6
CONTINUOUS
10
98.95
20
-99.5252
11
99.0452
21
-99.7157
0
LINE
8
BLACK
6
CONTINUOUS
10
99.0452
20
-99.7157
11
99.1405
21
-100.097
0
LINE
8
BLACK
6
CONTINUOUS
10
99.1405
20
-100.097
11
99.1405
21
-100.573
0
LINE
8
BLACK
6
CONTINUOUS
10
99.1405
20
-100.573
11
99.0452
21
-100.954
0
LINE
8
BLACK
6
CONTINUOUS
10
99.0452
20
-100.954
11
98.95
21
-101.144
0
LINE
8
BLACK
6
CONTINUOUS
10
98.95
20
-101.144
11
98.8548
21
-101.24
0
LINE
8
BLACK
6
CONTINUOUS
10
98.8548
20
-101.24
11
98.6643
21
-101.335
0
LINE
8
BLACK
6
CONTINUOUS
10
98.6643
20
-101.335
11
98.4738
21
-101.335
0
LINE
8
BLACK
6
CONTINUOUS
10
98.4738
20
-101.335
11
98.2833
21
-101.24
0
LINE
8
BLACK
6
CONTINUOUS
10
98.2833
20
-101.24
11
98.1881
21
-101.144
0
LINE
8
BLACK
6
CONTINUOUS
10
98.1881
20
-101.144
11
98.0929
21
-100.954
0
LINE
8
BLACK
6
CONTINUOUS
10
98.0929
20
-100.954
11
97.9976
21
-100.573
0
LINE
8
BLACK
6
CONTINUOUS
10
97.9976
20
-100.573
11
97.9976
21
-100.097
0
LINE
8
BLACK
6
CONTINUOUS
10
97.9976
20
-100.097
11
98.0929
21
-99.7157
0
LINE
8
BLACK
6
CONTINUOUS
10
98.0929
20
-99.7157
11
98.1881
21
-99.5252
0
LINE
8
BLACK
6
CONTINUOUS
10
98.1881
20
-99.5252
11
98.2833
21
-99.43
0
LINE
8
BLACK
6
CONTINUOUS
10
98.2833
20
-99.43
11
98.4738
21
-99.3348
0
LINE
8
BLACK
6
CONTINUOUS
10
99.9976
20
-101.335
11
99.9976
21
-100.001
0
LINE
8
BLACK
6
CONTINUOUS
10
99.9976
20
-100.192
11
100.093
21
-100.097
0
LINE
8
BLACK
6
CONTINUOUS
10
100.093
20
-100.097
11
100.283
21
-100.001
0
LINE
8
BLACK
6
CONTINUOUS
10
100.283
20
-100.001
11
100.569
21
-100.001
0
LINE
8
BLACK
6
CONTINUOUS
10
100.569
20
-100.001
11
100.76
21
-100.097
0
LINE
8
BLACK
6
CONTINUOUS
10
100.76
20
-100.097
11
100.855
21
-100.287
0
LINE
8
BLACK
6
CONTINUOUS
10
100.855
20
-100.287
11
100.855
21
-101.335
0
LINE
8
BLACK
6
CONTINUOUS
10
100.855
20
-100.287
11
100.95
21
-100.097
0
LINE
8
BLACK
6
CONTINUOUS
10
100.95
20
-100.097
11
101.14
21
-100.001
0
LINE
8
BLACK
6
CONTINUOUS
10
101.14
20
-100.001
11
101.426
21
-100.001
0
LINE
8
BLACK
6
CONTINUOUS
10
101.426
20
-100.001
11
101.617
21
-100.097
0
LINE
8
BLACK
6
CONTINUOUS
10
101.617
20
-100.097
11
101.712
21
-100.287
0
LINE
8
BLACK
6
CONTINUOUS
10
101.712
20
-100.287
11
101.712
21
-101.335
0
LINE
8
BLACK
6
CONTINUOUS
10
102.664
20
-101.335
11
102.664
21
-100.001
0
LINE
8
BLACK
6
CONTINUOUS
10
102.664
20
-100.192
11
102.76
21
-100.097
0
LINE
8
BLACK
6
CONTINUOUS
10
102.76
20
-100.097
11
102.95
21
-100.001
0
LINE
8
BLACK
6
CONTINUOUS
10
102.95
20
-100.001
11
103.236
21
-100.001
0
LINE
8
BLACK
6
CONTINUOUS
10
103.236
20
-100.001
11
103.426
21
-100.097
0
LINE
8
BLACK
6
CONTINUOUS
10
103.426
20
-100.097
11
103.521
21
-100.287
0
LINE
8
BLACK
6
CONTINUOUS
10
103.521
20
-100.287
11
103.521
21
-101.335
0
LINE
8
BLACK
6
CONTINUOUS
10
103.521
20
-100.287
11
103.617
21
-100.097
0
LINE
8
BLACK
6
CONTINUOUS
10
103.617
20
-100.097
11
103.807
21
-100.001
0
LINE
8
BLACK
6
CONTINUOUS
10
103.807
20
-100.001
11
104.093
21
-100.001
0
LINE
8
BLACK
6
CONTINUOUS
10
104.093
20
-100.001
11
104.283
21
-100.097
0
LINE
8
BLACK
6
CONTINUOUS
10
104.283
20
-100.097
11
104.379
21
-100.287
0
LINE
8
BLACK
6
CONTINUOUS
10
104.379
20
-100.287
11
104.379
21
-101.335
0
LINE
8
BLACK
6
CONTINUOUS
10
108.283
20
-99.2395
11
106.569
21
-101.811
0
LINE
8
BLACK
6
CONTINUOUS
10
110.855
20
-99.3348
11
111.045
21
-99.3348
0
LINE
8
BLACK
6
CONTINUOUS
10
111.045
20
-99.3348
11
111.236
21
-99.43
0
LINE
8
BLACK
6
CONTINUOUS
10
111.236
20
-99.43
11
111.331
21
-99.5252
0
LINE
8
BLACK
6
CONTINUOUS
10
111.331
20
-99.5252
11
111.426
21
-99.7157
0
LINE
8
BLACK
6
CONTINUOUS
10
111.426
20
-99.7157
11
111.521
21
-100.097
0
LINE
8
BLACK
6
CONTINUOUS
10
111.521
20
-100.097
11
111.521
21
-100.573
0
LINE
8
BLACK
6
CONTINUOUS
10
111.521
20
-100.573
11
111.426
21
-100.954
0
LINE
8
BLACK
6
CONTINUOUS
10
111.426
20
-100.954
11
111.331
21
-101.144
0
LINE
8
BLACK
6
CONTINUOUS
10
111.331
20
-101.144
11
111.236
21
-101.24
0
LINE
8
BLACK
6
CONTINUOUS
10
111.236
20
-101.24
11
111.045
21
-101.335
0
LINE
8
BLACK
6
CONTINUOUS
10
111.045
20
-101.335
11
110.855
21
-101.335
0
LINE
8
BLACK
6
CONTINUOUS
10
110.855
20
-101.335
11
110.664
21
-101.24
0
LINE
8
BLACK
6
CONTINUOUS
10
110.664
20
-101.24
11
110.569
21
-101.144
0
LINE
8
BLACK
6
CONTINUOUS
10
110.569
20
-101.144
11
110.474
21
-100.954
0
LINE
8
BLACK
6
CONTINUOUS
10
110.474
20
-100.954
11
110.379
21
-100.573
0
LINE
8
BLACK
6
CONTINUOUS
10
110.379
20
-100.573
11
110.379
21
-100.097
0
LINE
8
BLACK
6
CONTINUOUS
10
110.379
20
-100.097
11
110.474
21
-99.7157
0
LINE
8
BLACK
6
CONTINUOUS
10
110.474
20
-99.7157
11
110.569
21
-99.5252
0
LINE
8
BLACK
6
CONTINUOUS
10
110.569
20
-99.5252
11
110.664
21
-99.43
0
LINE
8
BLACK
6
CONTINUOUS
10
110.664
20
-99.43
11
110.855
21
-99.3348
0
LINE
8
BLACK
6
CONTINUOUS
10
112.379
20
-101.144
11
112.474
21
-101.24
0
LINE
8
BLACK
6
CONTINUOUS
10
112.474
20
-101.24
11
112.379
21
-101.335
0
LINE
8
BLACK
6
CONTINUOUS
10
112.379
20
-101.335
11
112.283
21
-101.24
0
LINE
8
BLACK
6
CONTINUOUS
10
112.283
20
-101.24
11
112.379
21
-101.144
0
LINE
8
BLACK
6
CONTINUOUS
10
112.379
20
-101.144
11
112.379
21
-101.335
0
LINE
8
BLACK
6
CONTINUOUS
10
113.712
20
-99.3348
11
113.902
21
-99.3348
0
LINE
8
BLACK
6
CONTINUOUS
10
113.902
20
-99.3348
11
114.093
21
-99.43
0
LINE
8
BLACK
6
CONTINUOUS
10
114.093
20
-99.43
11
114.188
21
-99.5252
0
LINE
8
BLACK
6
CONTINUOUS
10
114.188
20
-99.5252
11
114.283
21
-99.7157
0
LINE
8
BLACK
6
CONTINUOUS
10
114.283
20
-99.7157
11
114.379
21
-100.097
0
LINE
8
BLACK
6
CONTINUOUS
10
114.379
20
-100.097
11
114.379
21
-100.573
0
LINE
8
BLACK
6
CONTINUOUS
10
114.379
20
-100.573
11
114.283
21
-100.954
0
LINE
8
BLACK
6
CONTINUOUS
10
114.283
20
-100.954
11
114.188
21
-101.144
0
LINE
8
BLACK
6
CONTINUOUS
10
114.188
20
-101.144
11
114.093
21
-101.24
0
LINE
8
BLACK
6
CONTINUOUS
10
114.093
20
-101.24
11
113.902
21
-101.335
0
LINE
8
BLACK
6
CONTINUOUS
10
113.902
20
-101.335
11
113.712
21
-101.335
0
LINE
8
BLACK
6
CONTINUOUS
10
113.712
20
-101.335
11
113.521
21
-101.24
0
LINE
8
BLACK
6
CONTINUOUS
10
113.521
20
-101.24
11
113.426
21
-101.144
0
LINE
8
BLACK
6
CONTINUOUS
10
113.426
20
-101.144
11
113.331
21
-100.954
0
LINE
8
BLACK
6
CONTINUOUS
10
113.331
20
-100.954
11
113.236
21
-100.573
0
LINE
8
BLACK
6
CONTINUOUS
10
113.236
20
-100.573
11
113.236
21
-100.097
0
LINE
8
BLACK
6
CONTINUOUS
10
113.236
20
-100.097
11
113.331
21
-99.7157
0
LINE
8
BLACK
6
CONTINUOUS
10
113.331
20
-99.7157
11
113.426
21
-99.5252
0
LINE
8
BLACK
6
CONTINUOUS
10
113.426
20
-99.5252
11
113.521
21
-99.43
0
LINE
8
BLACK
6
CONTINUOUS
10
113.521
20
-99.43
11
113.712
21
-99.3348
0
LINE
8
BLACK
6
CONTINUOUS
10
116.283
20
-101.335
11
115.14
21
-101.335
0
LINE
8
BLACK
6
CONTINUOUS
10
115.712
20
-101.335
11
115.712
21
-99.3348
0
LINE
8
BLACK
6
CONTINUOUS
10
115.712
20
-99.3348
11
115.521
21
-99.6205
0
LINE
8
BLACK
6
CONTINUOUS
10
115.521
20
-99.6205
11
115.331
21
-99.811
0
LINE
8
BLACK
6
CONTINUOUS
10
115.331
20
-99.811
11
115.14
21
-99.9062
0
LINE
8
BLACK
6
CONTINUOUS
10
118.093
20
-99.3348
11
117.14
21
-99.3348
0
LINE
8
BLACK
6
CONTINUOUS
10
117.14
20
-99.3348
11
117.045
21
-100.287
0
LINE
8
BLACK
6
CONTINUOUS
10
117.045
20
-100.287
11
117.14
21
-100.192
0
LINE
8
BLACK
6
CONTINUOUS
10
117.14
20
-100.192
11
117.331
21
-100.097
0
LINE
8
BLACK
6
CONTINUOUS
10
117.331
20
-100.097
11
117.807
21
-100.097
0
LINE
8
BLACK
6
CONTINUOUS
10
117.807
20
-100.097
11
117.998
21
-100.192
0
LINE
8
BLACK
6
CONTINUOUS
10
117.998
20
-100.192
11
118.093
21
-100.287
0
LINE
8
BLACK
6
CONTINUOUS
10
118.093
20
-100.287
11
118.188
21
-100.478
0
LINE
8
BLACK
6
CONTINUOUS
10
118.188
20
-100.478
11
118.188
21
-100.954
0
LINE
8
BLACK
6
CONTINUOUS
10
118.188
20
-100.954
11
118.093
21
-101.144
0
LINE
8
BLACK
6
CONTINUOUS
10
118.093
20
-101.144
11
117.998
21
-101.24
0
LINE
8
BLACK
6
CONTINUOUS
10
117.998
20
-101.24
11
117.807
21
-101.335
0
LINE
8
BLACK
6
CONTINUOUS
10
117.807
20
-101.335
11
117.331
21
-101.335
0
LINE
8
BLACK
6
CONTINUOUS
10
117.331
20
-101.335
11
117.14
21
-101.24
0
LINE
8
BLACK
6
CONTINUOUS
10
117.14
20
-101.24
11
117.045
21
-101.144
0
LINE
8
BLACK
6
CONTINUOUS
10
118.855
20
-99.3348
11
120.188
21
-99.3348
0
LINE
8
BLACK
6
CONTINUOUS
10
120.188
20
-99.3348
11
119.331
21
-101.335
0
LINE
8
BLACK
6
CONTINUOUS
10
120.855
20
-99.3348
11
120.855
21
-99.7157
0
LINE
8
BLACK
6
CONTINUOUS
10
121.617
20
-99.3348
11
121.617
21
-99.7157
0
LINE
8
BLACK
6
CONTINUOUS
10
124.569
20
-102.097
11
124.474
21
-102.001
0
LINE
8
BLACK
6
CONTINUOUS
10
124.474
20
-102.001
11
124.283
21
-101.716
0
LINE
8
BLACK
6
CONTINUOUS
10
124.283
20
-101.716
11
124.188
21
-101.525
0
LINE
8
BLACK
6
CONTINUOUS
10
124.188
20
-101.525
11
124.093
21
-101.24
0
LINE
8
BLACK
6
CONTINUOUS
10
124.093
20
-101.24
11
123.998
21
-100.763
0
LINE
8
BLACK
6
CONTINUOUS
10
123.998
20
-100.763
11
123.998
21
-100.382
0
LINE
8
BLACK
6
CONTINUOUS
10
123.998
20
-100.382
11
124.093
21
-99.9062
0
LINE
8
BLACK
6
CONTINUOUS
10
124.093
20
-99.9062
11
124.188
21
-99.6205
0
LINE
8
BLACK
6
CONTINUOUS
10
124.188
20
-99.6205
11
124.283
21
-99.43
0
LINE
8
BLACK
6
CONTINUOUS
10
124.283
20
-99.43
11
124.474
21
-99.1443
0
LINE
8
BLACK
6
CONTINUOUS
10
124.474
20
-99.1443
11
124.569
21
-99.049
0
LINE
8
BLACK
6
CONTINUOUS
10
125.236
20
-99.5252
11
125.331
21
-99.43
0
LINE
8
BLACK
6
CONTINUOUS
10
125.331
20
-99.43
11
125.521
21
-99.3348
0
LINE
8
BLACK
6
CONTINUOUS
10
125.521
20
-99.3348
11
125.998
21
-99.3348
0
LINE
8
BLACK
6
CONTINUOUS
10
125.998
20
-99.3348
11
126.188
21
-99.43
0
LINE
8
BLACK
6
CONTINUOUS
10
126.188
20
-99.43
11
126.283
21
-99.5252
0
LINE
8
BLACK
6
CONTINUOUS
10
126.283
20
-99.5252
11
126.379
21
-99.7157
0
LINE
8
BLACK
6
CONTINUOUS
10
126.379
20
-99.7157
11
126.379
21
-99.9062
0
LINE
8
BLACK
6
CONTINUOUS
10
126.379
20
-99.9062
11
126.283
21
-100.192
0
LINE
8
BLACK
6
CONTINUOUS
10
126.283
20
-100.192
11
125.14
21
-101.335
0
LINE
8
BLACK
6
CONTINUOUS
10
125.14
20
-101.335
11
126.379
21
-101.335
0
LINE
8
BLACK
6
CONTINUOUS
10
128.188
20
-99.3348
11
127.236
21
-99.3348
0
LINE
8
BLACK
6
CONTINUOUS
10
127.236
20
-99.3348
11
127.14
21
-100.287
0
LINE
8
BLACK
6
CONTINUOUS
10
127.14
20
-100.287
11
127.236
21
-100.192
0
LINE
8
BLACK
6
CONTINUOUS
10
127.236
20
-100.192
11
127.426
21
-100.097
0
LINE
8
BLACK
6
CONTINUOUS
10
127.426
20
-100.097
11
127.902
21
-100.097
0
LINE
8
BLACK
6
CONTINUOUS
10
127.902
20
-100.097
11
128.093
21
-100.192
0
LINE
8
BLACK
6
CONTINUOUS
10
128.093
20
-100.192
11
128.188
21
-100.287
0
LINE
8
BLACK
6
CONTINUOUS
10
128.188
20
-100.287
11
128.283
21
-100.478
0
LINE
8
BLACK
6
CONTINUOUS
10
128.283
20
-100.478
11
128.283
21
-100.954
0
LINE
8
BLACK
6
CONTINUOUS
10
128.283
20
-100.954
11
128.188
21
-101.144
0
LINE
8
BLACK
6
CONTINUOUS
10
128.188
20
-101.144
11
128.093
21
-101.24
0
LINE
8
BLACK
6
CONTINUOUS
10
128.093
20
-101.24
11
127.902
21
-101.335
0
LINE
8
BLACK
6
CONTINUOUS
10
127.902
20
-101.335
11
127.426
21
-101.335
0
LINE
8
BLACK
6
CONTINUOUS
10
127.426
20
-101.335
11
127.236
21
-101.24
0
LINE
8
BLACK
6
CONTINUOUS
10
127.236
20
-101.24
11
127.14
21
-101.144
0
LINE
8
BLACK
6
CONTINUOUS
10
130.664
20
-101.335
11
130.664
21
-99.3348
0
LINE
8
BLACK
6
CONTINUOUS
10
131.521
20
-101.335
11
131.521
21
-100.287
0
LINE
8
BLACK
6
CONTINUOUS
10
131.521
20
-100.287
11
131.426
21
-100.097
0
LINE
8
BLACK
6
CONTINUOUS
10
131.426
20
-100.097
11
131.236
21
-100.001
0
LINE
8
BLACK
6
CONTINUOUS
10
131.236
20
-100.001
11
130.95
21
-100.001
0
LINE
8
BLACK
6
CONTINUOUS
10
130.95
20
-100.001
11
130.76
21
-100.097
0
LINE
8
BLACK
6
CONTINUOUS
10
130.76
20
-100.097
11
130.664
21
-100.192
0
LINE
8
BLACK
6
CONTINUOUS
10
132.76
20
-101.335
11
132.569
21
-101.24
0
LINE
8
BLACK
6
CONTINUOUS
10
132.569
20
-101.24
11
132.474
21
-101.144
0
LINE
8
BLACK
6
CONTINUOUS
10
132.474
20
-101.144
11
132.379
21
-100.954
0
LINE
8
BLACK
6
CONTINUOUS
10
132.379
20
-100.954
11
132.379
21
-100.382
0
LINE
8
BLACK
6
CONTINUOUS
10
132.379
20
-100.382
11
132.474
21
-100.192
0
LINE
8
BLACK
6
CONTINUOUS
10
132.474
20
-100.192
11
132.569
21
-100.097
0
LINE
8
BLACK
6
CONTINUOUS
10
132.569
20
-100.097
11
132.76
21
-100.001
0
LINE
8
BLACK
6
CONTINUOUS
10
132.76
20
-100.001
11
133.045
21
-100.001
0
LINE
8
BLACK
6
CONTINUOUS
10
133.045
20
-100.001
11
133.236
21
-100.097
0
LINE
8
BLACK
6
CONTINUOUS
10
133.236
20
-100.097
11
133.331
21
-100.192
0
LINE
8
BLACK
6
CONTINUOUS
10
133.331
20
-100.192
11
133.426
21
-100.382
0
LINE
8
BLACK
6
CONTINUOUS
10
133.426
20
-100.382
11
133.426
21
-100.954
0
LINE
8
BLACK
6
CONTINUOUS
10
133.426
20
-100.954
11
133.331
21
-101.144
0
LINE
8
BLACK
6
CONTINUOUS
10
133.331
20
-101.144
11
133.236
21
-101.24
0
LINE
8
BLACK
6
CONTINUOUS
10
133.236
20
-101.24
11
133.045
21
-101.335
0
LINE
8
BLACK
6
CONTINUOUS
10
133.045
20
-101.335
11
132.76
21
-101.335
0
LINE
8
BLACK
6
CONTINUOUS
10
134.569
20
-101.335
11
134.379
21
-101.24
0
LINE
8
BLACK
6
CONTINUOUS
10
134.379
20
-101.24
11
134.283
21
-101.049
0
LINE
8
BLACK
6
CONTINUOUS
10
134.283
20
-101.049
11
134.283
21
-99.3348
0
LINE
8
BLACK
6
CONTINUOUS
10
136.093
20
-101.24
11
135.902
21
-101.335
0
LINE
8
BLACK
6
CONTINUOUS
10
135.902
20
-101.335
11
135.521
21
-101.335
0
LINE
8
BLACK
6
CONTINUOUS
10
135.521
20
-101.335
11
135.331
21
-101.24
0
LINE
8
BLACK
6
CONTINUOUS
10
135.331
20
-101.24
11
135.236
21
-101.049
0
LINE
8
BLACK
6
CONTINUOUS
10
135.236
20
-101.049
11
135.236
21
-100.287
0
LINE
8
BLACK
6
CONTINUOUS
10
135.236
20
-100.287
11
135.331
21
-100.097
0
LINE
8
BLACK
6
CONTINUOUS
10
135.331
20
-100.097
11
135.521
21
-100.001
0
LINE
8
BLACK
6
CONTINUOUS
10
135.521
20
-100.001
11
135.902
21
-100.001
0
LINE
8
BLACK
6
CONTINUOUS
10
135.902
20
-100.001
11
136.093
21
-100.097
0
LINE
8
BLACK
6
CONTINUOUS
10
136.093
20
-100.097
11
136.188
21
-100.287
0
LINE
8
BLACK
6
CONTINUOUS
10
136.188
20
-100.287
11
136.188
21
-100.478
0
LINE
8
BLACK
6
CONTINUOUS
10
136.188
20
-100.478
11
135.236
21
-100.668
0
LINE
8
BLACK
6
CONTINUOUS
10
136.95
20
-101.24
11
137.14
21
-101.335
0
LINE
8
BLACK
6
CONTINUOUS
10
137.14
20
-101.335
11
137.521
21
-101.335
0
LINE
8
BLACK
6
CONTINUOUS
10
137.521
20
-101.335
11
137.712
21
-101.24
0
LINE
8
BLACK
6
CONTINUOUS
10
137.712
20
-101.24
11
137.807
21
-101.049
0
LINE
8
BLACK
6
CONTINUOUS
10
137.807
20
-101.049
11
137.807
21
-100.954
0
LINE
8
BLACK
6
CONTINUOUS
10
137.807
20
-100.954
11
137.712
21
-100.763
0
LINE
8
BLACK
6
CONTINUOUS
10
137.712
20
-100.763
11
137.521
21
-100.668
0
LINE
8
BLACK
6
CONTINUOUS
10
137.521
20
-100.668
11
137.236
21
-100.668
0
LINE
8
BLACK
6
CONTINUOUS
10
137.236
20
-100.668
11
137.045
21
-100.573
0
LINE
8
BLACK
6
CONTINUOUS
10
137.045
20
-100.573
11
136.95
21
-100.382
0
LINE
8
BLACK
6
CONTINUOUS
10
136.95
20
-100.382
11
136.95
21
-100.287
0
LINE
8
BLACK
6
CONTINUOUS
10
136.95
20
-100.287
11
137.045
21
-100.097
0
LINE
8
BLACK
6
CONTINUOUS
10
137.045
20
-100.097
11
137.236
21
-100.001
0
LINE
8
BLACK
6
CONTINUOUS
10
137.236
20
-100.001
11
137.521
21
-100.001
0
LINE
8
BLACK
6
CONTINUOUS
10
137.521
20
-100.001
11
137.712
21
-100.097
0
LINE
8
BLACK
6
CONTINUOUS
10
138.474
20
-102.097
11
138.569
21
-102.001
0
LINE
8
BLACK
6
CONTINUOUS
10
138.569
20
-102.001
11
138.76
21
-101.716
0
LINE
8
BLACK
6
CONTINUOUS
10
138.76
20
-101.716
11
138.855
21
-101.525
0
LINE
8
BLACK
6
CONTINUOUS
10
138.855
20
-101.525
11
138.95
21
-101.24
0
LINE
8
BLACK
6
CONTINUOUS
10
138.95
20
-101.24
11
139.045
21
-100.763
0
LINE
8
BLACK
6
CONTINUOUS
10
139.045
20
-100.763
11
139.045
21
-100.382
0
LINE
8
BLACK
6
CONTINUOUS
10
139.045
20
-100.382
11
138.95
21
-99.9062
0
LINE
8
BLACK
6
CONTINUOUS
10
138.95
20
-99.9062
11
138.855
21
-99.6205
0
LINE
8
BLACK
6
CONTINUOUS
10
138.855
20
-99.6205
11
138.76
21
-99.43
0
LINE
8
BLACK
6
CONTINUOUS
10
138.76
20
-99.43
11
138.569
21
-99.1443
0
LINE
8
BLACK
6
CONTINUOUS
10
138.569
20
-99.1443
11
138.474
21
-99.049
0
CIRCLE
8
BLACK
10
88.35
20
-103.07
40
0.5
0
LINE
8
BLACK
6
CONTINUOUS
10
92.4738
20
-103.975
11
91.331
21
-103.975
0
LINE
8
BLACK
6
CONTINUOUS
10
91.9024
20
-103.975
11
91.9024
21
-101.975
0
LINE
8
BLACK
6
CONTINUOUS
10
91.9024
20
-101.975
11
91.7119
21
-102.26
0
LINE
8
BLACK
6
CONTINUOUS
10
91.7119
20
-102.26
11
91.5214
21
-102.451
0
LINE
8
BLACK
6
CONTINUOUS
10
91.5214
20
-102.451
11
91.331
21
-102.546
0
LINE
8
BLACK
6
CONTINUOUS
10
93.331
20
-103.784
11
93.4262
21
-103.88
0
LINE
8
BLACK
6
CONTINUOUS
10
93.4262
20
-103.88
11
93.331
21
-103.975
0
LINE
8
BLACK
6
CONTINUOUS
10
93.331
20
-103.975
11
93.2357
21
-103.88
0
LINE
8
BLACK
6
CONTINUOUS
10
93.2357
20
-103.88
11
93.331
21
-103.784
0
LINE
8
BLACK
6
CONTINUOUS
10
93.331
20
-103.784
11
93.331
21
-103.975
0
LINE
8
BLACK
6
CONTINUOUS
10
94.6643
20
-101.975
11
94.8548
21
-101.975
0
LINE
8
BLACK
6
CONTINUOUS
10
94.8548
20
-101.975
11
95.0452
21
-102.07
0
LINE
8
BLACK
6
CONTINUOUS
10
95.0452
20
-102.07
11
95.1405
21
-102.165
0
LINE
8
BLACK
6
CONTINUOUS
10
95.1405
20
-102.165
11
95.2357
21
-102.356
0
LINE
8
BLACK
6
CONTINUOUS
10
95.2357
20
-102.356
11
95.331
21
-102.737
0
LINE
8
BLACK
6
CONTINUOUS
10
95.331
20
-102.737
11
95.331
21
-103.213
0
LINE
8
BLACK
6
CONTINUOUS
10
95.331
20
-103.213
11
95.2357
21
-103.594
0
LINE
8
BLACK
6
CONTINUOUS
10
95.2357
20
-103.594
11
95.1405
21
-103.784
0
LINE
8
BLACK
6
CONTINUOUS
10
95.1405
20
-103.784
11
95.0452
21
-103.88
0
LINE
8
BLACK
6
CONTINUOUS
10
95.0452
20
-103.88
11
94.8548
21
-103.975
0
LINE
8
BLACK
6
CONTINUOUS
10
94.8548
20
-103.975
11
94.6643
21
-103.975
0
LINE
8
BLACK
6
CONTINUOUS
10
94.6643
20
-103.975
11
94.4738
21
-103.88
0
LINE
8
BLACK
6
CONTINUOUS
10
94.4738
20
-103.88
11
94.3786
21
-103.784
0
LINE
8
BLACK
6
CONTINUOUS
10
94.3786
20
-103.784
11
94.2833
21
-103.594
0
LINE
8
BLACK
6
CONTINUOUS
10
94.2833
20
-103.594
11
94.1881
21
-103.213
0
LINE
8
BLACK
6
CONTINUOUS
10
94.1881
20
-103.213
11
94.1881
21
-102.737
0
LINE
8
BLACK
6
CONTINUOUS
10
94.1881
20
-102.737
11
94.2833
21
-102.356
0
LINE
8
BLACK
6
CONTINUOUS
10
94.2833
20
-102.356
11
94.3786
21
-102.165
0
LINE
8
BLACK
6
CONTINUOUS
10
94.3786
20
-102.165
11
94.4738
21
-102.07
0
LINE
8
BLACK
6
CONTINUOUS
10
94.4738
20
-102.07
11
94.6643
21
-101.975
0
LINE
8
BLACK
6
CONTINUOUS
10
96.569
20
-101.975
11
96.7595
21
-101.975
0
LINE
8
BLACK
6
CONTINUOUS
10
96.7595
20
-101.975
11
96.95
21
-102.07
0
LINE
8
BLACK
6
CONTINUOUS
10
96.95
20
-102.07
11
97.0452
21
-102.165
0
LINE
8
BLACK
6
CONTINUOUS
10
97.0452
20
-102.165
11
97.1405
21
-102.356
0
LINE
8
BLACK
6
CONTINUOUS
10
97.1405
20
-102.356
11
97.2357
21
-102.737
0
LINE
8
BLACK
6
CONTINUOUS
10
97.2357
20
-102.737
11
97.2357
21
-103.213
0
LINE
8
BLACK
6
CONTINUOUS
10
97.2357
20
-103.213
11
97.1405
21
-103.594
0
LINE
8
BLACK
6
CONTINUOUS
10
97.1405
20
-103.594
11
97.0452
21
-103.784
0
LINE
8
BLACK
6
CONTINUOUS
10
97.0452
20
-103.784
11
96.95
21
-103.88
0
LINE
8
BLACK
6
CONTINUOUS
10
96.95
20
-103.88
11
96.7595
21
-103.975
0
LINE
8
BLACK
6
CONTINUOUS
10
96.7595
20
-103.975
11
96.569
21
-103.975
0
LINE
8
BLACK
6
CONTINUOUS
10
96.569
20
-103.975
11
96.3786
21
-103.88
0
LINE
8
BLACK
6
CONTINUOUS
10
96.3786
20
-103.88
11
96.2833
21
-103.784
0
LINE
8
BLACK
6
CONTINUOUS
10
96.2833
20
-103.784
11
96.1881
21
-103.594
0
LINE
8
BLACK
6
CONTINUOUS
10
96.1881
20
-103.594
11
96.0929
21
-103.213
0
LINE
8
BLACK
6
CONTINUOUS
10
96.0929
20
-103.213
11
96.0929
21
-102.737
0
LINE
8
BLACK
6
CONTINUOUS
10
96.0929
20
-102.737
11
96.1881
21
-102.356
0
LINE
8
BLACK
6
CONTINUOUS
10
96.1881
20
-102.356
11
96.2833
21
-102.165
0
LINE
8
BLACK
6
CONTINUOUS
10
96.2833
20
-102.165
11
96.3786
21
-102.07
0
LINE
8
BLACK
6
CONTINUOUS
10
96.3786
20
-102.07
11
96.569
21
-101.975
0
LINE
8
BLACK
6
CONTINUOUS
10
98.4738
20
-101.975
11
98.6643
21
-101.975
0
LINE
8
BLACK
6
CONTINUOUS
10
98.6643
20
-101.975
11
98.8548
21
-102.07
0
LINE
8
BLACK
6
CONTINUOUS
10
98.8548
20
-102.07
11
98.95
21
-102.165
0
LINE
8
BLACK
6
CONTINUOUS
10
98.95
20
-102.165
11
99.0452
21
-102.356
0
LINE
8
BLACK
6
CONTINUOUS
10
99.0452
20
-102.356
11
99.1405
21
-102.737
0
LINE
8
BLACK
6
CONTINUOUS
10
99.1405
20
-102.737
11
99.1405
21
-103.213
0
LINE
8
BLACK
6
CONTINUOUS
10
99.1405
20
-103.213
11
99.0452
21
-103.594
0
LINE
8
BLACK
6
CONTINUOUS
10
99.0452
20
-103.594
11
98.95
21
-103.784
0
LINE
8
BLACK
6
CONTINUOUS
10
98.95
20
-103.784
11
98.8548
21
-103.88
0
LINE
8
BLACK
6
CONTINUOUS
10
98.8548
20
-103.88
11
98.6643
21
-103.975
0
LINE
8
BLACK
6
CONTINUOUS
10
98.6643
20
-103.975
11
98.4738
21
-103.975
0
LINE
8
BLACK
6
CONTINUOUS
10
98.4738
20
-103.975
11
98.2833
21
-103.88
0
LINE
8
BLACK
6
CONTINUOUS
10
98.2833
20
-103.88
11
98.1881
21
-103.784
0
LINE
8
BLACK
6
CONTINUOUS
10
98.1881
20
-103.784
11
98.0929
21
-103.594
0
LINE
8
BLACK
6
CONTINUOUS
10
98.0929
20
-103.594
11
97.9976
21
-103.213
0
LINE
8
BLACK
6
CONTINUOUS
10
97.9976
20
-103.213
11
97.9976
21
-102.737
0
LINE
8
BLACK
6
CONTINUOUS
10
97.9976
20
-102.737
11
98.0929
21
-102.356
0
LINE
8
BLACK
6
CONTINUOUS
10
98.0929
20
-102.356
11
98.1881
21
-102.165
0
LINE
8
BLACK
6
CONTINUOUS
10
98.1881
20
-102.165
11
98.2833
21
-102.07
0
LINE
8
BLACK
6
CONTINUOUS
10
98.2833
20
-102.07
11
98.4738
21
-101.975
0
LINE
8
BLACK
6
CONTINUOUS
10
99.9976
20
-103.975
11
99.9976
21
-102.641
0
LINE
8
BLACK
6
CONTINUOUS
10
99.9976
20
-102.832
11
100.093
21
-102.737
0
LINE
8
BLACK
6
CONTINUOUS
10
100.093
20
-102.737
11
100.283
21
-102.641
0
LINE
8
BLACK
6
CONTINUOUS
10
100.283
20
-102.641
11
100.569
21
-102.641
0
LINE
8
BLACK
6
CONTINUOUS
10
100.569
20
-102.641
11
100.76
21
-102.737
0
LINE
8
BLACK
6
CONTINUOUS
10
100.76
20
-102.737
11
100.855
21
-102.927
0
LINE
8
BLACK
6
CONTINUOUS
10
100.855
20
-102.927
11
100.855
21
-103.975
0
LINE
8
BLACK
6
CONTINUOUS
10
100.855
20
-102.927
11
100.95
21
-102.737
0
LINE
8
BLACK
6
CONTINUOUS
10
100.95
20
-102.737
11
101.14
21
-102.641
0
LINE
8
BLACK
6
CONTINUOUS
10
101.14
20
-102.641
11
101.426
21
-102.641
0
LINE
8
BLACK
6
CONTINUOUS
10
101.426
20
-102.641
11
101.617
21
-102.737
0
LINE
8
BLACK
6
CONTINUOUS
10
101.617
20
-102.737
11
101.712
21
-102.927
0
LINE
8
BLACK
6
CONTINUOUS
10
101.712
20
-102.927
11
101.712
21
-103.975
0
LINE
8
BLACK
6
CONTINUOUS
10
102.664
20
-103.975
11
102.664
21
-102.641
0
LINE
8
BLACK
6
CONTINUOUS
10
102.664
20
-102.832
11
102.76
21
-102.737
0
LINE
8
BLACK
6
CONTINUOUS
10
102.76
20
-102.737
11
102.95
21
-102.641
0
LINE
8
BLACK
6
CONTINUOUS
10
102.95
20
-102.641
11
103.236
21
-102.641
0
LINE
8
BLACK
6
CONTINUOUS
10
103.236
20
-102.641
11
103.426
21
-102.737
0
LINE
8
BLACK
6
CONTINUOUS
10
103.426
20
-102.737
11
103.521
21
-102.927
0
LINE
8
BLACK
6
CONTINUOUS
10
103.521
20
-102.927
11
103.521
21
-103.975
0
LINE
8
BLACK
6
CONTINUOUS
10
103.521
20
-102.927
11
103.617
21
-102.737
0
LINE
8
BLACK
6
CONTINUOUS
10
103.617
20
-102.737
11
103.807
21
-102.641
0
LINE
8
BLACK
6
CONTINUOUS
10
103.807
20
-102.641
11
104.093
21
-102.641
0
LINE
8
BLACK
6
CONTINUOUS
10
104.093
20
-102.641
11
104.283
21
-102.737
0
LINE
8
BLACK
6
CONTINUOUS
10
104.283
20
-102.737
11
104.379
21
-102.927
0
LINE
8
BLACK
6
CONTINUOUS
10
104.379
20
-102.927
11
104.379
21
-103.975
0
LINE
8
BLACK
6
CONTINUOUS
10
108.283
20
-101.88
11
106.569
21
-104.451
0
LINE
8
BLACK
6
CONTINUOUS
10
110.855
20
-101.975
11
111.045
21
-101.975
0
LINE
8
BLACK
6
CONTINUOUS
10
111.045
20
-101.975
11
111.236
21
-102.07
0
LINE
8
BLACK
6
CONTINUOUS
10
111.236
20
-102.07
11
111.331
21
-102.165
0
LINE
8
BLACK
6
CONTINUOUS
10
111.331
20
-102.165
11
111.426
21
-102.356
0
LINE
8
BLACK
6
CONTINUOUS
10
111.426
20
-102.356
11
111.521
21
-102.737
0
LINE
8
BLACK
6
CONTINUOUS
10
111.521
20
-102.737
11
111.521
21
-103.213
0
LINE
8
BLACK
6
CONTINUOUS
10
111.521
20
-103.213
11
111.426
21
-103.594
0
LINE
8
BLACK
6
CONTINUOUS
10
111.426
20
-103.594
11
111.331
21
-103.784
0
LINE
8
BLACK
6
CONTINUOUS
10
111.331
20
-103.784
11
111.236
21
-103.88
0
LINE
8
BLACK
6
CONTINUOUS
10
111.236
20
-103.88
11
111.045
21
-103.975
0
LINE
8
BLACK
6
CONTINUOUS
10
111.045
20
-103.975
11
110.855
21
-103.975
0
LINE
8
BLACK
6
CONTINUOUS
10
110.855
20
-103.975
11
110.664
21
-103.88
0
LINE
8
BLACK
6
CONTINUOUS
10
110.664
20
-103.88
11
110.569
21
-103.784
0
LINE
8
BLACK
6
CONTINUOUS
10
110.569
20
-103.784
11
110.474
21
-103.594
0
LINE
8
BLACK
6
CONTINUOUS
10
110.474
20
-103.594
11
110.379
21
-103.213
0
LINE
8
BLACK
6
CONTINUOUS
10
110.379
20
-103.213
11
110.379
21
-102.737
0
LINE
8
BLACK
6
CONTINUOUS
10
110.379
20
-102.737
11
110.474
21
-102.356
0
LINE
8
BLACK
6
CONTINUOUS
10
110.474
20
-102.356
11
110.569
21
-102.165
0
LINE
8
BLACK
6
CONTINUOUS
10
110.569
20
-102.165
11
110.664
21
-102.07
0
LINE
8
BLACK
6
CONTINUOUS
10
110.664
20
-102.07
11
110.855
21
-101.975
0
LINE
8
BLACK
6
CONTINUOUS
10
112.379
20
-103.784
11
112.474
21
-103.88
0
LINE
8
BLACK
6
CONTINUOUS
10
112.474
20
-103.88
11
112.379
21
-103.975
0
LINE
8
BLACK
6
CONTINUOUS
10
112.379
20
-103.975
11
112.283
21
-103.88
0
LINE
8
BLACK
6
CONTINUOUS
10
112.283
20
-103.88
11
112.379
21
-103.784
0
LINE
8
BLACK
6
CONTINUOUS
10
112.379
20
-103.784
11
112.379
21
-103.975
0
LINE
8
BLACK
6
CONTINUOUS
10
113.712
20
-101.975
11
113.902
21
-101.975
0
LINE
8
BLACK
6
CONTINUOUS
10
113.902
20
-101.975
11
114.093
21
-102.07
0
LINE
8
BLACK
6
CONTINUOUS
10
114.093
20
-102.07
11
114.188
21
-102.165
0
LINE
8
BLACK
6
CONTINUOUS
10
114.188
20
-102.165
11
114.283
21
-102.356
0
LINE
8
BLACK
6
CONTINUOUS
10
114.283
20
-102.356
11
114.379
21
-102.737
0
LINE
8
BLACK
6
CONTINUOUS
10
114.379
20
-102.737
11
114.379
21
-103.213
0
LINE
8
BLACK
6
CONTINUOUS
10
114.379
20
-103.213
11
114.283
21
-103.594
0
LINE
8
BLACK
6
CONTINUOUS
10
114.283
20
-103.594
11
114.188
21
-103.784
0
LINE
8
BLACK
6
CONTINUOUS
10
114.188
20
-103.784
11
114.093
21
-103.88
0
LINE
8
BLACK
6
CONTINUOUS
10
114.093
20
-103.88
11
113.902
21
-103.975
0
LINE
8
BLACK
6
CONTINUOUS
10
113.902
20
-103.975
11
113.712
21
-103.975
0
LINE
8
BLACK
6
CONTINUOUS
10
113.712
20
-103.975
11
113.521
21
-103.88
0
LINE
8
BLACK
6
CONTINUOUS
10
113.521
20
-103.88
11
113.426
21
-103.784
0
LINE
8
BLACK
6
CONTINUOUS
10
113.426
20
-103.784
11
113.331
21
-103.594
0
LINE
8
BLACK
6
CONTINUOUS
10
113.331
20
-103.594
11
113.236
21
-103.213
0
LINE
8
BLACK
6
CONTINUOUS
10
113.236
20
-103.213
11
113.236
21
-102.737
0
LINE
8
BLACK
6
CONTINUOUS
10
113.236
20
-102.737
11
113.331
21
-102.356
0
LINE
8
BLACK
6
CONTINUOUS
10
113.331
20
-102.356
11
113.426
21
-102.165
0
LINE
8
BLACK
6
CONTINUOUS
10
113.426
20
-102.165
11
113.521
21
-102.07
0
LINE
8
BLACK
6
CONTINUOUS
10
113.521
20
-102.07
11
113.712
21
-101.975
0
LINE
8
BLACK
6
CONTINUOUS
10
115.045
20
-101.975
11
116.283
21
-101.975
0
LINE
8
BLACK
6
CONTINUOUS
10
116.283
20
-101.975
11
115.617
21
-102.737
0
LINE
8
BLACK
6
CONTINUOUS
10
115.617
20
-102.737
11
115.902
21
-102.737
0
LINE
8
BLACK
6
CONTINUOUS
10
115.902
20
-102.737
11
116.093
21
-102.832
0
LINE
8
BLACK
6
CONTINUOUS
10
116.093
20
-102.832
11
116.188
21
-102.927
0
LINE
8
BLACK
6
CONTINUOUS
10
116.188
20
-102.927
11
116.283
21
-103.118
0
LINE
8
BLACK
6
CONTINUOUS
10
116.283
20
-103.118
11
116.283
21
-103.594
0
LINE
8
BLACK
6
CONTINUOUS
10
116.283
20
-103.594
11
116.188
21
-103.784
0
LINE
8
BLACK
6
CONTINUOUS
10
116.188
20
-103.784
11
116.093
21
-103.88
0
LINE
8
BLACK
6
CONTINUOUS
10
116.093
20
-103.88
11
115.902
21
-103.975
0
LINE
8
BLACK
6
CONTINUOUS
10
115.902
20
-103.975
11
115.331
21
-103.975
0
LINE
8
BLACK
6
CONTINUOUS
10
115.331
20
-103.975
11
115.14
21
-103.88
0
LINE
8
BLACK
6
CONTINUOUS
10
115.14
20
-103.88
11
115.045
21
-103.784
0
LINE
8
BLACK
6
CONTINUOUS
10
117.236
20
-103.975
11
117.617
21
-103.975
0
LINE
8
BLACK
6
CONTINUOUS
10
117.617
20
-103.975
11
117.807
21
-103.88
0
LINE
8
BLACK
6
CONTINUOUS
10
117.807
20
-103.88
11
117.902
21
-103.784
0
LINE
8
BLACK
6
CONTINUOUS
10
117.902
20
-103.784
11
118.093
21
-103.499
0
LINE
8
BLACK
6
CONTINUOUS
10
118.093
20
-103.499
11
118.188
21
-103.118
0
LINE
8
BLACK
6
CONTINUOUS
10
118.188
20
-103.118
11
118.188
21
-102.356
0
LINE
8
BLACK
6
CONTINUOUS
10
118.188
20
-102.356
11
118.093
21
-102.165
0
LINE
8
BLACK
6
CONTINUOUS
10
118.093
20
-102.165
11
117.998
21
-102.07
0
LINE
8
BLACK
6
CONTINUOUS
10
117.998
20
-102.07
11
117.807
21
-101.975
0
LINE
8
BLACK
6
CONTINUOUS
10
117.807
20
-101.975
11
117.426
21
-101.975
0
LINE
8
BLACK
6
CONTINUOUS
10
117.426
20
-101.975
11
117.236
21
-102.07
0
LINE
8
BLACK
6
CONTINUOUS
10
117.236
20
-102.07
11
117.14
21
-102.165
0
LINE
8
BLACK
6
CONTINUOUS
10
117.14
20
-102.165
11
117.045
21
-102.356
0
LINE
8
BLACK
6
CONTINUOUS
10
117.045
20
-102.356
11
117.045
21
-102.832
0
LINE
8
BLACK
6
CONTINUOUS
10
117.045
20
-102.832
11
117.14
21
-103.022
0
LINE
8
BLACK
6
CONTINUOUS
10
117.14
20
-103.022
11
117.236
21
-103.118
0
LINE
8
BLACK
6
CONTINUOUS
10
117.236
20
-103.118
11
117.426
21
-103.213
0
LINE
8
BLACK
6
CONTINUOUS
10
117.426
20
-103.213
11
117.807
21
-103.213
0
LINE
8
BLACK
6
CONTINUOUS
10
117.807
20
-103.213
11
117.998
21
-103.118
0
LINE
8
BLACK
6
CONTINUOUS
10
117.998
20
-103.118
11
118.093
21
-103.022
0
LINE
8
BLACK
6
CONTINUOUS
10
118.093
20
-103.022
11
118.188
21
-102.832
0
LINE
8
BLACK
6
CONTINUOUS
10
119.902
20
-102.641
11
119.902
21
-103.975
0
LINE
8
BLACK
6
CONTINUOUS
10
119.426
20
-101.88
11
118.95
21
-103.308
0
LINE
8
BLACK
6
CONTINUOUS
10
118.95
20
-103.308
11
120.188
21
-103.308
0
LINE
8
BLACK
6
CONTINUOUS
10
120.855
20
-101.975
11
120.855
21
-102.356
0
LINE
8
BLACK
6
CONTINUOUS
10
121.617
20
-101.975
11
121.617
21
-102.356
0
LINE
8
BLACK
6
CONTINUOUS
10
124.569
20
-104.737
11
124.474
21
-104.641
0
LINE
8
BLACK
6
CONTINUOUS
10
124.474
20
-104.641
11
124.283
21
-104.356
0
LINE
8
BLACK
6
CONTINUOUS
10
124.283
20
-104.356
11
124.188
21
-104.165
0
LINE
8
BLACK
6
CONTINUOUS
10
124.188
20
-104.165
11
124.093
21
-103.88
0
LINE
8
BLACK
6
CONTINUOUS
10
124.093
20
-103.88
11
123.998
21
-103.403
0
LINE
8
BLACK
6
CONTINUOUS
10
123.998
20
-103.403
11
123.998
21
-103.022
0
LINE
8
BLACK
6
CONTINUOUS
10
123.998
20
-103.022
11
124.093
21
-102.546
0
LINE
8
BLACK
6
CONTINUOUS
10
124.093
20
-102.546
11
124.188
21
-102.26
0
LINE
8
BLACK
6
CONTINUOUS
10
124.188
20
-102.26
11
124.283
21
-102.07
0
LINE
8
BLACK
6
CONTINUOUS
10
124.283
20
-102.07
11
124.474
21
-101.784
0
LINE
8
BLACK
6
CONTINUOUS
10
124.474
20
-101.784
11
124.569
21
-101.689
0
LINE
8
BLACK
6
CONTINUOUS
10
125.712
20
-101.975
11
125.902
21
-101.975
0
LINE
8
BLACK
6
CONTINUOUS
10
125.902
20
-101.975
11
126.093
21
-102.07
0
LINE
8
BLACK
6
CONTINUOUS
10
126.093
20
-102.07
11
126.188
21
-102.165
0
LINE
8
BLACK
6
CONTINUOUS
10
126.188
20
-102.165
11
126.283
21
-102.356
0
LINE
8
BLACK
6
CONTINUOUS
10
126.283
20
-102.356
11
126.379
21
-102.737
0
LINE
8
BLACK
6
CONTINUOUS
10
126.379
20
-102.737
11
126.379
21
-103.213
0
LINE
8
BLACK
6
CONTINUOUS
10
126.379
20
-103.213
11
126.283
21
-103.594
0
LINE
8
BLACK
6
CONTINUOUS
10
126.283
20
-103.594
11
126.188
21
-103.784
0
LINE
8
BLACK
6
CONTINUOUS
10
126.188
20
-103.784
11
126.093
21
-103.88
0
LINE
8
BLACK
6
CONTINUOUS
10
126.093
20
-103.88
11
125.902
21
-103.975
0
LINE
8
BLACK
6
CONTINUOUS
10
125.902
20
-103.975
11
125.712
21
-103.975
0
LINE
8
BLACK
6
CONTINUOUS
10
125.712
20
-103.975
11
125.521
21
-103.88
0
LINE
8
BLACK
6
CONTINUOUS
10
125.521
20
-103.88
11
125.426
21
-103.784
0
LINE
8
BLACK
6
CONTINUOUS
10
125.426
20
-103.784
11
125.331
21
-103.594
0
LINE
8
BLACK
6
CONTINUOUS
10
125.331
20
-103.594
11
125.236
21
-103.213
0
LINE
8
BLACK
6
CONTINUOUS
10
125.236
20
-103.213
11
125.236
21
-102.737
0
LINE
8
BLACK
6
CONTINUOUS
10
125.236
20
-102.737
11
125.331
21
-102.356
0
LINE
8
BLACK
6
CONTINUOUS
10
125.331
20
-102.356
11
125.426
21
-102.165
0
LINE
8
BLACK
6
CONTINUOUS
10
125.426
20
-102.165
11
125.521
21
-102.07
0
LINE
8
BLACK
6
CONTINUOUS
10
125.521
20
-102.07
11
125.712
21
-101.975
0
LINE
8
BLACK
6
CONTINUOUS
10
128.76
20
-103.975
11
128.76
21
-101.975
0
LINE
8
BLACK
6
CONTINUOUS
10
129.617
20
-103.975
11
129.617
21
-102.927
0
LINE
8
BLACK
6
CONTINUOUS
10
129.617
20
-102.927
11
129.521
21
-102.737
0
LINE
8
BLACK
6
CONTINUOUS
10
129.521
20
-102.737
11
129.331
21
-102.641
0
LINE
8
BLACK
6
CONTINUOUS
10
129.331
20
-102.641
11
129.045
21
-102.641
0
LINE
8
BLACK
6
CONTINUOUS
10
129.045
20
-102.641
11
128.855
21
-102.737
0
LINE
8
BLACK
6
CONTINUOUS
10
128.855
20
-102.737
11
128.76
21
-102.832
0
LINE
8
BLACK
6
CONTINUOUS
10
130.855
20
-103.975
11
130.664
21
-103.88
0
LINE
8
BLACK
6
CONTINUOUS
10
130.664
20
-103.88
11
130.569
21
-103.784
0
LINE
8
BLACK
6
CONTINUOUS
10
130.569
20
-103.784
11
130.474
21
-103.594
0
LINE
8
BLACK
6
CONTINUOUS
10
130.474
20
-103.594
11
130.474
21
-103.022
0
LINE
8
BLACK
6
CONTINUOUS
10
130.474
20
-103.022
11
130.569
21
-102.832
0
LINE
8
BLACK
6
CONTINUOUS
10
130.569
20
-102.832
11
130.664
21
-102.737
0
LINE
8
BLACK
6
CONTINUOUS
10
130.664
20
-102.737
11
130.855
21
-102.641
0
LINE
8
BLACK
6
CONTINUOUS
10
130.855
20
-102.641
11
131.14
21
-102.641
0
LINE
8
BLACK
6
CONTINUOUS
10
131.14
20
-102.641
11
131.331
21
-102.737
0
LINE
8
BLACK
6
CONTINUOUS
10
131.331
20
-102.737
11
131.426
21
-102.832
0
LINE
8
BLACK
6
CONTINUOUS
10
131.426
20
-102.832
11
131.521
21
-103.022
0
LINE
8
BLACK
6
CONTINUOUS
10
131.521
20
-103.022
11
131.521
21
-103.594
0
LINE
8
BLACK
6
CONTINUOUS
10
131.521
20
-103.594
11
131.426
21
-103.784
0
LINE
8
BLACK
6
CONTINUOUS
10
131.426
20
-103.784
11
131.331
21
-103.88
0
LINE
8
BLACK
6
CONTINUOUS
10
131.331
20
-103.88
11
131.14
21
-103.975
0
LINE
8
BLACK
6
CONTINUOUS
10
131.14
20
-103.975
11
130.855
21
-103.975
0
LINE
8
BLACK
6
CONTINUOUS
10
132.664
20
-103.975
11
132.474
21
-103.88
0
LINE
8
BLACK
6
CONTINUOUS
10
132.474
20
-103.88
11
132.379
21
-103.689
0
LINE
8
BLACK
6
CONTINUOUS
10
132.379
20
-103.689
11
132.379
21
-101.975
0
LINE
8
BLACK
6
CONTINUOUS
10
134.188
20
-103.88
11
133.998
21
-103.975
0
LINE
8
BLACK
6
CONTINUOUS
10
133.998
20
-103.975
11
133.617
21
-103.975
0
LINE
8
BLACK
6
CONTINUOUS
10
133.617
20
-103.975
11
133.426
21
-103.88
0
LINE
8
BLACK
6
CONTINUOUS
10
133.426
20
-103.88
11
133.331
21
-103.689
0
LINE
8
BLACK
6
CONTINUOUS
10
133.331
20
-103.689
11
133.331
21
-102.927
0
LINE
8
BLACK
6
CONTINUOUS
10
133.331
20
-102.927
11
133.426
21
-102.737
0
LINE
8
BLACK
6
CONTINUOUS
10
133.426
20
-102.737
11
133.617
21
-102.641
0
LINE
8
BLACK
6
CONTINUOUS
10
133.617
20
-102.641
11
133.998
21
-102.641
0
LINE
8
BLACK
6
CONTINUOUS
10
133.998
20
-102.641
11
134.188
21
-102.737
0
LINE
8
BLACK
6
CONTINUOUS
10
134.188
20
-102.737
11
134.283
21
-102.927
0
LINE
8
BLACK
6
CONTINUOUS
10
134.283
20
-102.927
11
134.283
21
-103.118
0
LINE
8
BLACK
6
CONTINUOUS
10
134.283
20
-103.118
11
133.331
21
-103.308
0
LINE
8
BLACK
6
CONTINUOUS
10
135.045
20
-103.88
11
135.236
21
-103.975
0
LINE
8
BLACK
6
CONTINUOUS
10
135.236
20
-103.975
11
135.617
21
-103.975
0
LINE
8
BLACK
6
CONTINUOUS
10
135.617
20
-103.975
11
135.807
21
-103.88
0
LINE
8
BLACK
6
CONTINUOUS
10
135.807
20
-103.88
11
135.902
21
-103.689
0
LINE
8
BLACK
6
CONTINUOUS
10
135.902
20
-103.689
11
135.902
21
-103.594
0
LINE
8
BLACK
6
CONTINUOUS
10
135.902
20
-103.594
11
135.807
21
-103.403
0
LINE
8
BLACK
6
CONTINUOUS
10
135.807
20
-103.403
11
135.617
21
-103.308
0
LINE
8
BLACK
6
CONTINUOUS
10
135.617
20
-103.308
11
135.331
21
-103.308
0
LINE
8
BLACK
6
CONTINUOUS
10
135.331
20
-103.308
11
135.14
21
-103.213
0
LINE
8
BLACK
6
CONTINUOUS
10
135.14
20
-103.213
11
135.045
21
-103.022
0
LINE
8
BLACK
6
CONTINUOUS
10
135.045
20
-103.022
11
135.045
21
-102.927
0
LINE
8
BLACK
6
CONTINUOUS
10
135.045
20
-102.927
11
135.14
21
-102.737
0
LINE
8
BLACK
6
CONTINUOUS
10
135.14
20
-102.737
11
135.331
21
-102.641
0
LINE
8
BLACK
6
CONTINUOUS
10
135.331
20
-102.641
11
135.617
21
-102.641
0
LINE
8
BLACK
6
CONTINUOUS
10
135.617
20
-102.641
11
135.807
21
-102.737
0
LINE
8
BLACK
6
CONTINUOUS
10
138.283
20
-103.213
11
139.807
21
-103.213
0
LINE
8
BLACK
6
CONTINUOUS
10
139.045
20
-103.975
11
139.045
21
-102.451
0
LINE
8
BLACK
6
CONTINUOUS
10
142.093
20
-101.975
11
143.331
21
-101.975
0
LINE
8
BLACK
6
CONTINUOUS
10
143.331
20
-101.975
11
142.664
21
-102.737
0
LINE
8
BLACK
6
CONTINUOUS
10
142.664
20
-102.737
11
142.95
21
-102.737
0
LINE
8
BLACK
6
CONTINUOUS
10
142.95
20
-102.737
11
143.14
21
-102.832
0
LINE
8
BLACK
6
CONTINUOUS
10
143.14
20
-102.832
11
143.236
21
-102.927
0
LINE
8
BLACK
6
CONTINUOUS
10
143.236
20
-102.927
11
143.331
21
-103.118
0
LINE
8
BLACK
6
CONTINUOUS
10
143.331
20
-103.118
11
143.331
21
-103.594
0
LINE
8
BLACK
6
CONTINUOUS
10
143.331
20
-103.594
11
143.236
21
-103.784
0
LINE
8
BLACK
6
CONTINUOUS
10
143.236
20
-103.784
11
143.14
21
-103.88
0
LINE
8
BLACK
6
CONTINUOUS
10
143.14
20
-103.88
11
142.95
21
-103.975
0
LINE
8
BLACK
6
CONTINUOUS
10
142.95
20
-103.975
11
142.379
21
-103.975
0
LINE
8
BLACK
6
CONTINUOUS
10
142.379
20
-103.975
11
142.188
21
-103.88
0
LINE
8
BLACK
6
CONTINUOUS
10
142.188
20
-103.88
11
142.093
21
-103.784
0
LINE
8
BLACK
6
CONTINUOUS
10
145.617
20
-103.88
11
145.807
21
-103.975
0
LINE
8
BLACK
6
CONTINUOUS
10
145.807
20
-103.975
11
146.188
21
-103.975
0
LINE
8
BLACK
6
CONTINUOUS
10
146.188
20
-103.975
11
146.379
21
-103.88
0
LINE
8
BLACK
6
CONTINUOUS
10
146.379
20
-103.88
11
146.474
21
-103.689
0
LINE
8
BLACK
6
CONTINUOUS
10
146.474
20
-103.689
11
146.474
21
-103.594
0
LINE
8
BLACK
6
CONTINUOUS
10
146.474
20
-103.594
11
146.379
21
-103.403
0
LINE
8
BLACK
6
CONTINUOUS
10
146.379
20
-103.403
11
146.188
21
-103.308
0
LINE
8
BLACK
6
CONTINUOUS
10
146.188
20
-103.308
11
145.902
21
-103.308
0
LINE
8
BLACK
6
CONTINUOUS
10
145.902
20
-103.308
11
145.712
21
-103.213
0
LINE
8
BLACK
6
CONTINUOUS
10
145.712
20
-103.213
11
145.617
21
-103.022
0
LINE
8
BLACK
6
CONTINUOUS
10
145.617
20
-103.022
11
145.617
21
-102.927
0
LINE
8
BLACK
6
CONTINUOUS
10
145.617
20
-102.927
11
145.712
21
-102.737
0
LINE
8
BLACK
6
CONTINUOUS
10
145.712
20
-102.737
11
145.902
21
-102.641
0
LINE
8
BLACK
6
CONTINUOUS
10
145.902
20
-102.641
11
146.188
21
-102.641
0
LINE
8
BLACK
6
CONTINUOUS
10
146.188
20
-102.641
11
146.379
21
-102.737
0
LINE
8
BLACK
6
CONTINUOUS
10
147.617
20
-103.975
11
147.426
21
-103.88
0
LINE
8
BLACK
6
CONTINUOUS
10
147.426
20
-103.88
11
147.331
21
-103.689
0
LINE
8
BLACK
6
CONTINUOUS
10
147.331
20
-103.689
11
147.331
21
-101.975
0
LINE
8
BLACK
6
CONTINUOUS
10
148.664
20
-103.975
11
148.474
21
-103.88
0
LINE
8
BLACK
6
CONTINUOUS
10
148.474
20
-103.88
11
148.379
21
-103.784
0
LINE
8
BLACK
6
CONTINUOUS
10
148.379
20
-103.784
11
148.283
21
-103.594
0
LINE
8
BLACK
6
CONTINUOUS
10
148.283
20
-103.594
11
148.283
21
-103.022
0
LINE
8
BLACK
6
CONTINUOUS
10
148.283
20
-103.022
11
148.379
21
-102.832
0
LINE
8
BLACK
6
CONTINUOUS
10
148.379
20
-102.832
11
148.474
21
-102.737
0
LINE
8
BLACK
6
CONTINUOUS
10
148.474
20
-102.737
11
148.664
21
-102.641
0
LINE
8
BLACK
6
CONTINUOUS
10
148.664
20
-102.641
11
148.95
21
-102.641
0
LINE
8
BLACK
6
CONTINUOUS
10
148.95
20
-102.641
11
149.14
21
-102.737
0
LINE
8
BLACK
6
CONTINUOUS
10
149.14
20
-102.737
11
149.236
21
-102.832
0
LINE
8
BLACK
6
CONTINUOUS
10
149.236
20
-102.832
11
149.331
21
-103.022
0
LINE
8
BLACK
6
CONTINUOUS
10
149.331
20
-103.022
11
149.331
21
-103.594
0
LINE
8
BLACK
6
CONTINUOUS
10
149.331
20
-103.594
11
149.236
21
-103.784
0
LINE
8
BLACK
6
CONTINUOUS
10
149.236
20
-103.784
11
149.14
21
-103.88
0
LINE
8
BLACK
6
CONTINUOUS
10
149.14
20
-103.88
11
148.95
21
-103.975
0
LINE
8
BLACK
6
CONTINUOUS
10
148.95
20
-103.975
11
148.664
21
-103.975
0
LINE
8
BLACK
6
CONTINUOUS
10
149.902
20
-102.641
11
150.664
21
-102.641
0
LINE
8
BLACK
6
CONTINUOUS
10
150.188
20
-101.975
11
150.188
21
-103.689
0
LINE
8
BLACK
6
CONTINUOUS
10
150.188
20
-103.689
11
150.283
21
-103.88
0
LINE
8
BLACK
6
CONTINUOUS
10
150.283
20
-103.88
11
150.474
21
-103.975
0
LINE
8
BLACK
6
CONTINUOUS
10
150.474
20
-103.975
11
150.664
21
-103.975
0
LINE
8
BLACK
6
CONTINUOUS
10
151.236
20
-103.88
11
151.426
21
-103.975
0
LINE
8
BLACK
6
CONTINUOUS
10
151.426
20
-103.975
11
151.807
21
-103.975
0
LINE
8
BLACK
6
CONTINUOUS
10
151.807
20
-103.975
11
151.998
21
-103.88
0
LINE
8
BLACK
6
CONTINUOUS
10
151.998
20
-103.88
11
152.093
21
-103.689
0
LINE
8
BLACK
6
CONTINUOUS
10
152.093
20
-103.689
11
152.093
21
-103.594
0
LINE
8
BLACK
6
CONTINUOUS
10
152.093
20
-103.594
11
151.998
21
-103.403
0
LINE
8
BLACK
6
CONTINUOUS
10
151.998
20
-103.403
11
151.807
21
-103.308
0
LINE
8
BLACK
6
CONTINUOUS
10
151.807
20
-103.308
11
151.521
21
-103.308
0
LINE
8
BLACK
6
CONTINUOUS
10
151.521
20
-103.308
11
151.331
21
-103.213
0
LINE
8
BLACK
6
CONTINUOUS
10
151.331
20
-103.213
11
151.236
21
-103.022
0
LINE
8
BLACK
6
CONTINUOUS
10
151.236
20
-103.022
11
151.236
21
-102.927
0
LINE
8
BLACK
6
CONTINUOUS
10
151.236
20
-102.927
11
151.331
21
-102.737
0
LINE
8
BLACK
6
CONTINUOUS
10
151.331
20
-102.737
11
151.521
21
-102.641
0
LINE
8
BLACK
6
CONTINUOUS
10
151.521
20
-102.641
11
151.807
21
-102.641
0
LINE
8
BLACK
6
CONTINUOUS
10
151.807
20
-102.641
11
151.998
21
-102.737
0
LINE
8
BLACK
6
CONTINUOUS
10
152.76
20
-104.737
11
152.855
21
-104.641
0
LINE
8
BLACK
6
CONTINUOUS
10
152.855
20
-104.641
11
153.045
21
-104.356
0
LINE
8
BLACK
6
CONTINUOUS
10
153.045
20
-104.356
11
153.14
21
-104.165
0
LINE
8
BLACK
6
CONTINUOUS
10
153.14
20
-104.165
11
153.236
21
-103.88
0
LINE
8
BLACK
6
CONTINUOUS
10
153.236
20
-103.88
11
153.331
21
-103.403
0
LINE
8
BLACK
6
CONTINUOUS
10
153.331
20
-103.403
11
153.331
21
-103.022
0
LINE
8
BLACK
6
CONTINUOUS
10
153.331
20
-103.022
11
153.236
21
-102.546
0
LINE
8
BLACK
6
CONTINUOUS
10
153.236
20
-102.546
11
153.14
21
-102.26
0
LINE
8
BLACK
6
CONTINUOUS
10
153.14
20
-102.26
11
153.045
21
-102.07
0
LINE
8
BLACK
6
CONTINUOUS
10
153.045
20
-102.07
11
152.855
21
-101.784
0
LINE
8
BLACK
6
CONTINUOUS
10
152.855
20
-101.784
11
152.76
21
-101.689
  0
ENDSEC
  0
EOF
